<svg xmlns="http://www.w3.org/2000/svg" xmlns:xlink="http://www.w3.org/1999/xlink" width="500" zoomAndPan="magnify" viewBox="0 0 375 374.999991" height="500" preserveAspectRatio="xMidYMid meet" version="1.0"><metadata><ContainsAiGeneratedContent>Yes</ContainsAiGeneratedContent></metadata><defs><clipPath id="372cc5c946"><path d="M 13.285156 13.648438 L 363.214844 13.648438 L 363.214844 363.582031 L 13.285156 363.582031 Z M 13.285156 13.648438 " clip-rule="nonzero"/></clipPath><clipPath id="a6b582c5b4"><path d="M 188.25 13.648438 C 91.617188 13.648438 13.285156 91.984375 13.285156 188.617188 C 13.285156 285.246094 91.617188 363.582031 188.25 363.582031 C 284.882812 363.582031 363.214844 285.246094 363.214844 188.617188 C 363.214844 91.984375 284.882812 13.648438 188.25 13.648438 Z M 188.25 13.648438 " clip-rule="nonzero"/></clipPath></defs><rect x="-37.5" width="450" fill="#ffffff" y="-37.499999" height="449.999989" fill-opacity="1"/><rect x="-37.5" width="450" fill="#ffffff" y="-37.499999" height="449.999989" fill-opacity="1"/><g clip-path="url(#372cc5c946)"><g clip-path="url(#a6b582c5b4)"><path fill="#26216a" d="M 13.285156 13.648438 L 363.214844 13.648438 L 363.214844 363.582031 L 13.285156 363.582031 Z M 13.285156 13.648438 " fill-opacity="1" fill-rule="nonzero"/></g></g><path fill="#cdc9e0" d="M 230.367188 174.105469 C 225.664062 174.074219 221.796875 177.894531 221.796875 182.5625 C 221.796875 187.199219 225.714844 191.113281 230.351562 191.082031 C 234.941406 191.050781 238.699219 187.292969 238.777344 182.6875 C 238.855469 177.957031 235.113281 174.152344 230.367188 174.121094 Z M 230.367188 174.105469 " fill-opacity="1" fill-rule="nonzero"/><path fill="#cdc9e0" d="M 161.117188 182.5 C 161.070312 177.910156 157.3125 174.167969 152.6875 174.105469 C 147.957031 174.042969 144.121094 177.796875 144.105469 182.53125 C 144.089844 187.199219 147.957031 191.097656 152.609375 191.082031 C 157.25 191.082031 161.164062 187.136719 161.117188 182.5 Z M 161.117188 182.5 " fill-opacity="1" fill-rule="nonzero"/><path fill="#cdc9e0" d="M 220.855469 225.761719 C 220.554688 225.277344 219.519531 225.039062 218.828125 225.039062 C 200.8125 225.007812 182.808594 224.992188 164.792969 225.070312 C 163.960938 225.070312 162.796875 225.808594 162.34375 226.550781 C 160.171875 230.023438 158.175781 233.625 156.132812 237.175781 C 155.171875 238.828125 154.246094 240.507812 153.191406 242.378906 L 230.539062 242.378906 C 227.238281 236.65625 224.109375 231.1875 220.855469 225.761719 Z M 220.855469 225.761719 " fill-opacity="1" fill-rule="nonzero"/><path fill="#cdc9e0" d="M 187.683594 114.757812 L 145.410156 114.757812 L 145.410156 156.890625 L 187.683594 156.890625 Z M 187.683594 114.757812 " fill-opacity="1" fill-rule="nonzero"/><path fill="#cdc9e0" d="M 175.140625 106.175781 C 180.75 106.253906 186.363281 106.207031 191.976562 106.207031 C 197.589844 106.207031 203.199219 106.253906 208.8125 106.191406 C 211.5 106.160156 213.246094 104.367188 213.277344 101.914062 C 213.308594 99.460938 211.578125 97.527344 208.9375 97.511719 C 197.855469 97.449219 186.773438 97.480469 175.6875 97.496094 C 175.328125 97.496094 174.980469 97.605469 174.621094 97.667969 C 172.152344 98.125 170.644531 99.808594 170.722656 102.054688 C 170.800781 104.382812 172.527344 106.144531 175.125 106.175781 Z M 175.140625 106.175781 " fill-opacity="1" fill-rule="nonzero"/><path fill="#cdc9e0" d="M 238.730469 259.484375 C 207.476562 259.453125 176.238281 259.46875 144.984375 259.421875 C 143.632812 259.421875 142.941406 259.894531 142.3125 261.023438 C 140.472656 264.359375 138.523438 267.644531 136.621094 270.945312 C 135.632812 272.660156 134.671875 274.402344 133.574219 276.351562 L 250.144531 276.351562 C 246.90625 270.742188 243.886719 265.441406 240.757812 260.222656 C 240.476562 259.734375 239.4375 259.5 238.746094 259.5 Z M 238.730469 259.484375 " fill-opacity="1" fill-rule="nonzero"/><path fill="#cdc9e0" d="M 196.425781 156.921875 L 238.683594 156.921875 L 238.683594 114.726562 L 196.425781 114.726562 Z M 196.425781 156.921875 " fill-opacity="1" fill-rule="nonzero"/><path fill="#cdc9e0" d="M 188.25 12.980469 C 91.25 12.980469 12.617188 91.617188 12.617188 188.613281 C 12.617188 285.613281 91.25 364.25 188.25 364.25 C 285.25 364.25 363.882812 285.613281 363.882812 188.613281 C 363.882812 91.617188 285.25 12.980469 188.25 12.980469 Z M 269.699219 310.453125 C 266.964844 305.640625 264.152344 300.878906 261.539062 295.988281 C 260.535156 294.101562 259.417969 293.425781 257.21875 293.425781 C 213.921875 293.503906 170.625 293.519531 127.332031 293.410156 C 124.484375 293.410156 122.945312 294.195312 121.6875 296.710938 C 119.34375 301.382812 116.625 305.878906 114.078125 310.453125 L 104.144531 310.453125 C 120.507812 282.121094 136.875 253.777344 153.492188 224.992188 C 151.949219 224.992188 150.851562 225.023438 149.734375 224.992188 C 142.234375 224.804688 136.9375 219.585938 136.921875 212.117188 C 136.875 175.457031 136.875 138.796875 136.921875 102.117188 C 136.921875 94.460938 142.390625 89.132812 150.0625 89.117188 C 178.078125 89.101562 206.109375 89.101562 234.125 89.117188 C 241.796875 89.117188 247.25 94.507812 247.25 102.148438 C 247.28125 138.746094 247.28125 175.332031 247.25 211.929688 C 247.25 219.523438 241.96875 224.820312 234.390625 224.992188 C 233.164062 225.023438 231.953125 224.992188 230.273438 224.992188 C 230.789062 225.96875 231.152344 226.675781 231.5625 227.367188 C 247.171875 254.421875 262.78125 281.460938 278.378906 308.519531 C 278.722656 309.117188 278.929688 309.808594 279.210938 310.453125 Z M 269.699219 310.453125 " fill-opacity="1" fill-rule="nonzero"/></svg>