<svg xmlns="http://www.w3.org/2000/svg" xmlns:xlink="http://www.w3.org/1999/xlink" width="500" zoomAndPan="magnify" viewBox="0 0 375 374.999991" height="500" preserveAspectRatio="xMidYMid meet" version="1.0"><metadata><ContainsAiGeneratedContent>Yes</ContainsAiGeneratedContent></metadata><defs><clipPath id="84e36e4bb2"><path d="M 12.535156 15.148438 L 362.464844 15.148438 L 362.464844 365.082031 L 12.535156 365.082031 Z M 12.535156 15.148438 " clip-rule="nonzero"/></clipPath><clipPath id="4d18e1784b"><path d="M 187.5 15.148438 C 90.867188 15.148438 12.535156 93.484375 12.535156 190.117188 C 12.535156 286.746094 90.867188 365.082031 187.5 365.082031 C 284.132812 365.082031 362.464844 286.746094 362.464844 190.117188 C 362.464844 93.484375 284.132812 15.148438 187.5 15.148438 Z M 187.5 15.148438 " clip-rule="nonzero"/></clipPath></defs><g clip-path="url(#84e36e4bb2)"><g clip-path="url(#4d18e1784b)"><path fill="#26216a" d="M 12.535156 15.148438 L 362.464844 15.148438 L 362.464844 365.082031 L 12.535156 365.082031 Z M 12.535156 15.148438 " fill-opacity="1" fill-rule="nonzero"/></g></g><path fill="#cdc9e0" d="M 187.496094 12.960938 C 90.078125 12.960938 11.132812 91.90625 11.132812 189.324219 C 11.132812 286.738281 90.078125 365.683594 187.496094 365.683594 C 284.910156 365.683594 363.855469 286.738281 363.855469 189.324219 C 363.855469 91.90625 284.910156 12.960938 187.496094 12.960938 Z M 237.070312 256.109375 L 277.648438 256.109375 L 269.914062 248.375 C 269.121094 247.582031 269.121094 246.320312 269.914062 245.53125 C 270.703125 244.742188 271.964844 244.742188 272.753906 245.53125 L 285.542969 258.320312 L 272.753906 270.792969 C 271.964844 271.582031 270.703125 271.582031 269.914062 270.792969 C 269.597656 270.476562 269.28125 269.847656 269.28125 269.371094 C 269.28125 268.898438 269.4375 268.265625 269.914062 267.953125 L 277.964844 260.058594 L 236.914062 260.058594 C 236.28125 260.058594 235.652344 259.109375 235.652344 258.003906 C 235.652344 256.898438 236.28125 255.953125 236.914062 255.953125 Z M 202.019531 64.433594 C 202.96875 65.382812 202.96875 66.800781 202.019531 67.75 L 195.390625 74.378906 C 194.914062 74.855469 194.285156 75.011719 193.652344 75.011719 C 193.019531 75.011719 192.390625 74.695312 191.914062 74.378906 C 190.96875 73.433594 190.96875 72.011719 191.914062 71.066406 L 198.546875 64.433594 C 199.496094 63.488281 200.914062 63.488281 201.863281 64.433594 Z M 188.914062 288.792969 C 187.496094 290.214844 186.390625 288.792969 186.390625 288.792969 C 184.179688 286.582031 182.285156 284.53125 178.496094 284.53125 C 174.707031 284.53125 172.8125 286.425781 170.601562 288.792969 C 168.234375 291.320312 165.546875 294.160156 160.339844 294.160156 C 155.128906 294.160156 152.445312 291.320312 150.074219 288.792969 C 147.863281 286.582031 145.96875 284.53125 142.179688 284.53125 C 138.390625 284.53125 140.445312 283.738281 140.445312 282.792969 C 140.445312 281.84375 141.234375 281.054688 142.179688 281.054688 C 147.390625 281.054688 150.074219 283.898438 152.445312 286.425781 C 154.652344 288.632812 156.550781 290.6875 160.339844 290.6875 C 164.128906 290.6875 166.023438 288.792969 168.234375 286.425781 C 170.601562 283.898438 173.285156 281.054688 178.496094 281.054688 C 183.707031 281.054688 186.390625 283.898438 188.757812 286.425781 C 188.757812 286.425781 189.863281 287.6875 188.757812 288.632812 Z M 188.914062 297.792969 C 187.496094 299.214844 186.390625 297.792969 186.390625 297.792969 C 184.179688 295.582031 182.285156 293.527344 178.496094 293.527344 C 174.707031 293.527344 172.8125 295.421875 170.601562 297.792969 C 168.234375 300.316406 165.546875 303.160156 160.339844 303.160156 C 155.128906 303.160156 152.445312 300.316406 150.074219 297.792969 C 147.863281 295.582031 145.96875 293.527344 142.179688 293.527344 C 138.390625 293.527344 140.445312 292.738281 140.445312 291.792969 C 140.445312 290.84375 141.234375 290.054688 142.179688 290.054688 C 147.390625 290.054688 150.074219 292.898438 152.445312 295.421875 C 154.652344 297.632812 156.550781 299.6875 160.339844 299.6875 C 164.128906 299.6875 166.023438 297.792969 168.234375 295.421875 C 170.601562 292.898438 173.285156 290.054688 178.496094 290.054688 C 183.707031 290.054688 186.390625 292.898438 188.757812 295.421875 C 188.757812 295.421875 189.863281 296.6875 188.757812 297.632812 Z M 188.914062 279.160156 C 187.496094 280.582031 186.390625 279.160156 186.390625 279.160156 C 184.179688 276.949219 182.285156 274.898438 178.496094 274.898438 C 174.707031 274.898438 172.8125 276.792969 170.601562 279.160156 C 168.234375 281.6875 165.546875 284.53125 160.339844 284.53125 C 155.128906 284.53125 152.445312 281.6875 150.074219 279.160156 C 147.863281 276.949219 145.96875 274.898438 142.179688 274.898438 C 138.390625 274.898438 140.445312 274.109375 140.445312 273.160156 C 140.445312 272.214844 141.234375 271.425781 142.179688 271.425781 C 147.390625 271.425781 150.074219 274.265625 152.445312 276.792969 C 154.652344 279.003906 156.550781 281.054688 160.339844 281.054688 C 164.128906 281.054688 166.023438 279.160156 168.234375 276.792969 C 170.601562 274.265625 173.285156 271.425781 178.496094 271.425781 C 183.707031 271.425781 186.390625 274.265625 188.757812 276.792969 C 188.757812 276.792969 189.863281 278.054688 188.757812 279.003906 Z M 144.234375 141.007812 L 150.863281 134.378906 C 151.8125 133.429688 153.234375 133.429688 154.179688 134.378906 C 155.128906 135.324219 155.128906 136.746094 154.179688 137.695312 L 147.550781 144.324219 C 147.074219 144.796875 146.445312 144.957031 145.8125 144.957031 C 145.179688 144.957031 144.550781 144.796875 144.074219 144.324219 C 143.128906 143.378906 143.128906 141.957031 144.074219 141.007812 Z M 140.445312 129.324219 C 139.96875 129.800781 139.339844 129.957031 138.707031 129.957031 C 138.074219 129.957031 137.445312 129.640625 136.972656 129.324219 C 136.023438 128.378906 136.023438 126.957031 136.972656 126.011719 L 144.707031 118.273438 C 145.65625 117.328125 147.074219 117.328125 148.023438 118.273438 C 148.96875 119.222656 148.96875 120.640625 148.023438 121.589844 L 140.285156 129.324219 Z M 178.335938 106.90625 C 179.285156 105.957031 180.707031 105.957031 181.652344 106.90625 C 182.601562 107.851562 182.601562 109.273438 181.652344 110.222656 L 175.023438 116.851562 C 174.546875 117.328125 173.917969 117.484375 173.285156 117.484375 C 172.652344 117.484375 172.023438 117.167969 171.546875 116.851562 C 170.601562 115.90625 170.601562 114.484375 171.546875 113.535156 L 178.179688 106.90625 Z M 177.707031 85.433594 L 185.441406 77.695312 C 186.390625 76.75 187.8125 76.75 188.757812 77.695312 C 189.707031 78.644531 189.707031 80.066406 188.757812 81.011719 L 181.023438 88.75 C 180.546875 89.222656 179.917969 89.378906 179.285156 89.378906 C 178.652344 89.378906 178.023438 89.0625 177.546875 88.75 C 176.601562 87.800781 176.601562 86.378906 177.546875 85.433594 Z M 174.546875 95.222656 L 167.917969 101.851562 C 167.441406 102.328125 166.8125 102.484375 166.179688 102.484375 C 165.546875 102.484375 164.917969 102.167969 164.441406 101.851562 C 163.496094 100.90625 163.496094 99.484375 164.441406 98.539062 L 171.074219 91.90625 C 172.023438 90.957031 173.441406 90.957031 174.390625 91.90625 C 175.335938 92.855469 175.335938 94.273438 174.390625 95.222656 Z M 165.234375 120.011719 C 166.179688 119.0625 167.601562 119.0625 168.546875 120.011719 C 169.496094 120.957031 169.496094 122.378906 168.546875 123.324219 L 160.8125 131.0625 C 160.339844 131.535156 159.707031 131.695312 159.074219 131.695312 C 158.445312 131.695312 157.8125 131.378906 157.339844 131.0625 C 156.390625 130.113281 156.390625 128.695312 157.339844 127.746094 L 165.074219 120.011719 Z M 163.023438 187.269531 C 164.441406 187.269531 165.707031 188.535156 165.707031 189.953125 C 165.707031 191.375 164.441406 192.640625 163.023438 192.640625 C 161.601562 192.640625 160.339844 191.375 160.339844 189.953125 C 160.339844 188.535156 161.601562 187.269531 163.023438 187.269531 Z M 158.445312 182.21875 C 158.445312 180.796875 159.707031 179.535156 161.128906 179.535156 C 162.546875 179.535156 163.8125 180.796875 163.8125 182.21875 C 163.8125 183.640625 162.546875 184.902344 161.128906 184.902344 C 159.707031 184.902344 158.445312 183.640625 158.445312 182.21875 Z M 163.652344 264.953125 C 162.234375 264.953125 160.96875 263.6875 160.96875 262.265625 C 160.96875 260.847656 162.234375 259.582031 163.652344 259.582031 C 165.074219 259.582031 166.339844 260.847656 166.339844 262.265625 C 166.339844 263.6875 165.074219 264.953125 163.652344 264.953125 Z M 166.339844 270.476562 C 166.339844 271.898438 165.074219 273.160156 163.652344 273.160156 C 162.234375 273.160156 160.96875 271.898438 160.96875 270.476562 C 160.96875 269.054688 162.234375 267.792969 163.652344 267.792969 C 165.074219 267.792969 166.339844 269.054688 166.339844 270.476562 Z M 163.652344 257.371094 C 162.234375 257.371094 160.96875 256.109375 160.96875 254.6875 C 160.96875 253.269531 162.234375 252.003906 163.652344 252.003906 C 165.074219 252.003906 166.339844 253.269531 166.339844 254.6875 C 166.339844 256.109375 165.074219 257.371094 163.652344 257.371094 Z M 163.652344 249.164062 C 162.234375 249.164062 160.96875 247.898438 160.96875 246.480469 C 160.96875 245.058594 162.234375 243.792969 163.652344 243.792969 C 165.074219 243.792969 166.339844 245.058594 166.339844 246.480469 C 166.339844 247.898438 165.074219 249.164062 163.652344 249.164062 Z M 163.652344 240.953125 C 162.234375 240.953125 160.96875 239.6875 160.96875 238.269531 C 160.96875 236.847656 162.234375 235.585938 163.652344 235.585938 C 165.074219 235.585938 166.339844 236.847656 166.339844 238.269531 C 166.339844 239.6875 165.074219 240.953125 163.652344 240.953125 Z M 163.652344 232.585938 C 162.234375 232.585938 160.96875 231.320312 160.96875 229.898438 C 160.96875 228.480469 162.234375 227.214844 163.652344 227.214844 C 165.074219 227.214844 166.339844 228.480469 166.339844 229.898438 C 166.339844 231.320312 165.074219 232.585938 163.652344 232.585938 Z M 163.652344 225.003906 C 162.234375 225.003906 160.96875 223.742188 160.96875 222.320312 C 160.96875 220.902344 162.234375 219.636719 163.652344 219.636719 C 165.074219 219.636719 166.339844 220.902344 166.339844 222.320312 C 166.339844 223.742188 165.074219 225.003906 163.652344 225.003906 Z M 163.652344 216.953125 C 162.234375 216.953125 160.96875 215.691406 160.96875 214.269531 C 160.96875 212.847656 162.234375 211.585938 163.652344 211.585938 C 165.074219 211.585938 166.339844 212.847656 166.339844 214.269531 C 166.339844 215.691406 165.074219 216.953125 163.652344 216.953125 Z M 163.652344 208.742188 C 162.234375 208.742188 160.96875 207.480469 160.96875 206.058594 C 160.96875 204.636719 162.234375 203.375 163.652344 203.375 C 165.074219 203.375 166.339844 204.636719 166.339844 206.058594 C 166.339844 207.480469 165.074219 208.742188 163.652344 208.742188 Z M 163.652344 200.53125 C 162.234375 200.53125 160.96875 199.269531 160.96875 197.847656 C 160.96875 196.429688 162.234375 195.164062 163.652344 195.164062 C 165.074219 195.164062 166.339844 196.429688 166.339844 197.847656 C 166.339844 199.269531 165.074219 200.53125 163.652344 200.53125 Z M 157.8125 175.746094 C 157.8125 177.164062 156.550781 178.429688 155.128906 178.429688 C 153.707031 178.429688 152.445312 177.164062 152.445312 175.746094 C 152.445312 174.324219 153.707031 173.0625 155.128906 173.0625 C 156.550781 173.0625 157.8125 174.324219 157.8125 175.746094 Z M 161.445312 108.328125 L 154.8125 114.957031 C 154.339844 115.429688 153.707031 115.589844 153.074219 115.589844 C 152.445312 115.589844 151.8125 115.273438 151.339844 114.957031 C 150.390625 114.011719 150.390625 112.589844 151.339844 111.640625 L 157.96875 105.011719 C 158.917969 104.0625 160.339844 104.0625 161.285156 105.011719 C 162.234375 105.957031 162.234375 107.378906 161.285156 108.328125 Z M 148.65625 167.691406 C 150.074219 167.691406 151.339844 168.957031 151.339844 170.375 C 151.339844 171.796875 150.074219 173.0625 148.65625 173.0625 C 147.234375 173.0625 145.96875 171.796875 145.96875 170.375 C 145.96875 168.957031 147.234375 167.691406 148.65625 167.691406 Z M 188.125 103.746094 C 187.652344 104.222656 187.019531 104.378906 186.390625 104.378906 C 185.757812 104.378906 185.125 104.0625 184.652344 103.746094 C 183.707031 102.800781 183.707031 101.378906 184.652344 100.433594 L 191.285156 93.800781 C 192.230469 92.855469 193.652344 92.855469 194.601562 93.800781 C 195.546875 94.75 195.546875 96.167969 194.601562 97.117188 L 187.96875 103.746094 Z M 185.441406 53.699219 L 192.074219 47.066406 C 193.019531 46.117188 194.441406 46.117188 195.390625 47.066406 C 196.335938 48.011719 196.335938 49.433594 195.390625 50.382812 L 188.757812 57.011719 C 188.285156 57.488281 187.652344 57.644531 187.019531 57.644531 C 186.390625 57.644531 185.757812 57.328125 185.285156 57.011719 C 184.335938 56.066406 184.335938 54.644531 185.285156 53.699219 Z M 182.441406 60.171875 C 183.390625 61.117188 183.390625 62.539062 182.441406 63.488281 L 174.707031 71.222656 C 174.230469 71.695312 173.601562 71.855469 172.96875 71.855469 C 172.335938 71.855469 171.707031 71.539062 171.234375 71.222656 C 170.285156 70.277344 170.285156 68.855469 171.234375 67.90625 L 178.96875 60.171875 C 179.917969 59.222656 181.335938 59.222656 182.285156 60.171875 Z M 167.128906 49.117188 L 173.757812 42.488281 C 174.707031 41.539062 176.128906 41.539062 177.074219 42.488281 C 178.023438 43.433594 178.023438 44.855469 177.074219 45.804688 L 170.441406 52.433594 C 169.96875 52.90625 169.335938 53.066406 168.707031 53.066406 C 168.074219 53.066406 167.441406 52.75 166.96875 52.433594 C 166.023438 51.488281 166.023438 50.066406 166.96875 49.117188 Z M 168.074219 74.378906 C 169.023438 75.328125 169.023438 76.75 168.074219 77.695312 L 161.445312 84.328125 C 160.96875 84.800781 160.339844 84.960938 159.707031 84.960938 C 159.074219 84.960938 158.445312 84.644531 157.96875 84.328125 C 157.023438 83.378906 157.023438 81.960938 157.96875 81.011719 L 164.601562 74.378906 C 165.546875 73.433594 166.96875 73.433594 167.917969 74.378906 Z M 152.757812 63.328125 L 160.496094 55.59375 C 161.445312 54.644531 162.863281 54.644531 163.8125 55.59375 C 164.757812 56.539062 164.757812 57.960938 163.8125 58.90625 L 156.074219 66.644531 C 155.601562 67.117188 154.96875 67.277344 154.339844 67.277344 C 153.707031 67.277344 153.074219 66.960938 152.601562 66.644531 C 151.65625 65.695312 151.65625 64.277344 152.601562 63.328125 Z M 154.96875 87.644531 C 155.917969 88.589844 155.917969 90.011719 154.96875 90.957031 L 148.339844 97.589844 C 147.863281 98.0625 147.234375 98.222656 146.601562 98.222656 C 145.96875 98.222656 145.339844 97.90625 144.863281 97.589844 C 143.917969 96.644531 143.917969 95.222656 144.863281 94.273438 L 151.496094 87.644531 C 152.445312 86.695312 153.863281 86.695312 154.8125 87.644531 Z M 139.65625 76.589844 L 146.285156 69.960938 C 147.234375 69.011719 148.65625 69.011719 149.601562 69.960938 C 150.550781 70.90625 150.550781 72.328125 149.601562 73.277344 L 142.96875 79.90625 C 142.496094 80.378906 141.867188 80.539062 141.234375 80.539062 C 140.601562 80.539062 139.96875 80.222656 139.496094 79.90625 C 138.550781 78.960938 138.550781 77.539062 139.496094 76.589844 Z M 141.867188 100.746094 C 142.8125 101.695312 142.8125 103.117188 141.867188 104.0625 L 134.128906 111.800781 C 133.65625 112.273438 133.023438 112.433594 132.390625 112.433594 C 131.761719 112.433594 131.128906 112.117188 130.65625 111.800781 C 129.707031 110.851562 129.707031 109.433594 130.65625 108.484375 L 138.390625 100.746094 C 139.339844 99.800781 140.761719 99.800781 141.707031 100.746094 Z M 134.128906 135.800781 L 127.496094 142.429688 C 127.023438 142.902344 126.390625 143.0625 125.761719 143.0625 C 125.128906 143.0625 124.496094 142.902344 124.023438 142.429688 C 123.078125 141.484375 123.078125 140.0625 124.023438 139.113281 L 130.65625 132.484375 C 131.601562 131.535156 133.023438 131.535156 133.972656 132.484375 C 134.917969 133.429688 134.917969 134.851562 133.972656 135.800781 Z M 126.390625 89.695312 L 133.023438 83.066406 C 133.972656 82.117188 135.390625 82.117188 136.339844 83.066406 C 137.285156 84.011719 137.285156 85.433594 136.339844 86.378906 L 129.707031 93.011719 C 129.234375 93.484375 128.601562 93.644531 127.972656 93.644531 C 127.339844 93.644531 126.707031 93.328125 126.234375 93.011719 C 125.285156 92.0625 125.285156 90.644531 126.234375 89.695312 Z M 127.65625 114.957031 C 128.601562 115.90625 128.601562 117.328125 127.65625 118.273438 L 121.023438 124.90625 C 120.550781 125.378906 119.917969 125.535156 119.289062 125.535156 C 118.65625 125.535156 118.023438 125.21875 117.550781 124.90625 C 116.601562 123.957031 116.601562 122.535156 117.550781 121.589844 L 124.183594 114.957031 C 125.128906 114.011719 126.550781 114.011719 127.496094 114.957031 Z M 112.183594 103.90625 L 119.917969 96.167969 C 120.867188 95.222656 122.289062 95.222656 123.234375 96.167969 C 124.183594 97.117188 124.183594 98.539062 123.234375 99.484375 L 115.496094 107.222656 C 115.023438 107.695312 114.394531 107.851562 113.761719 107.851562 C 113.128906 107.851562 112.5 107.539062 112.023438 107.222656 C 111.078125 106.273438 111.078125 104.851562 112.023438 103.90625 Z M 99.078125 117.167969 L 105.707031 110.535156 C 106.65625 109.589844 108.078125 109.589844 109.023438 110.535156 C 109.972656 111.484375 109.972656 112.90625 109.023438 113.851562 L 102.394531 120.484375 C 101.917969 120.957031 101.289062 121.117188 100.65625 121.117188 C 100.023438 121.117188 99.394531 120.800781 98.917969 120.484375 C 97.972656 119.535156 97.972656 118.117188 98.917969 117.167969 Z M 117.234375 273.160156 L 117.234375 309.632812 L 69.550781 309.632812 C 49.027344 289.582031 33.554688 264.160156 25.5 235.898438 L 51.078125 235.898438 L 51.078125 188.691406 L 19.027344 188.691406 C 19.027344 166.746094 23.449219 145.746094 31.1875 126.324219 L 117.234375 201.796875 Z M 34.34375 119.222656 C 38.289062 110.851562 42.710938 102.644531 47.921875 95.0625 L 151.339844 185.058594 L 133.496094 205.585938 C 133.496094 205.585938 34.34375 119.222656 34.34375 119.222656 Z M 196.179688 309.476562 L 133.496094 309.476562 L 133.496094 221.53125 C 133.496094 220.269531 134.601562 219.164062 135.867188 219.164062 C 137.128906 219.164062 138.234375 220.269531 138.234375 221.53125 L 138.234375 304.738281 L 191.441406 304.738281 L 191.441406 221.53125 C 191.441406 220.269531 192.546875 219.164062 193.808594 219.164062 C 195.074219 219.164062 196.179688 220.269531 196.179688 221.53125 Z M 209.125 82.90625 L 201.390625 90.644531 C 200.914062 91.117188 200.285156 91.273438 199.652344 91.273438 C 199.019531 91.273438 198.390625 90.957031 197.914062 90.644531 C 196.96875 89.695312 196.96875 88.273438 197.914062 87.328125 L 205.652344 79.589844 C 206.597656 78.644531 208.019531 78.644531 208.96875 79.589844 C 209.914062 80.539062 209.914062 81.960938 208.96875 82.90625 Z M 212.285156 72.960938 L 218.914062 66.328125 C 219.863281 65.382812 221.28125 65.382812 222.230469 66.328125 C 223.175781 67.277344 223.175781 68.695312 222.230469 69.644531 L 215.597656 76.273438 C 215.125 76.75 214.492188 76.90625 213.863281 76.90625 C 213.230469 76.90625 212.597656 76.589844 212.125 76.273438 C 211.179688 75.328125 211.179688 73.90625 212.125 72.960938 Z M 213.230469 284.84375 C 218.441406 284.84375 220.96875 287.6875 223.335938 290.054688 C 225.546875 292.265625 227.28125 294.160156 231.070312 294.160156 C 234.859375 294.160156 236.597656 292.265625 238.808594 290.054688 C 241.175781 287.6875 243.703125 284.84375 248.914062 284.84375 C 254.125 284.84375 256.648438 287.6875 259.019531 290.054688 C 261.226562 292.265625 262.964844 294.160156 266.753906 294.160156 C 270.542969 294.160156 272.28125 292.265625 274.492188 290.054688 C 276.859375 287.6875 279.386719 284.84375 284.597656 284.84375 C 289.804688 284.84375 292.332031 287.6875 294.699219 290.054688 C 296.910156 292.265625 298.648438 294.160156 302.4375 294.160156 C 306.226562 294.160156 304.015625 294.949219 304.015625 295.738281 C 304.015625 296.527344 303.226562 297.320312 302.4375 297.320312 C 297.226562 297.320312 294.699219 294.476562 292.332031 292.109375 C 290.121094 289.898438 288.386719 288.003906 284.597656 288.003906 C 280.804688 288.003906 279.070312 289.898438 276.859375 292.109375 C 274.492188 294.476562 271.964844 297.320312 266.753906 297.320312 C 261.542969 297.320312 259.019531 294.476562 256.648438 292.109375 C 254.4375 289.898438 252.703125 288.003906 248.914062 288.003906 C 245.125 288.003906 243.386719 289.898438 241.175781 292.109375 C 238.808594 294.476562 236.28125 297.320312 231.070312 297.320312 C 225.863281 297.320312 223.335938 294.476562 220.96875 292.109375 C 218.757812 289.898438 217.019531 288.003906 213.230469 288.003906 C 209.441406 288.003906 211.652344 287.214844 211.652344 286.425781 C 211.652344 285.632812 212.441406 284.84375 213.230469 284.84375 Z M 302.59375 309.632812 C 297.386719 309.632812 294.859375 306.792969 292.492188 304.421875 C 290.28125 302.214844 288.542969 300.316406 284.753906 300.316406 C 280.964844 300.316406 279.226562 302.214844 277.015625 304.421875 C 274.648438 306.792969 272.121094 309.632812 266.914062 309.632812 C 261.703125 309.632812 259.175781 306.792969 256.808594 304.421875 C 254.597656 302.214844 252.859375 300.316406 249.070312 300.316406 C 245.28125 300.316406 243.546875 302.214844 241.335938 304.421875 C 238.964844 306.792969 236.441406 309.632812 231.230469 309.632812 C 226.019531 309.632812 223.492188 306.792969 221.125 304.421875 C 218.914062 302.214844 217.179688 300.316406 213.386719 300.316406 C 209.597656 300.316406 211.808594 299.527344 211.808594 298.738281 C 211.808594 297.949219 212.597656 297.160156 213.386719 297.160156 C 218.597656 297.160156 221.125 300.003906 223.492188 302.371094 C 225.703125 304.582031 227.441406 306.476562 231.230469 306.476562 C 235.019531 306.476562 236.757812 304.582031 238.964844 302.371094 C 241.335938 300.003906 243.859375 297.160156 249.070312 297.160156 C 254.28125 297.160156 256.808594 300.003906 259.175781 302.371094 C 261.386719 304.582031 263.125 306.476562 266.914062 306.476562 C 270.703125 306.476562 272.4375 304.582031 274.648438 302.371094 C 277.015625 300.003906 279.542969 297.160156 284.753906 297.160156 C 289.964844 297.160156 292.492188 300.003906 294.859375 302.371094 C 297.070312 304.582031 298.804688 306.476562 302.59375 306.476562 C 306.382812 306.476562 304.175781 307.265625 304.175781 308.054688 C 304.175781 308.84375 303.382812 309.632812 302.59375 309.632812 Z M 302.59375 309.632812 " fill-opacity="1" fill-rule="nonzero"/></svg>