<svg xmlns="http://www.w3.org/2000/svg" xmlns:xlink="http://www.w3.org/1999/xlink" width="500" zoomAndPan="magnify" viewBox="0 0 375 374.999991" height="500" preserveAspectRatio="xMidYMid meet" version="1.0"><metadata><ContainsAiGeneratedContent>Yes</ContainsAiGeneratedContent></metadata><defs><clipPath id="5655263f52"><path d="M 12.535156 15.148438 L 362.464844 15.148438 L 362.464844 365.082031 L 12.535156 365.082031 Z M 12.535156 15.148438 " clip-rule="nonzero"/></clipPath><clipPath id="2d7a76da9d"><path d="M 187.5 15.148438 C 90.867188 15.148438 12.535156 93.484375 12.535156 190.117188 C 12.535156 286.746094 90.867188 365.082031 187.5 365.082031 C 284.132812 365.082031 362.464844 286.746094 362.464844 190.117188 C 362.464844 93.484375 284.132812 15.148438 187.5 15.148438 Z M 187.5 15.148438 " clip-rule="nonzero"/></clipPath><clipPath id="ca63a6b22b"><path d="M 80.699219 37.5 L 294.449219 37.5 L 294.449219 198 L 80.699219 198 Z M 80.699219 37.5 " clip-rule="nonzero"/></clipPath><clipPath id="000aa29833"><path d="M 160 207.804688 L 222 207.804688 L 222 270 L 160 270 Z M 160 207.804688 " clip-rule="nonzero"/></clipPath></defs><g clip-path="url(#5655263f52)"><g clip-path="url(#2d7a76da9d)"><path fill="#cdc9e0" d="M 12.535156 15.148438 L 362.464844 15.148438 L 362.464844 365.082031 L 12.535156 365.082031 Z M 12.535156 15.148438 " fill-opacity="1" fill-rule="nonzero"/></g></g><g clip-path="url(#ca63a6b22b)"><path fill="#26216a" d="M 283.605469 186.761719 L 283.605469 93.273438 C 283.605469 87.949219 279.253906 83.597656 273.929688 83.597656 L 242.277344 83.597656 L 242.277344 186.761719 L 238.039062 186.761719 L 238.039062 47.097656 C 238.039062 41.777344 233.679688 37.417969 228.367188 37.417969 L 146.625 37.417969 C 141.3125 37.417969 136.953125 41.777344 136.953125 47.097656 L 136.953125 186.769531 L 132.714844 186.769531 L 132.714844 83.597656 L 101.0625 83.597656 C 95.738281 83.597656 91.386719 87.949219 91.386719 93.273438 L 91.386719 186.761719 L 80.699219 186.761719 L 80.699219 197.773438 L 294.292969 197.773438 L 294.292969 186.761719 Z M 255.03125 111.097656 C 255.03125 110.253906 255.71875 109.566406 256.5625 109.566406 L 269.328125 109.566406 C 270.171875 109.566406 270.859375 110.253906 270.859375 111.097656 L 270.859375 131.621094 C 270.859375 132.460938 270.171875 133.148438 269.328125 133.148438 L 256.5625 133.148438 C 255.71875 133.148438 255.03125 132.460938 255.03125 131.621094 Z M 255.03125 150.335938 C 255.03125 149.496094 255.71875 148.808594 256.5625 148.808594 L 269.328125 148.808594 C 270.171875 148.808594 270.859375 149.496094 270.859375 150.335938 L 270.859375 170.863281 C 270.859375 171.703125 270.171875 172.382812 269.328125 172.382812 L 256.5625 172.382812 C 255.71875 172.382812 255.03125 171.703125 255.03125 170.863281 Z M 104.136719 111.097656 C 104.136719 110.253906 104.824219 109.566406 105.664062 109.566406 L 118.433594 109.566406 C 119.273438 109.566406 119.960938 110.253906 119.960938 111.097656 L 119.960938 131.621094 C 119.960938 132.460938 119.273438 133.148438 118.433594 133.148438 L 105.664062 133.148438 C 104.824219 133.148438 104.136719 132.460938 104.136719 131.621094 Z M 104.136719 150.335938 C 104.136719 149.496094 104.824219 148.808594 105.664062 148.808594 L 118.433594 148.808594 C 119.273438 148.808594 119.960938 149.496094 119.960938 150.335938 L 119.960938 170.863281 C 119.960938 171.703125 119.273438 172.382812 118.433594 172.382812 L 105.664062 172.382812 C 104.824219 172.382812 104.136719 171.703125 104.136719 170.863281 Z M 166.925781 170.863281 C 166.925781 171.703125 166.238281 172.382812 165.394531 172.382812 L 152.628906 172.382812 C 151.785156 172.382812 151.097656 171.703125 151.097656 170.863281 L 151.097656 150.335938 C 151.097656 149.496094 151.785156 148.808594 152.628906 148.808594 L 165.394531 148.808594 C 166.238281 148.808594 166.925781 149.496094 166.925781 150.335938 Z M 166.925781 131.621094 C 166.925781 132.460938 166.238281 133.148438 165.394531 133.148438 L 152.628906 133.148438 C 151.785156 133.148438 151.097656 132.460938 151.097656 131.621094 L 151.097656 111.097656 C 151.097656 110.253906 151.785156 109.566406 152.628906 109.566406 L 165.394531 109.566406 C 166.238281 109.566406 166.925781 110.253906 166.925781 111.097656 Z M 197.921875 186.761719 L 177.070312 186.761719 L 177.070312 150.824219 C 177.070312 149.710938 177.972656 148.808594 179.085938 148.808594 L 195.90625 148.808594 C 197.019531 148.808594 197.921875 149.710938 197.921875 150.824219 Z M 179.582031 131.621094 L 179.582031 111.097656 C 179.582031 110.253906 180.269531 109.566406 181.109375 109.566406 L 193.882812 109.566406 C 194.726562 109.566406 195.414062 110.253906 195.414062 111.097656 L 195.414062 131.621094 C 195.414062 132.460938 194.726562 133.148438 193.882812 133.148438 L 181.109375 133.148438 C 180.269531 133.148438 179.582031 132.460938 179.582031 131.621094 Z M 198.871094 80.152344 C 197.355469 80.152344 196.128906 81.386719 196.128906 82.886719 L 196.128906 91.574219 C 196.128906 93.082031 194.890625 94.316406 193.382812 94.316406 L 181.609375 94.316406 C 180.101562 94.316406 178.867188 93.082031 178.867188 91.574219 L 178.867188 82.886719 C 178.867188 81.386719 177.636719 80.152344 176.121094 80.152344 L 167.285156 80.152344 C 165.769531 80.152344 164.542969 78.917969 164.542969 77.410156 L 164.542969 66.300781 C 164.542969 64.792969 165.769531 63.566406 167.285156 63.566406 L 176.121094 63.566406 C 177.636719 63.566406 178.867188 62.324219 178.867188 60.820312 L 178.867188 52.226562 C 178.867188 50.714844 180.101562 49.480469 181.609375 49.480469 L 193.382812 49.480469 C 194.890625 49.480469 196.128906 50.714844 196.128906 52.226562 L 196.128906 60.820312 C 196.128906 62.332031 197.355469 63.566406 198.871094 63.566406 L 207.707031 63.566406 C 209.222656 63.566406 210.449219 64.792969 210.449219 66.300781 L 210.449219 77.410156 C 210.449219 78.917969 209.222656 80.152344 207.707031 80.152344 Z M 223.894531 170.863281 C 223.894531 171.703125 223.207031 172.382812 222.367188 172.382812 L 209.597656 172.382812 C 208.753906 172.382812 208.066406 171.703125 208.066406 170.863281 L 208.066406 150.335938 C 208.066406 149.496094 208.753906 148.808594 209.597656 148.808594 L 222.367188 148.808594 C 223.207031 148.808594 223.894531 149.496094 223.894531 150.335938 Z M 223.894531 131.621094 C 223.894531 132.460938 223.207031 133.148438 222.367188 133.148438 L 209.597656 133.148438 C 208.753906 133.148438 208.066406 132.460938 208.066406 131.621094 L 208.066406 111.097656 C 208.066406 110.253906 208.753906 109.566406 209.597656 109.566406 L 222.367188 109.566406 C 223.207031 109.566406 223.894531 110.253906 223.894531 111.097656 Z M 223.894531 131.621094 " fill-opacity="1" fill-rule="nonzero"/></g><path fill="#26216a" d="M 252.621094 341.132812 C 252.398438 339.269531 252.289062 337.378906 252.289062 335.488281 C 252.261719 327.207031 254.457031 307.933594 240.691406 300.117188 C 236.304688 297.625 231.972656 295.046875 227.585938 292.550781 L 221.800781 289.261719 C 221.28125 288.960938 220.761719 288.628906 220.265625 288.300781 C 221.007812 292.933594 221.253906 298.664062 219.71875 304.285156 C 222.871094 306.289062 224.902344 309.90625 224.652344 313.992188 C 224.324219 319.308594 219.992188 323.640625 214.675781 323.972656 C 208.449219 324.355469 203.296875 319.421875 203.296875 313.304688 C 203.296875 307.382812 208.09375 302.613281 213.988281 302.613281 C 214.480469 302.613281 214.949219 302.667969 215.414062 302.722656 C 217.058594 296.363281 216.074219 289.644531 214.976562 285.230469 L 214.921875 285.203125 C 200.171875 276.621094 181.964844 276.621094 167.214844 285.203125 C 166.722656 286.984375 166.335938 289.234375 166.476562 291.785156 C 170.203125 292.605469 173.21875 295.566406 173.988281 299.433594 L 179.085938 324.875 C 179.582031 327.289062 179.222656 329.8125 177.988281 331.921875 C 176.675781 334.171875 174.589844 335.734375 172.230469 336.417969 C 171.546875 337.542969 170.257812 338.253906 168.804688 338.089844 C 167.160156 337.925781 165.816406 336.582031 165.652344 334.9375 C 165.40625 332.773438 167.105469 330.933594 169.214844 330.933594 C 170.121094 330.933594 170.917969 331.265625 171.546875 331.8125 C 172.753906 331.292969 173.796875 330.359375 174.34375 329.015625 C 174.753906 328.027344 174.835938 326.90625 174.617188 325.835938 L 169.519531 300.335938 C 169.023438 297.898438 166.886719 296.144531 164.390625 296.144531 C 161.894531 296.144531 159.757812 297.898438 159.265625 300.335938 L 154.082031 325.917969 C 153.78125 327.453125 154.164062 329.042969 155.152344 330.25 C 155.699219 330.90625 156.414062 331.429688 157.179688 331.757812 C 157.921875 331.128906 158.878906 330.769531 159.949219 330.90625 C 161.566406 331.128906 162.882812 332.441406 163.074219 334.089844 C 163.292969 336.226562 161.621094 338.0625 159.511719 338.0625 C 158.222656 338.0625 157.125 337.378906 156.46875 336.363281 C 154.574219 335.816406 152.875 334.71875 151.585938 333.15625 C 149.722656 330.878906 148.984375 327.890625 149.558594 325.011719 L 154.683594 299.378906 C 155.425781 295.648438 158.277344 292.742188 161.839844 291.8125 C 161.785156 290.523438 161.8125 289.316406 161.921875 288.191406 C 161.375 288.574219 160.800781 288.933594 160.222656 289.261719 L 154.4375 292.550781 C 150.050781 295.046875 145.71875 297.625 141.332031 300.117188 C 127.570312 307.960938 129.789062 327.207031 129.734375 335.488281 C 129.734375 337.378906 129.625 339.269531 129.40625 341.132812 C 129.1875 343.136719 130.777344 344.890625 132.777344 344.890625 L 249.246094 344.890625 C 251.277344 344.890625 252.867188 343.136719 252.621094 341.132812 Z M 252.621094 341.132812 " fill-opacity="1" fill-rule="evenodd"/><g clip-path="url(#000aa29833)"><path fill="#26216a" d="M 221.800781 238.566406 C 221.800781 239.574219 221.753906 240.578125 221.65625 241.582031 C 221.554688 242.585938 221.40625 243.578125 221.210938 244.566406 C 221.015625 245.554688 220.769531 246.53125 220.476562 247.496094 C 220.1875 248.460938 219.847656 249.40625 219.460938 250.339844 C 219.074219 251.269531 218.644531 252.179688 218.171875 253.066406 C 217.695312 253.957031 217.179688 254.820312 216.617188 255.65625 C 216.058594 256.496094 215.460938 257.304688 214.820312 258.082031 C 214.179688 258.859375 213.503906 259.605469 212.792969 260.320312 C 212.082031 261.03125 211.335938 261.707031 210.554688 262.347656 C 209.777344 262.984375 208.96875 263.585938 208.132812 264.144531 C 207.292969 264.703125 206.429688 265.222656 205.542969 265.695312 C 204.652344 266.171875 203.742188 266.601562 202.8125 266.988281 C 201.882812 267.371094 200.933594 267.710938 199.96875 268.003906 C 199.007812 268.296875 198.03125 268.542969 197.042969 268.738281 C 196.054688 268.933594 195.058594 269.082031 194.054688 269.179688 C 193.054688 269.28125 192.046875 269.328125 191.039062 269.328125 C 190.03125 269.328125 189.027344 269.28125 188.023438 269.179688 C 187.023438 269.082031 186.027344 268.933594 185.039062 268.738281 C 184.050781 268.542969 183.074219 268.296875 182.109375 268.003906 C 181.148438 267.710938 180.199219 267.371094 179.269531 266.988281 C 178.335938 266.601562 177.429688 266.171875 176.539062 265.695312 C 175.652344 265.222656 174.789062 264.703125 173.949219 264.144531 C 173.113281 263.585938 172.304688 262.984375 171.523438 262.347656 C 170.746094 261.707031 170 261.03125 169.289062 260.320312 C 168.574219 259.605469 167.898438 258.859375 167.261719 258.082031 C 166.621094 257.304688 166.023438 256.496094 165.460938 255.65625 C 164.902344 254.820312 164.386719 253.957031 163.910156 253.066406 C 163.4375 252.179688 163.003906 251.269531 162.621094 250.339844 C 162.234375 249.40625 161.894531 248.460938 161.601562 247.496094 C 161.3125 246.53125 161.066406 245.554688 160.871094 244.566406 C 160.671875 243.578125 160.523438 242.585938 160.425781 241.582031 C 160.328125 240.578125 160.277344 239.574219 160.277344 238.566406 C 160.277344 237.558594 160.328125 236.554688 160.425781 235.550781 C 160.523438 234.550781 160.671875 233.554688 160.871094 232.566406 C 161.066406 231.578125 161.3125 230.601562 161.601562 229.636719 C 161.894531 228.671875 162.234375 227.726562 162.621094 226.792969 C 163.003906 225.863281 163.4375 224.953125 163.910156 224.066406 C 164.386719 223.175781 164.902344 222.3125 165.460938 221.476562 C 166.023438 220.636719 166.621094 219.832031 167.261719 219.050781 C 167.898438 218.273438 168.574219 217.527344 169.289062 216.816406 C 170 216.101562 170.746094 215.425781 171.523438 214.789062 C 172.304688 214.148438 173.113281 213.546875 173.949219 212.988281 C 174.789062 212.429688 175.652344 211.910156 176.539062 211.4375 C 177.429688 210.960938 178.335938 210.53125 179.269531 210.144531 C 180.199219 209.761719 181.148438 209.421875 182.109375 209.128906 C 183.074219 208.835938 184.050781 208.59375 185.039062 208.394531 C 186.027344 208.199219 187.023438 208.050781 188.023438 207.953125 C 189.027344 207.855469 190.03125 207.804688 191.039062 207.804688 C 192.046875 207.804688 193.054688 207.855469 194.054688 207.953125 C 195.058594 208.050781 196.054688 208.199219 197.042969 208.394531 C 198.03125 208.59375 199.007812 208.835938 199.96875 209.128906 C 200.933594 209.421875 201.882812 209.761719 202.8125 210.144531 C 203.742188 210.53125 204.652344 210.960938 205.542969 211.4375 C 206.429688 211.910156 207.292969 212.429688 208.132812 212.988281 C 208.96875 213.546875 209.777344 214.148438 210.554688 214.789062 C 211.335938 215.425781 212.082031 216.101562 212.792969 216.816406 C 213.503906 217.527344 214.179688 218.273438 214.820312 219.050781 C 215.460938 219.832031 216.058594 220.636719 216.617188 221.476562 C 217.179688 222.3125 217.695312 223.175781 218.171875 224.066406 C 218.644531 224.953125 219.074219 225.863281 219.460938 226.792969 C 219.847656 227.726562 220.1875 228.671875 220.476562 229.636719 C 220.769531 230.601562 221.015625 231.578125 221.210938 232.566406 C 221.40625 233.554688 221.554688 234.550781 221.65625 235.550781 C 221.753906 236.554688 221.800781 237.558594 221.800781 238.566406 Z M 221.800781 238.566406 " fill-opacity="1" fill-rule="nonzero"/></g></svg>