<svg xmlns="http://www.w3.org/2000/svg" xmlns:xlink="http://www.w3.org/1999/xlink" width="500" zoomAndPan="magnify" viewBox="0 0 375 374.999991" height="500" preserveAspectRatio="xMidYMid meet" version="1.0"><metadata><ContainsAiGeneratedContent>Yes</ContainsAiGeneratedContent></metadata><defs><clipPath id="13286404ed"><path d="M 12.535156 15.148438 L 362.464844 15.148438 L 362.464844 365.082031 L 12.535156 365.082031 Z M 12.535156 15.148438 " clip-rule="nonzero"/></clipPath><clipPath id="f75afe2c96"><path d="M 187.5 15.148438 C 90.867188 15.148438 12.535156 93.484375 12.535156 190.117188 C 12.535156 286.746094 90.867188 365.082031 187.5 365.082031 C 284.132812 365.082031 362.464844 286.746094 362.464844 190.117188 C 362.464844 93.484375 284.132812 15.148438 187.5 15.148438 Z M 187.5 15.148438 " clip-rule="nonzero"/></clipPath><clipPath id="3c834965d8"><path d="M 49.070312 95.226562 L 325.820312 95.226562 L 325.820312 284.976562 L 49.070312 284.976562 Z M 49.070312 95.226562 " clip-rule="nonzero"/></clipPath></defs><rect x="-37.5" width="450" fill="#ffffff" y="-37.499999" height="449.999989" fill-opacity="1"/><rect x="-37.5" width="450" fill="#ffffff" y="-37.499999" height="449.999989" fill-opacity="1"/><g clip-path="url(#13286404ed)"><g clip-path="url(#f75afe2c96)"><path fill="#cdc9e0" d="M 12.535156 15.148438 L 362.464844 15.148438 L 362.464844 365.082031 L 12.535156 365.082031 Z M 12.535156 15.148438 " fill-opacity="1" fill-rule="nonzero"/></g></g><path fill="#26216a" d="M 214.605469 203.667969 C 214.605469 204.558594 214.5625 205.441406 214.476562 206.328125 C 214.390625 207.210938 214.257812 208.085938 214.085938 208.957031 C 213.914062 209.828125 213.699219 210.691406 213.441406 211.539062 C 213.183594 212.390625 212.882812 213.222656 212.542969 214.042969 C 212.203125 214.863281 211.824219 215.667969 211.40625 216.449219 C 210.988281 217.234375 210.53125 217.992188 210.039062 218.730469 C 209.546875 219.46875 209.015625 220.183594 208.453125 220.867188 C 207.890625 221.554688 207.292969 222.210938 206.667969 222.839844 C 206.039062 223.46875 205.382812 224.0625 204.695312 224.625 C 204.007812 225.191406 203.296875 225.71875 202.558594 226.210938 C 201.820312 226.703125 201.058594 227.160156 200.277344 227.578125 C 199.492188 227.996094 198.691406 228.375 197.871094 228.714844 C 197.050781 229.054688 196.214844 229.355469 195.367188 229.613281 C 194.515625 229.871094 193.65625 230.085938 192.785156 230.257812 C 191.914062 230.433594 191.039062 230.5625 190.152344 230.648438 C 189.269531 230.738281 188.382812 230.78125 187.496094 230.78125 C 186.609375 230.78125 185.722656 230.738281 184.839844 230.648438 C 183.957031 230.5625 183.078125 230.433594 182.207031 230.257812 C 181.335938 230.085938 180.476562 229.871094 179.628906 229.613281 C 178.777344 229.355469 177.941406 229.054688 177.121094 228.714844 C 176.300781 228.375 175.5 227.996094 174.71875 227.578125 C 173.933594 227.160156 173.171875 226.703125 172.433594 226.210938 C 171.695312 225.71875 170.984375 225.191406 170.296875 224.625 C 169.613281 224.0625 168.953125 223.46875 168.328125 222.839844 C 167.699219 222.210938 167.101562 221.554688 166.539062 220.867188 C 165.976562 220.183594 165.449219 219.46875 164.957031 218.730469 C 164.460938 217.992188 164.007812 217.234375 163.585938 216.449219 C 163.167969 215.667969 162.789062 214.863281 162.449219 214.042969 C 162.109375 213.222656 161.8125 212.390625 161.554688 211.539062 C 161.296875 210.691406 161.082031 209.828125 160.90625 208.957031 C 160.734375 208.085938 160.605469 207.210938 160.515625 206.328125 C 160.429688 205.441406 160.386719 204.558594 160.386719 203.667969 C 160.386719 202.78125 160.429688 201.894531 160.515625 201.011719 C 160.605469 200.128906 160.734375 199.25 160.90625 198.378906 C 161.082031 197.511719 161.296875 196.648438 161.554688 195.800781 C 161.8125 194.949219 162.109375 194.113281 162.449219 193.292969 C 162.789062 192.472656 163.167969 191.671875 163.585938 190.890625 C 164.007812 190.105469 164.460938 189.347656 164.957031 188.609375 C 165.449219 187.871094 165.976562 187.15625 166.539062 186.472656 C 167.101562 185.785156 167.699219 185.128906 168.328125 184.5 C 168.953125 183.871094 169.613281 183.277344 170.296875 182.714844 C 170.984375 182.148438 171.695312 181.621094 172.433594 181.128906 C 173.171875 180.636719 173.933594 180.179688 174.71875 179.761719 C 175.5 179.339844 176.300781 178.960938 177.121094 178.621094 C 177.941406 178.28125 178.777344 177.984375 179.628906 177.726562 C 180.476562 177.46875 181.335938 177.253906 182.207031 177.078125 C 183.078125 176.90625 183.957031 176.777344 184.839844 176.691406 C 185.722656 176.601562 186.609375 176.558594 187.496094 176.558594 C 188.382812 176.558594 189.269531 176.601562 190.152344 176.691406 C 191.039062 176.777344 191.914062 176.90625 192.785156 177.078125 C 193.65625 177.253906 194.515625 177.46875 195.367188 177.726562 C 196.214844 177.984375 197.050781 178.28125 197.871094 178.621094 C 198.691406 178.960938 199.492188 179.339844 200.277344 179.761719 C 201.058594 180.179688 201.820312 180.636719 202.558594 181.128906 C 203.296875 181.621094 204.007812 182.148438 204.695312 182.714844 C 205.382812 183.277344 206.039062 183.871094 206.667969 184.5 C 207.292969 185.128906 207.890625 185.785156 208.453125 186.472656 C 209.015625 187.15625 209.546875 187.871094 210.039062 188.609375 C 210.53125 189.347656 210.988281 190.105469 211.40625 190.890625 C 211.824219 191.671875 212.203125 192.472656 212.542969 193.292969 C 212.882812 194.113281 213.183594 194.949219 213.441406 195.800781 C 213.699219 196.648438 213.914062 197.511719 214.085938 198.378906 C 214.257812 199.25 214.390625 200.128906 214.476562 201.011719 C 214.5625 201.894531 214.605469 202.78125 214.605469 203.667969 Z M 214.605469 203.667969 " fill-opacity="1" fill-rule="nonzero"/><path fill="#26216a" d="M 187.496094 154.871094 C 160.589844 154.871094 138.699219 176.761719 138.699219 203.667969 C 138.699219 230.578125 160.589844 252.46875 187.496094 252.46875 C 214.40625 252.46875 236.296875 230.578125 236.296875 203.667969 C 236.296875 176.761719 214.40625 154.871094 187.496094 154.871094 Z M 187.496094 241.625 C 166.570312 241.625 149.542969 224.597656 149.542969 203.667969 C 149.542969 182.742188 166.570312 165.714844 187.496094 165.714844 C 208.425781 165.714844 225.453125 182.742188 225.453125 203.667969 C 225.453125 224.597656 208.425781 241.625 187.496094 241.625 Z M 187.496094 241.625 " fill-opacity="1" fill-rule="nonzero"/><path fill="#26216a" d="M 92.609375 171.136719 C 92.609375 171.492188 92.574219 171.84375 92.507812 172.195312 C 92.4375 172.542969 92.332031 172.882812 92.199219 173.210938 C 92.0625 173.539062 91.894531 173.851562 91.695312 174.148438 C 91.5 174.445312 91.273438 174.71875 91.023438 174.972656 C 90.769531 175.222656 90.496094 175.449219 90.199219 175.644531 C 89.90625 175.84375 89.59375 176.011719 89.261719 176.144531 C 88.933594 176.28125 88.59375 176.386719 88.246094 176.453125 C 87.898438 176.523438 87.542969 176.558594 87.1875 176.558594 C 86.832031 176.558594 86.480469 176.523438 86.128906 176.453125 C 85.78125 176.386719 85.441406 176.28125 85.113281 176.144531 C 84.785156 176.011719 84.472656 175.84375 84.175781 175.644531 C 83.878906 175.449219 83.605469 175.222656 83.355469 174.972656 C 83.101562 174.71875 82.878906 174.445312 82.679688 174.148438 C 82.480469 173.851562 82.316406 173.539062 82.179688 173.210938 C 82.042969 172.882812 81.941406 172.542969 81.871094 172.195312 C 81.800781 171.84375 81.765625 171.492188 81.765625 171.136719 C 81.765625 170.78125 81.800781 170.429688 81.871094 170.078125 C 81.941406 169.730469 82.042969 169.390625 82.179688 169.0625 C 82.316406 168.734375 82.480469 168.421875 82.679688 168.125 C 82.878906 167.828125 83.101562 167.554688 83.355469 167.304688 C 83.605469 167.050781 83.878906 166.828125 84.175781 166.628906 C 84.472656 166.429688 84.785156 166.265625 85.113281 166.128906 C 85.441406 165.992188 85.78125 165.886719 86.128906 165.820312 C 86.480469 165.75 86.832031 165.714844 87.1875 165.714844 C 87.542969 165.714844 87.898438 165.75 88.246094 165.820312 C 88.59375 165.886719 88.933594 165.992188 89.261719 166.128906 C 89.59375 166.265625 89.90625 166.429688 90.199219 166.628906 C 90.496094 166.828125 90.769531 167.050781 91.023438 167.304688 C 91.273438 167.554688 91.5 167.828125 91.695312 168.125 C 91.894531 168.421875 92.0625 168.734375 92.199219 169.0625 C 92.332031 169.390625 92.4375 169.730469 92.507812 170.078125 C 92.574219 170.429688 92.609375 170.78125 92.609375 171.136719 Z M 92.609375 171.136719 " fill-opacity="1" fill-rule="nonzero"/><g clip-path="url(#3c834965d8)"><path fill="#26216a" d="M 304.070312 133.183594 L 258.820312 133.183594 C 254.882812 133.183594 251.253906 131.046875 249.339844 127.605469 L 237.550781 106.382812 C 233.726562 99.503906 226.460938 95.226562 218.589844 95.226562 L 156.402344 95.226562 C 148.53125 95.226562 141.265625 99.503906 137.441406 106.382812 L 125.652344 127.605469 C 123.742188 131.046875 120.109375 133.183594 116.171875 133.183594 L 108.875 133.183594 L 108.875 116.917969 C 108.875 113.921875 106.449219 111.492188 103.453125 111.492188 L 70.921875 111.492188 C 67.925781 111.492188 65.5 113.921875 65.5 116.917969 L 65.5 133.867188 C 56.15625 136.28125 49.234375 144.785156 49.234375 154.871094 L 49.234375 263.3125 C 49.234375 275.273438 58.960938 285 70.921875 285 L 304.070312 285 C 316.03125 285 325.761719 275.273438 325.761719 263.3125 L 325.761719 154.871094 C 325.761719 142.910156 316.03125 133.183594 304.070312 133.183594 Z M 87.1875 187.402344 C 78.21875 187.402344 70.921875 180.105469 70.921875 171.136719 C 70.921875 162.167969 78.21875 154.871094 87.1875 154.871094 C 96.15625 154.871094 103.453125 162.167969 103.453125 171.136719 C 103.453125 180.105469 96.15625 187.402344 87.1875 187.402344 Z M 163.097656 116.917969 L 211.894531 116.917969 C 214.890625 116.917969 217.316406 119.34375 217.316406 122.339844 C 217.316406 125.332031 214.890625 127.761719 211.894531 127.761719 L 163.097656 127.761719 C 160.101562 127.761719 157.675781 125.332031 157.675781 122.339844 C 157.675781 119.34375 160.101562 116.917969 163.097656 116.917969 Z M 187.496094 263.3125 C 154.609375 263.3125 127.855469 236.558594 127.855469 203.667969 C 127.855469 170.78125 154.609375 144.027344 187.496094 144.027344 C 220.382812 144.027344 247.140625 170.78125 247.140625 203.667969 C 247.140625 236.558594 220.382812 263.3125 187.496094 263.3125 Z M 298.648438 165.714844 L 276.960938 165.714844 C 273.96875 165.714844 271.539062 163.285156 271.539062 160.292969 C 271.539062 157.296875 273.96875 154.871094 276.960938 154.871094 L 298.648438 154.871094 C 301.644531 154.871094 304.070312 157.296875 304.070312 160.292969 C 304.070312 163.285156 301.644531 165.714844 298.648438 165.714844 Z M 298.648438 165.714844 " fill-opacity="1" fill-rule="nonzero"/></g></svg>