<svg xmlns="http://www.w3.org/2000/svg" xmlns:xlink="http://www.w3.org/1999/xlink" width="500" zoomAndPan="magnify" viewBox="0 0 375 374.999991" height="500" preserveAspectRatio="xMidYMid meet" version="1.0"><metadata><ContainsAiGeneratedContent>Yes</ContainsAiGeneratedContent></metadata><defs><clipPath id="36487f0383"><path d="M 13.285156 13.648438 L 363.214844 13.648438 L 363.214844 363.582031 L 13.285156 363.582031 Z M 13.285156 13.648438 " clip-rule="nonzero"/></clipPath><clipPath id="b525fc9372"><path d="M 188.25 13.648438 C 91.617188 13.648438 13.285156 91.984375 13.285156 188.617188 C 13.285156 285.246094 91.617188 363.582031 188.25 363.582031 C 284.882812 363.582031 363.214844 285.246094 363.214844 188.617188 C 363.214844 91.984375 284.882812 13.648438 188.25 13.648438 Z M 188.25 13.648438 " clip-rule="nonzero"/></clipPath><clipPath id="d737373dc5"><path d="M 62.890625 257 L 124 257 L 124 292 L 62.890625 292 Z M 62.890625 257 " clip-rule="nonzero"/></clipPath><clipPath id="08f6990eb0"><path d="M 250 257 L 311.890625 257 L 311.890625 292 L 250 292 Z M 250 257 " clip-rule="nonzero"/></clipPath><clipPath id="0276d630e3"><path d="M 123 65.050781 L 264 65.050781 L 264 293 L 123 293 Z M 123 65.050781 " clip-rule="nonzero"/></clipPath></defs><rect x="-37.5" width="450" fill="#ffffff" y="-37.499999" height="449.999989" fill-opacity="1"/><rect x="-37.5" width="450" fill="#ffffff" y="-37.499999" height="449.999989" fill-opacity="1"/><g clip-path="url(#36487f0383)"><g clip-path="url(#b525fc9372)"><path fill="#cdc9e0" d="M 13.285156 13.648438 L 363.214844 13.648438 L 363.214844 363.582031 L 13.285156 363.582031 Z M 13.285156 13.648438 " fill-opacity="1" fill-rule="nonzero"/></g></g><g clip-path="url(#d737373dc5)"><path fill="#26216a" d="M 100.257812 257.707031 L 62.886719 291.429688 L 102.441406 291.429688 L 123.992188 257.707031 L 100.257812 257.707031 " fill-opacity="1" fill-rule="nonzero"/></g><path fill="#26216a" d="M 175.621094 257.707031 L 167.710938 291.429688 L 207.265625 291.429688 L 199.355469 257.707031 L 175.621094 257.707031 " fill-opacity="1" fill-rule="nonzero"/><g clip-path="url(#08f6990eb0)"><path fill="#26216a" d="M 274.71875 257.707031 L 250.988281 257.707031 L 272.535156 291.429688 L 312.09375 291.429688 L 274.71875 257.707031 " fill-opacity="1" fill-rule="nonzero"/></g><g clip-path="url(#0276d630e3)"><path fill="#26216a" d="M 262.5625 170.210938 C 265.328125 163.292969 261.964844 155.445312 255.046875 152.683594 L 226.769531 141.375 L 202.054688 109.695312 C 209.71875 105.789062 215.019531 97.917969 215.019531 88.71875 C 215.019531 75.664062 204.433594 65.074219 191.382812 65.074219 C 178.328125 65.074219 167.746094 75.664062 167.746094 88.71875 C 167.746094 97.222656 172.273438 104.613281 179.007812 108.773438 L 148.90625 142.183594 C 148.058594 143.117188 147.351562 144.171875 146.796875 145.308594 L 133.558594 172.515625 C 130.300781 179.210938 133.089844 187.28125 139.785156 190.539062 C 141.683594 191.464844 143.695312 191.902344 145.675781 191.902344 C 150.671875 191.902344 155.476562 189.113281 157.8125 184.3125 L 170.214844 158.820312 L 171.914062 156.933594 L 170.984375 178.390625 L 159.914062 224.164062 L 126.324219 271.136719 C 121.992188 277.195312 123.390625 285.617188 129.449219 289.949219 C 135.507812 294.277344 143.929688 292.878906 148.261719 286.824219 L 183.375 237.722656 C 184.378906 236.316406 185.109375 234.730469 185.511719 233.046875 L 191.996094 206.246094 L 209.292969 231.898438 L 216.890625 281.039062 C 217.917969 287.703125 223.660156 292.464844 230.195312 292.464844 C 230.882812 292.464844 231.578125 292.417969 232.277344 292.308594 C 239.636719 291.171875 244.679688 284.277344 243.542969 276.921875 L 235.488281 224.800781 C 235.183594 222.835938 234.449219 220.964844 233.339844 219.316406 L 206.898438 180.109375 L 207.738281 160.820312 C 209.203125 162.703125 211.15625 164.179688 213.371094 165.0625 L 245.035156 177.722656 C 251.953125 180.492188 259.792969 177.125 262.5625 170.210938 " fill-opacity="1" fill-rule="nonzero"/></g></svg>