<svg xmlns="http://www.w3.org/2000/svg" xmlns:xlink="http://www.w3.org/1999/xlink" width="500" zoomAndPan="magnify" viewBox="0 0 375 374.999991" height="500" preserveAspectRatio="xMidYMid meet" version="1.0"><metadata><ContainsAiGeneratedContent>Yes</ContainsAiGeneratedContent></metadata><defs><clipPath id="bfcacbee9b"><path d="M 12.535156 15.148438 L 362.464844 15.148438 L 362.464844 365.082031 L 12.535156 365.082031 Z M 12.535156 15.148438 " clip-rule="nonzero"/></clipPath><clipPath id="6b6a5ada68"><path d="M 187.5 15.148438 C 90.867188 15.148438 12.535156 93.484375 12.535156 190.117188 C 12.535156 286.746094 90.867188 365.082031 187.5 365.082031 C 284.132812 365.082031 362.464844 286.746094 362.464844 190.117188 C 362.464844 93.484375 284.132812 15.148438 187.5 15.148438 Z M 187.5 15.148438 " clip-rule="nonzero"/></clipPath><clipPath id="22e8e591f8"><path d="M 158.335938 55.664062 L 216.835938 55.664062 L 216.835938 335 L 158.335938 335 Z M 158.335938 55.664062 " clip-rule="nonzero"/></clipPath><clipPath id="4726d8524b"><path d="M 163 143 L 163.164062 143 L 163.164062 285 L 163 285 Z M 163 143 " clip-rule="nonzero"/></clipPath><clipPath id="ea794e5548"><path d="M 222 179 L 316 179 L 316 317.910156 L 222 317.910156 Z M 222 179 " clip-rule="nonzero"/></clipPath><clipPath id="7c67718211"><path d="M 216.664062 112 L 217 112 L 217 251 L 216.664062 251 Z M 216.664062 112 " clip-rule="nonzero"/></clipPath></defs><rect x="-37.5" width="450" fill="#ffffff" y="-37.499999" height="449.999989" fill-opacity="1"/><rect x="-37.5" width="450" fill="#ffffff" y="-37.499999" height="449.999989" fill-opacity="1"/><g clip-path="url(#bfcacbee9b)"><g clip-path="url(#6b6a5ada68)"><path fill="#cdc9e0" d="M 12.535156 15.148438 L 362.464844 15.148438 L 362.464844 365.082031 L 12.535156 365.082031 Z M 12.535156 15.148438 " fill-opacity="1" fill-rule="nonzero"/></g></g><g clip-path="url(#22e8e591f8)"><path fill="#26216a" d="M 200.878906 164.746094 L 200.820312 164.570312 L 200.886719 164.414062 L 206.125 152.425781 L 195.597656 142.121094 L 190.996094 134.261719 L 195.261719 119.359375 L 192.761719 109.5 L 216.636719 98.941406 L 194.042969 55.980469 L 176.402344 55.980469 L 182.652344 80.621094 L 179.148438 82.046875 L 172.609375 91.773438 L 182.953125 105.105469 L 173.886719 120.953125 L 176.355469 122.398438 L 162.527344 143.328125 L 182.632812 154.113281 L 187.1875 161.050781 L 182.914062 172.367188 L 192.09375 179.992188 L 177.613281 193.578125 L 184.097656 210.972656 L 173.125 232.988281 L 184.234375 239.035156 L 185.109375 242.734375 L 168.144531 254.464844 L 172.378906 265.964844 L 158.328125 281.363281 L 182.644531 282.375 L 177.679688 293.140625 L 186.816406 296.53125 L 190.632812 302.746094 L 189.191406 306.503906 L 189.167969 306.605469 L 186.796875 316.734375 L 191.082031 324.558594 L 192.660156 334.746094 L 192.664062 324.648438 L 188.730469 316.117188 L 190.855469 308.988281 L 194.265625 302.261719 L 188.179688 290.730469 L 184.75 288.882812 L 192.097656 274.691406 L 176.605469 273.265625 L 180.191406 269.921875 L 176.859375 260.394531 L 188.027344 253.789062 L 193.03125 247.074219 L 189.242188 227.152344 L 187.773438 226.101562 L 196.316406 211.511719 L 192.003906 201.9375 L 198.085938 196.789062 L 210.828125 193.410156 L 200.878906 164.746094 " fill-opacity="1" fill-rule="nonzero"/></g><g clip-path="url(#4726d8524b)"><path fill="#26216a" d="M 241.75 235.613281 L 214.058594 179.296875 C 213.96875 179.113281 213.859375 178.945312 213.730469 178.792969 L 183.867188 144.886719 C 183.28125 144.21875 182.457031 143.816406 181.570312 143.757812 C 180.703125 143.71875 179.816406 143.996094 179.140625 144.585938 C 178.890625 144.804688 178.421875 145.449219 178.289062 145.757812 C 175.453125 152.261719 176.359375 159.808594 180.664062 165.449219 L 181.082031 166 L 168.277344 159.863281 C 166.605469 159.070312 164.617188 159.78125 163.824219 161.425781 C 163.675781 161.730469 163.496094 162.507812 163.496094 162.851562 C 163.429688 169.941406 167.21875 176.535156 173.378906 180.046875 L 200.488281 195.488281 L 204.613281 228.34375 C 204.003906 227.949219 203.429688 227.492188 202.902344 226.980469 L 188.285156 212.917969 C 183.421875 208.242188 176.058594 207.027344 169.964844 209.894531 C 169.410156 210.15625 168.699219 210.945312 168.492188 211.515625 C 168.289062 212.089844 168.332031 213.152344 168.59375 213.710938 C 168.671875 213.871094 168.851562 214.160156 168.96875 214.304688 L 193.371094 243.992188 C 194.113281 244.894531 194.992188 245.65625 196 246.265625 L 228.460938 265.699219 L 238.523438 283.386719 C 238.945312 284.128906 239.722656 284.550781 240.523438 284.550781 C 240.898438 284.550781 241.292969 284.457031 241.648438 284.257812 C 242.75 283.632812 243.132812 282.230469 242.511719 281.132812 L 232.152344 262.914062 C 231.960938 262.566406 231.675781 262.277344 231.332031 262.078125 L 198.355469 242.328125 C 197.804688 241.996094 197.320312 241.585938 196.921875 241.085938 L 174.023438 213.292969 C 177.917969 212.328125 182.152344 213.386719 185.113281 216.234375 L 199.726562 230.285156 C 201.707031 232.191406 204.160156 233.5625 206.816406 234.25 C 207.558594 234.4375 208.335938 234.25 208.90625 233.75 C 209.476562 233.253906 209.765625 232.5 209.667969 231.746094 L 204.355469 189.496094 C 204.304688 189.09375 204.148438 188.71875 203.90625 188.386719 L 184.3125 162.667969 C 181.429688 158.882812 180.535156 153.976562 181.8125 149.484375 L 210.085938 181.59375 L 237.785156 237.933594 C 237.882812 238.128906 238.007812 238.316406 238.160156 238.476562 L 254.796875 256.417969 C 255.65625 257.347656 257.105469 257.394531 258.035156 256.542969 C 258.964844 255.675781 259.019531 254.230469 258.160156 253.300781 Z M 168.195312 164.910156 L 187.191406 174.007812 L 198.792969 189.238281 L 175.652344 176.0625 C 171.511719 173.714844 168.773438 169.546875 168.195312 164.910156 Z M 168.195312 164.910156 " fill-opacity="1" fill-rule="nonzero"/></g><path fill="#26216a" d="M 147.546875 180.183594 L 120.4375 164.738281 L 116.308594 131.894531 C 116.921875 132.289062 117.496094 132.742188 118.019531 133.246094 L 132.636719 147.3125 C 137.496094 151.988281 144.859375 153.207031 150.96875 150.332031 C 152.386719 149.660156 152.996094 147.953125 152.328125 146.527344 C 152.25 146.359375 152.070312 146.078125 151.953125 145.9375 L 127.546875 116.246094 C 126.800781 115.34375 125.925781 114.582031 124.925781 113.980469 L 92.464844 94.546875 L 82.402344 76.851562 C 81.765625 75.75 80.363281 75.363281 79.273438 75.992188 C 78.167969 76.613281 77.789062 78.015625 78.410156 79.117188 L 88.769531 97.335938 C 88.96875 97.679688 89.246094 97.964844 89.589844 98.171875 L 122.566406 117.921875 C 123.117188 118.246094 123.605469 118.667969 124.003906 119.164062 L 146.90625 146.945312 C 143.007812 147.925781 138.769531 146.863281 135.8125 144.015625 L 121.195312 129.949219 C 119.214844 128.042969 116.761719 126.675781 114.109375 125.988281 C 113.371094 125.804688 112.597656 125.988281 112.019531 126.488281 C 111.449219 126.988281 111.164062 127.742188 111.257812 128.496094 L 116.566406 170.738281 C 116.617188 171.140625 116.773438 171.519531 117.015625 171.84375 L 136.609375 197.566406 C 139.488281 201.34375 140.378906 206.246094 139.101562 210.746094 L 110.835938 178.648438 L 83.140625 122.300781 C 83.046875 122.101562 82.917969 121.917969 82.765625 121.753906 L 66.132812 103.820312 C 65.265625 102.882812 63.816406 102.832031 62.890625 103.695312 C 61.960938 104.554688 61.910156 106.007812 62.765625 106.933594 L 79.175781 124.625 L 106.867188 180.933594 C 106.957031 181.117188 107.066406 181.289062 107.199219 181.4375 L 137.058594 215.34375 C 137.648438 216.011719 138.464844 216.417969 139.355469 216.472656 C 139.429688 216.480469 139.503906 216.480469 139.570312 216.480469 C 140.390625 216.480469 141.164062 216.1875 141.78125 215.636719 C 142.03125 215.421875 142.5 214.777344 142.632812 214.472656 C 145.46875 207.972656 144.558594 200.417969 140.261719 194.777344 L 139.847656 194.230469 L 152.648438 200.363281 C 153.105469 200.578125 153.597656 200.683594 154.082031 200.683594 C 154.457031 200.683594 154.835938 200.621094 155.195312 200.496094 C 156.039062 200.203125 156.714844 199.59375 157.101562 198.777344 C 157.246094 198.484375 157.429688 197.707031 157.429688 197.371094 C 157.496094 190.28125 153.703125 183.6875 147.546875 180.183594 Z M 133.746094 186.234375 L 122.132812 170.988281 L 145.277344 184.164062 C 149.410156 186.523438 152.152344 190.683594 152.734375 195.332031 Z M 133.746094 186.234375 " fill-opacity="1" fill-rule="nonzero"/><g clip-path="url(#ea794e5548)"><path fill="#26216a" d="M 299.1875 269.277344 L 271.988281 213.957031 C 271.898438 213.777344 271.789062 213.609375 271.664062 213.460938 L 242.328125 180.15625 C 241.753906 179.496094 240.941406 179.101562 240.074219 179.042969 C 239.222656 179.007812 238.347656 179.277344 237.6875 179.855469 C 237.4375 180.074219 236.980469 180.703125 236.847656 181.011719 C 234.0625 187.398438 234.953125 194.8125 239.179688 200.355469 L 239.589844 200.894531 L 227.015625 194.863281 C 225.371094 194.085938 223.417969 194.785156 222.636719 196.402344 C 222.492188 196.699219 222.316406 197.464844 222.316406 197.800781 C 222.25 204.765625 225.972656 211.242188 232.027344 214.691406 L 258.65625 229.859375 L 262.707031 262.136719 C 262.109375 261.75 261.546875 261.296875 261.027344 260.796875 L 246.667969 246.984375 C 241.890625 242.390625 234.65625 241.199219 228.671875 244.011719 C 228.125 244.269531 227.429688 245.042969 227.226562 245.605469 C 227.023438 246.167969 227.070312 247.214844 227.324219 247.761719 C 227.402344 247.921875 227.578125 248.203125 227.695312 248.34375 L 251.664062 277.507812 C 252.390625 278.394531 253.257812 279.140625 254.246094 279.742188 L 286.136719 298.832031 L 296.019531 316.207031 C 296.433594 316.9375 297.199219 317.351562 297.980469 317.351562 C 298.351562 317.351562 298.738281 317.257812 299.089844 317.0625 C 300.171875 316.449219 300.546875 315.070312 299.9375 313.992188 L 289.761719 296.09375 C 289.570312 295.753906 289.292969 295.46875 288.953125 295.277344 L 256.5625 275.875 C 256.019531 275.550781 255.542969 275.144531 255.152344 274.652344 L 232.65625 247.351562 C 236.484375 246.402344 240.644531 247.441406 243.554688 250.238281 L 257.90625 264.042969 C 259.851562 265.917969 262.261719 267.265625 264.875 267.941406 C 265.601562 268.125 266.363281 267.941406 266.925781 267.449219 C 267.484375 266.957031 267.769531 266.21875 267.675781 265.476562 L 262.457031 223.976562 C 262.40625 223.578125 262.253906 223.210938 262.015625 222.886719 L 242.765625 197.621094 C 239.933594 193.902344 239.054688 189.082031 240.3125 184.671875 L 268.082031 216.210938 L 295.292969 271.554688 C 295.386719 271.75 295.515625 271.933594 295.664062 272.089844 L 312.003906 289.714844 C 312.851562 290.628906 314.273438 290.675781 315.1875 289.835938 C 316.101562 288.984375 316.15625 287.566406 315.308594 286.652344 Z M 226.933594 199.824219 L 245.59375 208.761719 L 256.988281 223.722656 L 234.257812 210.777344 C 230.1875 208.472656 227.5 204.378906 226.933594 199.824219 Z M 226.933594 199.824219 " fill-opacity="1" fill-rule="nonzero"/></g><g clip-path="url(#7c67718211)"><path fill="#26216a" d="M 206.648438 214.824219 L 180.019531 199.65625 L 175.960938 167.390625 C 176.566406 167.777344 177.128906 168.222656 177.640625 168.71875 L 192 182.535156 C 196.773438 187.128906 204.011719 188.328125 210.011719 185.503906 C 211.402344 184.84375 212.003906 183.167969 211.34375 181.765625 C 211.269531 181.601562 211.09375 181.324219 210.976562 181.1875 L 187.003906 152.015625 C 186.269531 151.128906 185.410156 150.382812 184.429688 149.792969 L 152.539062 130.699219 L 142.65625 113.320312 C 142.03125 112.234375 140.652344 111.855469 139.582031 112.472656 C 138.496094 113.085938 138.121094 114.464844 138.734375 115.546875 L 148.910156 133.441406 C 149.105469 133.78125 149.378906 134.058594 149.714844 134.261719 L 182.109375 153.664062 C 182.648438 153.984375 183.132812 154.398438 183.523438 154.886719 L 206.019531 182.175781 C 202.191406 183.140625 198.027344 182.09375 195.121094 179.300781 L 180.761719 165.480469 C 178.816406 163.605469 176.410156 162.265625 173.800781 161.589844 C 173.078125 161.410156 172.316406 161.589844 171.75 162.082031 C 171.191406 162.570312 170.910156 163.308594 171 164.054688 L 176.214844 205.550781 C 176.265625 205.941406 176.417969 206.316406 176.65625 206.636719 L 195.90625 231.90625 C 198.734375 235.613281 199.605469 240.429688 198.355469 244.851562 L 170.585938 213.316406 L 143.382812 157.964844 C 143.285156 157.773438 143.160156 157.589844 143.011719 157.429688 L 126.671875 139.808594 C 125.820312 138.890625 124.398438 138.84375 123.488281 139.6875 C 122.574219 140.535156 122.523438 141.960938 123.367188 142.871094 L 139.484375 160.246094 L 166.6875 215.5625 C 166.777344 215.742188 166.886719 215.910156 167.015625 216.058594 L 196.347656 249.367188 C 196.925781 250.023438 197.730469 250.417969 198.601562 250.472656 C 198.675781 250.484375 198.746094 250.484375 198.8125 250.484375 C 199.621094 250.484375 200.382812 250.195312 200.984375 249.652344 C 201.230469 249.441406 201.691406 248.808594 201.820312 248.511719 C 204.609375 242.125 203.714844 234.707031 199.492188 229.164062 L 199.085938 228.625 L 211.660156 234.652344 C 212.109375 234.863281 212.59375 234.964844 213.070312 234.964844 C 213.4375 234.964844 213.808594 234.902344 214.164062 234.78125 C 214.992188 234.492188 215.652344 233.894531 216.035156 233.09375 C 216.175781 232.804688 216.355469 232.039062 216.355469 231.710938 C 216.425781 224.746094 212.695312 218.269531 206.648438 214.824219 Z M 193.089844 220.769531 L 181.6875 205.792969 L 204.417969 218.738281 C 208.480469 221.054688 211.175781 225.140625 211.746094 229.707031 Z M 193.089844 220.769531 " fill-opacity="1" fill-rule="nonzero"/></g></svg>