<svg xmlns="http://www.w3.org/2000/svg" xmlns:xlink="http://www.w3.org/1999/xlink" width="500" zoomAndPan="magnify" viewBox="0 0 375 374.999991" height="500" preserveAspectRatio="xMidYMid meet" version="1.0"><metadata><ContainsAiGeneratedContent>Yes</ContainsAiGeneratedContent></metadata><defs><clipPath id="c88f9ad747"><path d="M 12.535156 15.148438 L 362.464844 15.148438 L 362.464844 365.082031 L 12.535156 365.082031 Z M 12.535156 15.148438 " clip-rule="nonzero"/></clipPath><clipPath id="678e51df24"><path d="M 187.5 15.148438 C 90.867188 15.148438 12.535156 93.484375 12.535156 190.117188 C 12.535156 286.746094 90.867188 365.082031 187.5 365.082031 C 284.132812 365.082031 362.464844 286.746094 362.464844 190.117188 C 362.464844 93.484375 284.132812 15.148438 187.5 15.148438 Z M 187.5 15.148438 " clip-rule="nonzero"/></clipPath></defs><g clip-path="url(#c88f9ad747)"><g clip-path="url(#678e51df24)"><path fill="#2e2c74" d="M 12.535156 15.148438 L 362.464844 15.148438 L 362.464844 365.082031 L 12.535156 365.082031 Z M 12.535156 15.148438 " fill-opacity="1" fill-rule="nonzero"/></g></g><path fill="#cdc9e0" d="M 249.128906 92.207031 L 199.382812 92.207031 L 199.382812 109.316406 L 249.128906 109.316406 L 258 100.761719 Z M 249.128906 92.207031 " fill-opacity="1" fill-rule="nonzero"/><path fill="#cdc9e0" d="M 265.921875 165.714844 L 199.382812 165.714844 L 199.382812 191.222656 L 265.921875 191.222656 L 278.4375 178.390625 Z M 265.921875 165.714844 " fill-opacity="1" fill-rule="nonzero"/><path fill="#cdc9e0" d="M 258.632812 126.742188 L 199.382812 126.742188 L 199.382812 148.765625 L 258.632812 148.765625 L 269.40625 137.675781 Z M 258.632812 126.742188 " fill-opacity="1" fill-rule="nonzero"/><path fill="#cdc9e0" d="M 239.9375 273.765625 L 246.433594 273.765625 C 246.117188 275.351562 245.324219 276.617188 244.21875 277.566406 C 242.949219 278.675781 241.523438 279.152344 239.621094 279.152344 C 237.722656 279.152344 235.980469 278.519531 234.394531 277.09375 C 232.808594 275.667969 232.175781 273.289062 232.175781 269.964844 C 232.175781 266.636719 232.808594 264.101562 234.234375 262.359375 C 235.660156 260.617188 237.40625 259.824219 239.621094 259.824219 C 241.839844 259.824219 241.839844 259.980469 242.792969 260.457031 C 244.375 261.25 245.484375 262.359375 245.800781 264.257812 L 245.800781 264.578125 L 252.457031 264.578125 L 252.457031 264.101562 C 252.136719 261.25 250.710938 258.875 248.496094 256.972656 C 246.277344 255.070312 243.265625 254.121094 239.464844 254.121094 C 235.660156 254.121094 231.699219 255.546875 229.167969 258.398438 C 226.632812 261.25 225.207031 265.050781 225.207031 269.804688 C 225.207031 274.558594 226.472656 278.203125 229.007812 280.894531 C 231.542969 283.589844 234.710938 285.015625 238.511719 285.015625 C 242.316406 285.015625 242.949219 284.539062 244.535156 283.589844 C 245.324219 283.113281 246.277344 282.320312 247.226562 281.210938 L 247.703125 284.222656 L 252.296875 284.222656 L 252.296875 268.0625 L 239.621094 268.0625 L 239.621094 273.605469 Z M 239.9375 273.765625 " fill-opacity="1" fill-rule="nonzero"/><path fill="#cdc9e0" d="M 187.5 12.355469 C 89.75 12.355469 10.535156 91.570312 10.535156 189.324219 C 10.535156 287.074219 89.75 366.289062 187.5 366.289062 C 285.25 366.289062 364.464844 287.074219 364.464844 189.324219 C 364.464844 91.570312 285.25 12.355469 187.5 12.355469 Z M 83.253906 292.617188 L 83.253906 184.410156 L 181.320312 101.394531 L 181.320312 171.261719 C 181.480469 171.261719 151.058594 171.261719 151.058594 171.261719 L 151.058594 218.632812 L 181.636719 218.632812 L 181.636719 292.617188 C 181.796875 292.617188 83.09375 292.617188 83.09375 292.617188 Z M 181.636719 91.730469 L 70.417969 186.472656 L 52.835938 165.875 L 84.363281 139.101562 L 84.363281 101.394531 L 109.394531 101.394531 L 109.394531 117.871094 L 181.953125 56.082031 L 181.636719 91.886719 Z M 194.628906 55.925781 L 241.839844 55.925781 L 254.039062 68.441406 L 241.839844 80.957031 L 194.628906 80.957031 Z M 194.628906 87.453125 L 251.1875 87.453125 L 264.972656 100.761719 L 251.1875 114.070312 L 194.785156 114.070312 L 194.785156 87.453125 Z M 194.628906 121.988281 L 260.695312 121.988281 L 276.21875 137.832031 L 260.695312 153.519531 L 194.628906 153.519531 Z M 194.628906 160.964844 L 267.980469 160.964844 L 285.089844 178.550781 L 267.980469 196.136719 L 194.628906 196.136719 Z M 194.628906 203.421875 L 277.328125 203.421875 L 296.816406 222.277344 L 277.328125 241.128906 L 194.628906 241.128906 Z M 283.03125 292.617188 L 194.628906 292.617188 L 194.628906 248.101562 L 283.03125 248.101562 L 303.628906 270.4375 L 283.03125 292.777344 Z M 283.03125 292.617188 " fill-opacity="1" fill-rule="nonzero"/><path fill="#cdc9e0" d="M 239.78125 60.679688 L 199.382812 60.679688 L 199.382812 76.203125 L 239.78125 76.203125 L 247.386719 68.441406 Z M 239.78125 60.679688 " fill-opacity="1" fill-rule="nonzero"/><path fill="#cdc9e0" d="M 275.425781 208.175781 L 199.382812 208.175781 L 199.382812 236.375 L 275.425781 236.375 L 290.003906 222.277344 Z M 275.425781 208.175781 " fill-opacity="1" fill-rule="nonzero"/></svg>