<svg xmlns="http://www.w3.org/2000/svg" xmlns:xlink="http://www.w3.org/1999/xlink" width="500" zoomAndPan="magnify" viewBox="0 0 375 374.999991" height="500" preserveAspectRatio="xMidYMid meet" version="1.0"><metadata><ContainsAiGeneratedContent>Yes</ContainsAiGeneratedContent></metadata><defs><clipPath id="930c07b361"><path d="M 13.285156 13.648438 L 363.214844 13.648438 L 363.214844 363.582031 L 13.285156 363.582031 Z M 13.285156 13.648438 " clip-rule="nonzero"/></clipPath><clipPath id="8e541e7b64"><path d="M 188.25 13.648438 C 91.617188 13.648438 13.285156 91.984375 13.285156 188.617188 C 13.285156 285.246094 91.617188 363.582031 188.25 363.582031 C 284.882812 363.582031 363.214844 285.246094 363.214844 188.617188 C 363.214844 91.984375 284.882812 13.648438 188.25 13.648438 Z M 188.25 13.648438 " clip-rule="nonzero"/></clipPath><clipPath id="eb1548cd27"><path d="M 136.125 86 L 313.875 86 L 313.875 248 L 136.125 248 Z M 136.125 86 " clip-rule="nonzero"/></clipPath><clipPath id="67fa941661"><path d="M 61.125 167.234375 L 211.125 167.234375 L 211.125 317.234375 L 61.125 317.234375 Z M 61.125 167.234375 " clip-rule="nonzero"/></clipPath></defs><rect x="-37.5" width="450" fill="#ffffff" y="-37.499999" height="449.999989" fill-opacity="1"/><rect x="-37.5" width="450" fill="#ffffff" y="-37.499999" height="449.999989" fill-opacity="1"/><g clip-path="url(#930c07b361)"><g clip-path="url(#8e541e7b64)"><path fill="#cdc9e0" d="M 13.285156 13.648438 L 363.214844 13.648438 L 363.214844 363.582031 L 13.285156 363.582031 Z M 13.285156 13.648438 " fill-opacity="1" fill-rule="nonzero"/></g></g><g clip-path="url(#eb1548cd27)"><path fill="#26216a" d="M 166.773438 86.21875 C 165.8125 86.179688 164.878906 86.328125 163.972656 86.65625 C 163.066406 86.980469 162.253906 87.46875 161.539062 88.113281 C 145.996094 101.675781 136.125 121.667969 136.125 143.902344 C 136.125 166.136719 145.996094 186.128906 161.539062 199.691406 C 161.90625 200.015625 162.296875 200.300781 162.71875 200.546875 C 163.140625 200.792969 163.585938 200.996094 164.046875 201.15625 C 164.507812 201.316406 164.980469 201.429688 165.464844 201.492188 C 165.949219 201.558594 166.4375 201.578125 166.925781 201.546875 C 167.414062 201.515625 167.894531 201.4375 168.367188 201.3125 C 168.835938 201.183594 169.292969 201.015625 169.730469 200.796875 C 170.171875 200.582031 170.582031 200.324219 170.972656 200.027344 C 171.359375 199.730469 171.714844 199.398438 172.035156 199.027344 C 172.355469 198.660156 172.640625 198.265625 172.882812 197.839844 C 173.125 197.417969 173.324219 196.972656 173.480469 196.507812 C 173.636719 196.046875 173.746094 195.570312 173.804688 195.085938 C 173.867188 194.601562 173.882812 194.117188 173.847656 193.628906 C 173.8125 193.140625 173.730469 192.660156 173.601562 192.191406 C 173.46875 191.71875 173.296875 191.265625 173.078125 190.828125 C 172.855469 190.390625 172.597656 189.980469 172.296875 189.59375 C 171.996094 189.210938 171.660156 188.859375 171.289062 188.539062 C 158.820312 177.660156 150.9375 161.761719 150.9375 143.902344 C 150.9375 126.042969 158.820312 110.140625 171.289062 99.265625 C 171.855469 98.78125 172.339844 98.226562 172.742188 97.597656 C 173.144531 96.964844 173.441406 96.292969 173.636719 95.574219 C 173.835938 94.851562 173.921875 94.121094 173.898438 93.375 C 173.871094 92.628906 173.738281 91.902344 173.492188 91.199219 C 173.25 90.492188 172.90625 89.839844 172.464844 89.238281 C 172.023438 88.636719 171.503906 88.113281 170.90625 87.667969 C 170.304688 87.222656 169.652344 86.878906 168.949219 86.632812 C 168.246094 86.382812 167.519531 86.246094 166.773438 86.21875 Z M 283.734375 86.21875 C 282.964844 86.191406 282.214844 86.285156 281.472656 86.496094 C 280.734375 86.707031 280.046875 87.023438 279.40625 87.445312 C 278.765625 87.871094 278.203125 88.382812 277.722656 88.980469 C 277.242188 89.578125 276.863281 90.238281 276.585938 90.953125 C 276.308594 91.671875 276.148438 92.414062 276.101562 93.179688 C 276.058594 93.945312 276.128906 94.703125 276.320312 95.445312 C 276.507812 96.191406 276.804688 96.890625 277.210938 97.539062 C 277.621094 98.191406 278.113281 98.765625 278.699219 99.265625 C 291.167969 110.140625 299.050781 126.042969 299.050781 143.902344 C 299.050781 161.761719 291.167969 177.660156 278.699219 188.539062 C 278.328125 188.859375 277.996094 189.210938 277.691406 189.59375 C 277.390625 189.980469 277.132812 190.390625 276.914062 190.828125 C 276.691406 191.265625 276.519531 191.71875 276.386719 192.191406 C 276.257812 192.660156 276.175781 193.140625 276.140625 193.628906 C 276.105469 194.117188 276.121094 194.601562 276.183594 195.085938 C 276.242188 195.570312 276.351562 196.046875 276.507812 196.507812 C 276.664062 196.972656 276.863281 197.417969 277.105469 197.839844 C 277.347656 198.265625 277.632812 198.660156 277.953125 199.027344 C 278.277344 199.398438 278.628906 199.730469 279.019531 200.027344 C 279.40625 200.324219 279.820312 200.582031 280.257812 200.796875 C 280.695312 201.015625 281.152344 201.183594 281.625 201.3125 C 282.097656 201.4375 282.574219 201.515625 283.0625 201.546875 C 283.550781 201.578125 284.039062 201.558594 284.523438 201.492188 C 285.007812 201.429688 285.480469 201.316406 285.941406 201.15625 C 286.40625 200.996094 286.847656 200.792969 287.269531 200.546875 C 287.691406 200.300781 288.085938 200.015625 288.449219 199.691406 C 303.992188 186.128906 313.863281 166.136719 313.863281 143.902344 C 313.863281 121.667969 303.992188 101.675781 288.449219 88.113281 C 287.109375 86.90625 285.535156 86.273438 283.734375 86.21875 Z M 193.332031 109.027344 C 192.367188 109 191.433594 109.152344 190.53125 109.488281 C 189.628906 109.824219 188.820312 110.316406 188.109375 110.964844 C 179.046875 119.003906 173.152344 130.746094 173.152344 143.902344 C 173.152344 157.058594 179.046875 168.800781 188.109375 176.835938 C 188.472656 177.160156 188.867188 177.445312 189.285156 177.691406 C 189.707031 177.9375 190.144531 178.136719 190.605469 178.296875 C 191.0625 178.457031 191.535156 178.570312 192.015625 178.636719 C 192.5 178.703125 192.980469 178.722656 193.46875 178.691406 C 193.953125 178.664062 194.429688 178.585938 194.902344 178.464844 C 195.371094 178.339844 195.828125 178.171875 196.265625 177.960938 C 196.703125 177.75 197.113281 177.496094 197.503906 177.203125 C 197.890625 176.90625 198.246094 176.578125 198.566406 176.214844 C 198.890625 175.851562 199.175781 175.460938 199.421875 175.039062 C 199.667969 174.621094 199.867188 174.179688 200.027344 173.722656 C 200.1875 173.261719 200.300781 172.789062 200.367188 172.308594 C 200.433594 171.828125 200.453125 171.34375 200.421875 170.859375 C 200.394531 170.371094 200.316406 169.894531 200.195312 169.421875 C 200.070312 168.953125 199.902344 168.5 199.691406 168.0625 C 199.480469 167.625 199.226562 167.210938 198.933594 166.824219 C 198.636719 166.4375 198.308594 166.082031 197.945312 165.757812 C 191.8125 160.316406 187.964844 152.667969 187.964844 143.902344 C 187.964844 135.136719 191.8125 127.488281 197.945312 122.046875 C 198.511719 121.558594 198.992188 121 199.390625 120.367188 C 199.789062 119.734375 200.082031 119.054688 200.273438 118.335938 C 200.464844 117.613281 200.546875 116.878906 200.515625 116.132812 C 200.484375 115.386719 200.347656 114.660156 200.097656 113.957031 C 199.847656 113.253906 199.5 112.601562 199.050781 112.003906 C 198.605469 111.40625 198.082031 110.886719 197.476562 110.445312 C 196.875 110.003906 196.21875 109.664062 195.511719 109.421875 C 194.804688 109.179688 194.078125 109.050781 193.332031 109.027344 Z M 256.441406 109.027344 C 255.703125 109.070312 254.988281 109.21875 254.292969 109.476562 C 253.601562 109.730469 252.960938 110.082031 252.375 110.53125 C 251.785156 110.980469 251.277344 111.503906 250.847656 112.101562 C 250.414062 112.703125 250.082031 113.351562 249.84375 114.050781 C 249.609375 114.753906 249.480469 115.472656 249.460938 116.210938 C 249.4375 116.949219 249.523438 117.671875 249.722656 118.386719 C 249.917969 119.097656 250.210938 119.765625 250.609375 120.390625 C 251.003906 121.011719 251.480469 121.566406 252.042969 122.046875 C 258.175781 127.488281 262.023438 135.136719 262.023438 143.902344 C 262.023438 152.667969 258.175781 160.316406 252.042969 165.757812 C 251.679688 166.082031 251.351562 166.4375 251.058594 166.824219 C 250.761719 167.210938 250.511719 167.625 250.296875 168.0625 C 250.085938 168.5 249.917969 168.953125 249.796875 169.421875 C 249.671875 169.894531 249.597656 170.371094 249.566406 170.855469 C 249.539062 171.34375 249.558594 171.824219 249.625 172.308594 C 249.691406 172.789062 249.804688 173.261719 249.960938 173.71875 C 250.121094 174.179688 250.324219 174.617188 250.570312 175.039062 C 250.816406 175.457031 251.101562 175.851562 251.421875 176.214844 C 251.746094 176.578125 252.101562 176.90625 252.488281 177.199219 C 252.875 177.492188 253.289062 177.746094 253.726562 177.957031 C 254.164062 178.171875 254.617188 178.339844 255.085938 178.460938 C 255.558594 178.585938 256.035156 178.660156 256.519531 178.691406 C 257.007812 178.71875 257.492188 178.699219 257.972656 178.632812 C 258.453125 178.566406 258.925781 178.457031 259.382812 178.296875 C 259.84375 178.136719 260.285156 177.933594 260.703125 177.691406 C 261.121094 177.445312 261.515625 177.160156 261.878906 176.835938 C 270.941406 168.800781 276.835938 157.058594 276.835938 143.902344 C 276.835938 130.746094 270.941406 119.003906 261.878906 110.964844 C 260.546875 109.746094 258.980469 109.101562 257.175781 109.027344 C 256.933594 109.015625 256.6875 109.015625 256.441406 109.027344 Z M 224.996094 129.089844 C 224.023438 129.089844 223.058594 129.183594 222.105469 129.375 C 221.152344 129.566406 220.226562 129.84375 219.328125 130.21875 C 218.425781 130.589844 217.574219 131.046875 216.765625 131.585938 C 215.957031 132.125 215.207031 132.742188 214.519531 133.429688 C 213.832031 134.117188 213.21875 134.863281 212.679688 135.671875 C 212.136719 136.480469 211.683594 137.335938 211.308594 138.234375 C 210.9375 139.132812 210.65625 140.058594 210.46875 141.011719 C 210.277344 141.964844 210.183594 142.929688 210.183594 143.902344 C 210.183594 145.199219 210.351562 146.476562 210.691406 147.730469 C 211.027344 148.988281 211.519531 150.175781 212.171875 151.300781 C 212.820312 152.425781 213.605469 153.445312 214.523438 154.367188 C 215.441406 155.285156 216.464844 156.066406 217.589844 156.71875 L 217.589844 240.175781 C 217.582031 240.667969 217.621094 241.152344 217.710938 241.636719 C 217.800781 242.117188 217.9375 242.585938 218.121094 243.042969 C 218.304688 243.5 218.53125 243.929688 218.800781 244.339844 C 219.070312 244.753906 219.375 245.132812 219.71875 245.480469 C 220.066406 245.832031 220.441406 246.144531 220.847656 246.417969 C 221.253906 246.691406 221.683594 246.925781 222.136719 247.113281 C 222.589844 247.304688 223.054688 247.445312 223.535156 247.542969 C 224.019531 247.640625 224.503906 247.6875 224.996094 247.6875 C 225.484375 247.6875 225.972656 247.640625 226.453125 247.542969 C 226.933594 247.445312 227.398438 247.304688 227.851562 247.113281 C 228.304688 246.925781 228.734375 246.691406 229.140625 246.417969 C 229.546875 246.144531 229.925781 245.832031 230.269531 245.480469 C 230.613281 245.132812 230.917969 244.753906 231.1875 244.339844 C 231.457031 243.929688 231.683594 243.5 231.867188 243.042969 C 232.050781 242.585938 232.1875 242.117188 232.277344 241.636719 C 232.367188 241.152344 232.40625 240.667969 232.398438 240.175781 L 232.398438 156.703125 C 233.523438 156.054688 234.546875 155.269531 235.464844 154.351562 C 236.382812 153.4375 237.164062 152.414062 237.816406 151.292969 C 238.464844 150.167969 238.957031 148.980469 239.296875 147.726562 C 239.632812 146.476562 239.804688 145.199219 239.804688 143.902344 C 239.804688 142.929688 239.710938 141.964844 239.519531 141.011719 C 239.332031 140.058594 239.050781 139.132812 238.679688 138.234375 C 238.304688 137.335938 237.851562 136.480469 237.308594 135.671875 C 236.769531 134.863281 236.15625 134.117188 235.46875 133.429688 C 234.78125 132.742188 234.03125 132.125 233.222656 131.585938 C 232.414062 131.046875 231.5625 130.589844 230.664062 130.21875 C 229.765625 129.84375 228.835938 129.566406 227.882812 129.375 C 226.929688 129.183594 225.96875 129.089844 224.996094 129.089844 Z M 224.996094 129.089844 " fill-opacity="1" fill-rule="nonzero"/></g><g clip-path="url(#67fa941661)"><path fill="#26216a" d="M 209.269531 277.347656 C 210.363281 280.273438 211.003906 283.417969 211.101562 286.707031 C 211.125 287.019531 211.125 287.332031 211.125 287.65625 C 211.125 303.988281 197.878906 317.234375 181.546875 317.234375 C 115.039062 317.234375 61.125 263.320312 61.125 196.808594 C 61.125 180.480469 74.371094 167.234375 90.699219 167.234375 C 91.027344 167.234375 91.339844 167.234375 91.652344 167.257812 C 94.941406 167.355469 98.09375 167.992188 101.019531 169.089844 L 112.125 217.160156 C 112.125 217.183594 112.113281 217.199219 112.089844 217.210938 L 91.722656 226.363281 L 91.664062 226.386719 C 101.007812 254.839844 123.515625 277.347656 151.972656 286.695312 L 151.996094 286.632812 L 161.160156 266.257812 L 209.269531 277.347656 " fill-opacity="1" fill-rule="nonzero"/></g></svg>