<svg xmlns="http://www.w3.org/2000/svg" xmlns:xlink="http://www.w3.org/1999/xlink" width="500" zoomAndPan="magnify" viewBox="0 0 375 374.999991" height="500" preserveAspectRatio="xMidYMid meet" version="1.0"><metadata><ContainsAiGeneratedContent>Yes</ContainsAiGeneratedContent></metadata><defs><clipPath id="7dac1c8217"><path d="M 12.535156 15.148438 L 362.464844 15.148438 L 362.464844 365.082031 L 12.535156 365.082031 Z M 12.535156 15.148438 " clip-rule="nonzero"/></clipPath><clipPath id="69a187a4c8"><path d="M 187.5 15.148438 C 90.867188 15.148438 12.535156 93.484375 12.535156 190.117188 C 12.535156 286.746094 90.867188 365.082031 187.5 365.082031 C 284.132812 365.082031 362.464844 286.746094 362.464844 190.117188 C 362.464844 93.484375 284.132812 15.148438 187.5 15.148438 Z M 187.5 15.148438 " clip-rule="nonzero"/></clipPath><clipPath id="243042ad48"><path d="M 239 120 L 301 120 L 301 293.976562 L 239 293.976562 Z M 239 120 " clip-rule="nonzero"/></clipPath><clipPath id="5fd6b81779"><path d="M 268 132 L 328 132 L 328 293.976562 L 268 293.976562 Z M 268 132 " clip-rule="nonzero"/></clipPath><clipPath id="2567fc5ea3"><path d="M 141 160 L 216 160 L 216 293.976562 L 141 293.976562 Z M 141 160 " clip-rule="nonzero"/></clipPath><clipPath id="0c7ebb90e1"><path d="M 47 210 L 116 210 L 116 293.976562 L 47 293.976562 Z M 47 210 " clip-rule="nonzero"/></clipPath></defs><g clip-path="url(#7dac1c8217)"><g clip-path="url(#69a187a4c8)"><path fill="#cdc9e0" d="M 12.535156 15.148438 L 362.464844 15.148438 L 362.464844 365.082031 L 12.535156 365.082031 Z M 12.535156 15.148438 " fill-opacity="1" fill-rule="nonzero"/></g></g><g clip-path="url(#243042ad48)"><path fill="#26216a" d="M 268.886719 133.269531 C 271.070312 131.144531 273.980469 129.910156 277.117188 129.855469 C 277.058594 129.800781 277.003906 129.742188 276.949219 129.632812 C 274.597656 126.832031 272.75 123.695312 271.347656 120.394531 C 268.382812 120.503906 265.023438 121.679688 260.316406 127.894531 C 254.214844 135.566406 249.34375 144.132812 245.984375 153.203125 C 242.625 162.277344 240.609375 171.90625 240.21875 181.648438 L 239.769531 191.894531 L 239.769531 285.90625 C 239.769531 290.332031 243.410156 293.859375 247.832031 293.859375 L 256.621094 293.859375 C 261.046875 293.859375 264.6875 290.273438 264.6875 285.90625 L 264.6875 199.847656 L 274.484375 199.847656 L 274.484375 285.851562 C 274.484375 290.273438 278.125 293.800781 282.546875 293.800781 L 291.339844 293.800781 C 295.761719 293.800781 299.402344 290.21875 299.402344 285.851562 L 299.402344 185.398438 L 300.578125 180.921875 L 268.996094 149.621094 C 264.351562 145.085938 264.351562 137.808594 268.886719 133.269531 Z M 268.886719 133.269531 " fill-opacity="1" fill-rule="nonzero"/></g><path fill="#26216a" d="M 292.121094 139.878906 L 307.519531 155.109375 L 312 138.421875 C 312.277344 137.582031 312.390625 136.742188 312.445312 135.902344 C 308.023438 138.984375 303.097656 140.605469 298.058594 140.605469 C 296.042969 140.605469 294.027344 140.382812 292.121094 139.878906 Z M 292.121094 139.878906 " fill-opacity="1" fill-rule="nonzero"/><g clip-path="url(#5fd6b81779)"><path fill="#26216a" d="M 324.820312 176.890625 L 306.511719 158.746094 L 283.105469 135.566406 C 283.105469 135.511719 283.050781 135.511719 282.996094 135.453125 C 282.996094 135.453125 282.996094 135.453125 282.996094 135.398438 C 282.828125 135.285156 282.714844 135.117188 282.546875 135.007812 C 282.433594 134.894531 282.265625 134.78125 282.097656 134.671875 C 281.988281 134.613281 281.929688 134.558594 281.820312 134.503906 C 281.707031 134.445312 281.652344 134.390625 281.59375 134.335938 C 281.484375 134.277344 281.425781 134.222656 281.371094 134.167969 C 281.257812 134.109375 281.203125 134.054688 281.089844 134 C 280.8125 133.832031 280.476562 133.71875 280.195312 133.605469 C 280.027344 133.496094 279.859375 133.496094 279.691406 133.4375 C 279.523438 133.382812 279.410156 133.328125 279.242188 133.328125 L 278.796875 133.214844 C 278.683594 133.160156 278.515625 133.160156 278.402344 133.101562 C 278.234375 133.101562 278.125 133.046875 278.011719 133.046875 C 277.898438 133.046875 277.789062 132.992188 277.675781 132.992188 C 277.507812 132.992188 277.339844 132.933594 277.171875 132.933594 C 277.003906 132.933594 276.835938 132.992188 276.667969 132.992188 C 276.554688 132.992188 276.445312 132.992188 276.332031 133.046875 C 276.21875 133.046875 276.109375 133.101562 275.941406 133.101562 C 275.828125 133.160156 275.660156 133.160156 275.546875 133.214844 C 275.210938 133.269531 274.933594 133.328125 274.652344 133.4375 C 274.484375 133.496094 274.316406 133.550781 274.148438 133.605469 C 273.8125 133.71875 273.53125 133.832031 273.195312 134 C 273.027344 134.109375 272.859375 134.222656 272.636719 134.277344 C 272.582031 134.335938 272.523438 134.390625 272.46875 134.390625 C 272.355469 134.503906 272.246094 134.558594 272.132812 134.613281 C 271.964844 134.726562 271.851562 134.839844 271.628906 134.949219 C 271.460938 135.117188 271.292969 135.285156 271.125 135.398438 C 267.820312 138.648438 267.820312 143.910156 271.125 147.15625 L 301.359375 177.113281 L 312.839844 188.480469 C 312.949219 188.59375 313.0625 188.703125 313.175781 188.816406 C 313.285156 188.929688 313.34375 188.984375 313.453125 189.039062 C 313.902344 189.433594 314.40625 189.769531 314.910156 189.992188 C 315.023438 190.046875 315.078125 190.105469 315.191406 190.105469 C 315.304688 190.160156 315.414062 190.214844 315.527344 190.273438 C 315.640625 190.328125 315.75 190.382812 315.863281 190.382812 L 315.863281 289.546875 C 315.863281 291.785156 317.710938 293.632812 320.007812 293.632812 C 322.246094 293.632812 324.148438 291.785156 324.148438 289.546875 L 324.148438 189.152344 C 324.148438 189.097656 324.148438 189.097656 324.148438 189.097656 C 324.316406 188.929688 324.484375 188.761719 324.652344 188.648438 C 328.125 185.398438 328.125 180.136719 324.820312 176.890625 Z M 324.820312 176.890625 " fill-opacity="1" fill-rule="nonzero"/></g><path fill="#26216a" d="M 283.667969 131.816406 C 284.113281 132.207031 284.617188 132.542969 285.066406 132.878906 C 288.929688 135.621094 293.355469 137.359375 298.058594 137.359375 C 303.152344 137.359375 307.910156 135.398438 311.941406 132.207031 C 319.390625 126.382812 324.316406 116.417969 324.316406 107.066406 C 324.316406 92.734375 312.558594 81.085938 298.058594 81.085938 C 283.554688 81.085938 271.796875 92.734375 271.796875 107.066406 C 271.796875 111.601562 272.972656 116.304688 275.042969 120.617188 C 277.117188 124.929688 280.082031 128.847656 283.667969 131.816406 Z M 283.667969 131.816406 " fill-opacity="1" fill-rule="nonzero"/><path fill="#26216a" d="M 178.402344 158.074219 C 189.542969 158.074219 198.558594 145.871094 198.558594 134.78125 C 198.558594 123.695312 189.542969 114.792969 178.402344 114.792969 C 167.257812 114.792969 158.242188 123.753906 158.242188 134.78125 C 158.1875 145.871094 167.257812 158.074219 178.402344 158.074219 Z M 178.402344 158.074219 " fill-opacity="1" fill-rule="nonzero"/><g clip-path="url(#2567fc5ea3)"><path fill="#26216a" d="M 204.550781 165.074219 C 204.101562 161.996094 201.804688 160.257812 198.054688 160.257812 L 192.792969 160.203125 C 192.679688 160.203125 192.566406 160.148438 192.511719 160.148438 L 164.292969 160.148438 C 164.179688 160.148438 164.066406 160.203125 163.957031 160.203125 L 158.746094 160.257812 C 154.996094 160.257812 152.699219 161.9375 152.253906 165.074219 L 141.613281 219.386719 C 141.109375 222.859375 143.40625 226.21875 146.933594 226.835938 C 150.515625 227.394531 153.820312 224.988281 154.378906 221.460938 L 155.554688 213.398438 L 155.554688 287.699219 C 155.554688 291.058594 158.355469 293.859375 161.769531 293.859375 L 168.546875 293.859375 C 171.960938 293.859375 174.707031 291.113281 174.707031 287.699219 L 174.707031 221.628906 L 182.207031 221.628906 L 182.207031 287.699219 C 182.207031 291.058594 185.007812 293.859375 188.425781 293.859375 L 195.199219 293.859375 C 198.558594 293.859375 201.359375 291.113281 201.359375 287.699219 L 201.359375 213.398438 L 202.535156 221.460938 C 203.039062 224.988281 206.398438 227.394531 209.980469 226.835938 C 213.453125 226.273438 215.804688 222.859375 215.300781 219.386719 Z M 204.550781 165.074219 " fill-opacity="1" fill-rule="nonzero"/></g><path fill="#26216a" d="M 81.589844 208.1875 C 91.949219 208.1875 100.347656 196.824219 100.347656 186.574219 C 100.347656 176.328125 91.949219 168.042969 81.589844 168.042969 C 71.230469 168.042969 62.832031 176.328125 62.832031 186.574219 C 62.832031 196.824219 71.230469 208.1875 81.589844 208.1875 Z M 81.589844 208.1875 " fill-opacity="1" fill-rule="nonzero"/><g clip-path="url(#0c7ebb90e1)"><path fill="#26216a" d="M 103.484375 217.035156 C 103.035156 214.179688 98.554688 210.203125 95.027344 210.203125 L 92.566406 210.148438 L 70.558594 210.148438 L 68.097656 210.203125 C 64.625 210.203125 60.089844 214.179688 59.640625 217.035156 L 47.378906 243.6875 C 46.875 246.9375 49.058594 250.070312 52.304688 250.632812 C 55.609375 251.191406 57.847656 248.617188 59.25 245.648438 L 62.722656 238.199219 L 58.800781 259.367188 C 58.242188 262.222656 58.183594 265.132812 58.746094 267.988281 L 62.722656 288.203125 C 62.722656 291.339844 65.296875 293.914062 68.488281 293.914062 L 74.757812 293.914062 C 77.949219 293.914062 80.527344 291.339844 80.527344 288.203125 L 76.71875 268.660156 C 76.101562 265.636719 76.160156 262.558594 76.832031 259.589844 C 78.398438 259.871094 80.023438 259.980469 81.589844 259.980469 C 83.214844 259.980469 84.78125 259.871094 86.351562 259.589844 C 87.023438 262.558594 87.078125 265.695312 86.460938 268.660156 L 82.652344 288.203125 C 82.652344 291.339844 85.230469 293.914062 88.421875 293.914062 L 94.691406 293.914062 C 97.882812 293.914062 100.460938 291.339844 100.460938 288.203125 L 104.433594 267.988281 C 104.996094 265.132812 104.996094 262.222656 104.378906 259.367188 L 100.460938 238.199219 L 103.929688 245.648438 C 105.21875 248.558594 107.515625 251.191406 110.816406 250.632812 C 114.066406 250.070312 116.195312 246.9375 115.746094 243.6875 Z M 87.132812 258.414062 L 86.910156 257.40625 C 86.574219 257.460938 86.183594 257.519531 85.847656 257.574219 C 84.445312 257.796875 82.988281 257.910156 81.589844 257.910156 C 80.191406 257.910156 78.734375 257.796875 77.335938 257.574219 C 77 257.519531 76.605469 257.460938 76.269531 257.40625 L 76.214844 257.40625 C 71.121094 256.34375 67.03125 252.589844 65.632812 247.441406 C 65.410156 246.601562 65.242188 245.816406 65.128906 244.976562 C 65.128906 244.976562 65.128906 244.976562 65.128906 244.921875 C 64.738281 241.5625 64.847656 239.488281 65.578125 238.707031 C 65.6875 238.59375 66.023438 238.199219 67.144531 238.199219 L 96.035156 238.199219 C 97.210938 238.199219 97.492188 238.539062 97.605469 238.707031 C 98.277344 239.488281 98.445312 241.5625 98.050781 244.921875 C 98.050781 244.921875 98.050781 244.976562 98.050781 244.976562 C 97.996094 245.816406 97.828125 246.601562 97.546875 247.441406 C 96.09375 252.535156 92.0625 256.34375 86.964844 257.351562 Z M 87.132812 258.414062 " fill-opacity="1" fill-rule="nonzero"/></g></svg>