<svg xmlns="http://www.w3.org/2000/svg" xmlns:xlink="http://www.w3.org/1999/xlink" width="500" zoomAndPan="magnify" viewBox="0 0 375 374.999991" height="500" preserveAspectRatio="xMidYMid meet" version="1.0"><metadata><ContainsAiGeneratedContent>Yes</ContainsAiGeneratedContent></metadata><defs><clipPath id="459a28c7c0"><path d="M 12.535156 12.535156 L 362.464844 12.535156 L 362.464844 362.464844 L 12.535156 362.464844 Z M 12.535156 12.535156 " clip-rule="nonzero"/></clipPath><clipPath id="c9cd66197a"><path d="M 187.5 12.535156 C 90.867188 12.535156 12.535156 90.867188 12.535156 187.5 C 12.535156 284.132812 90.867188 362.464844 187.5 362.464844 C 284.132812 362.464844 362.464844 284.132812 362.464844 187.5 C 362.464844 90.867188 284.132812 12.535156 187.5 12.535156 Z M 187.5 12.535156 " clip-rule="nonzero"/></clipPath></defs><g clip-path="url(#459a28c7c0)"><g clip-path="url(#c9cd66197a)"><path fill="#ffffff" d="M 12.535156 12.535156 L 362.464844 12.535156 L 362.464844 362.464844 L 12.535156 362.464844 Z M 12.535156 12.535156 " fill-opacity="1" fill-rule="nonzero"/></g></g><path fill="#448d60" d="M 107.660156 208.320312 C 112.324219 209.496094 116.515625 209.980469 120.285156 209.980469 C 136.027344 209.980469 144.472656 201.296875 149.449219 196.164062 C 149.667969 195.945312 149.855469 195.757812 150.058594 195.539062 C 150.230469 196.449219 151.015625 197.214844 152.125 197.199219 C 168.035156 196.855469 181.398438 187.453125 187.171875 182.679688 C 187.375 182.523438 187.515625 182.335938 187.625 182.132812 C 188.375 181.632812 188.953125 180.894531 189.21875 179.972656 C 189.8125 177.890625 188.609375 175.734375 186.527344 175.136719 C 168.800781 170.070312 151.71875 183.476562 146.914062 187.703125 C 145.929688 188.5625 144.914062 189.609375 143.847656 190.707031 C 137.714844 197.011719 129.3125 205.664062 109.554688 200.71875 C 87.902344 195.304688 93 168.003906 93.21875 166.847656 C 93.644531 164.734375 92.265625 162.667969 90.152344 162.246094 C 88.027344 161.824219 85.976562 163.203125 85.554688 165.3125 C 83.082031 177.65625 84.539062 202.519531 107.660156 208.304688 Z M 107.660156 208.320312 " fill-opacity="1" fill-rule="nonzero"/><path fill="#448d60" d="M 187.5 362.289062 C 284.03125 362.289062 362.289062 284.03125 362.289062 187.5 C 362.289062 90.96875 284.03125 12.710938 187.5 12.710938 C 90.96875 12.710938 12.710938 90.96875 12.710938 187.5 C 12.710938 284.03125 90.96875 362.289062 187.5 362.289062 Z M 230.710938 295.042969 C 230.382812 296.5 229.082031 297.484375 227.660156 297.484375 C 227.425781 297.484375 227.191406 297.453125 226.957031 297.40625 C 193.289062 289.738281 178.550781 274.53125 177.941406 273.875 C 176.75 272.625 176.796875 270.636719 178.050781 269.449219 C 179.300781 268.257812 181.273438 268.304688 182.460938 269.558594 C 182.679688 269.777344 196.777344 284.109375 228.332031 291.289062 C 230.023438 291.679688 231.070312 293.355469 230.695312 295.027344 Z M 278.726562 287.582031 C 273.046875 288.285156 267.554688 288.613281 262.28125 288.613281 C 198.214844 288.613281 163.5625 240.691406 163.1875 240.175781 C 162.183594 238.769531 162.527344 236.8125 163.9375 235.8125 C 165.34375 234.808594 167.300781 235.152344 168.300781 236.5625 C 168.675781 237.09375 207.210938 290.148438 277.960938 281.386719 C 279.679688 281.167969 281.246094 282.386719 281.449219 284.109375 C 281.652344 285.828125 280.449219 287.378906 278.726562 287.597656 Z M 169.851562 220.574219 C 171.304688 219.632812 173.230469 220.054688 174.167969 221.496094 C 174.292969 221.683594 184.542969 237.21875 204.847656 248.546875 C 206.351562 249.390625 206.898438 251.300781 206.054688 252.800781 C 205.476562 253.835938 204.410156 254.414062 203.316406 254.414062 C 202.800781 254.414062 202.285156 254.289062 201.796875 254.023438 C 180.050781 241.882812 169.367188 225.59375 168.929688 224.90625 C 167.988281 223.453125 168.410156 221.511719 169.851562 220.574219 Z M 311.378906 265.269531 C 313.082031 265.019531 314.679688 266.179688 314.945312 267.882812 C 315.210938 269.589844 314.039062 271.183594 312.332031 271.449219 C 299.332031 273.46875 287.644531 274.28125 277.238281 274.28125 C 233.511719 274.28125 212.390625 259.84375 211.3125 259.089844 C 209.902344 258.089844 209.558594 256.148438 210.558594 254.726562 C 211.5625 253.316406 213.5 252.972656 214.910156 253.960938 C 215.238281 254.195312 246.527344 275.316406 311.378906 265.253906 Z M 288.722656 251.363281 C 290.445312 251.097656 292.039062 252.253906 292.304688 253.960938 C 292.574219 255.664062 291.414062 257.277344 289.710938 257.542969 C 283.167969 258.574219 276.894531 259.042969 270.886719 259.042969 C 215.582031 259.042969 183.367188 219.351562 183.023438 218.914062 C 181.945312 217.570312 182.179688 215.597656 183.523438 214.519531 C 184.871094 213.4375 186.839844 213.671875 187.921875 215.019531 C 188.296875 215.488281 225.6875 261.359375 288.722656 251.363281 Z M 145.507812 25.101562 C 178.894531 68.671875 221.292969 122.242188 225.015625 127.328125 C 230.867188 135.320312 232.824219 181.273438 191.847656 195.257812 C 150.875 209.246094 147.585938 209.949219 145.648438 245.902344 C 145.648438 251.628906 147.242188 275.910156 155.207031 296.609375 C 158.695312 305.683594 159.085938 322.84375 150.433594 333.234375 C 145.804688 338.804688 141.171875 342.855469 136.917969 345.84375 C 69.519531 324.363281 20.546875 261.15625 20.546875 186.714844 C 20.546875 112.277344 73.726562 43.765625 145.523438 25.101562 Z M 145.507812 25.101562 " fill-opacity="1" fill-rule="nonzero"/></svg>