<svg xmlns="http://www.w3.org/2000/svg" xmlns:xlink="http://www.w3.org/1999/xlink" width="500" zoomAndPan="magnify" viewBox="0 0 375 374.999991" height="500" preserveAspectRatio="xMidYMid meet" version="1.0"><metadata><ContainsAiGeneratedContent>Yes</ContainsAiGeneratedContent></metadata><defs><clipPath id="79b36d41e3"><path d="M 12.535156 15.148438 L 362.464844 15.148438 L 362.464844 365.082031 L 12.535156 365.082031 Z M 12.535156 15.148438 " clip-rule="nonzero"/></clipPath><clipPath id="95d5a7b10f"><path d="M 187.5 15.148438 C 90.867188 15.148438 12.535156 93.484375 12.535156 190.117188 C 12.535156 286.746094 90.867188 365.082031 187.5 365.082031 C 284.132812 365.082031 362.464844 286.746094 362.464844 190.117188 C 362.464844 93.484375 284.132812 15.148438 187.5 15.148438 Z M 187.5 15.148438 " clip-rule="nonzero"/></clipPath><clipPath id="b62140dc30"><path d="M 235 120 L 290 120 L 290 183 L 235 183 Z M 235 120 " clip-rule="nonzero"/></clipPath><clipPath id="c3c9ea88e9"><path d="M 29.890625 145.511719 L 249.921875 49.664062 L 345.769531 269.695312 L 125.738281 365.542969 Z M 29.890625 145.511719 " clip-rule="nonzero"/></clipPath><clipPath id="4a57fff1bf"><path d="M 59.84375 214.269531 L 95.585938 296.320312 C 112.128906 334.296875 156.324219 351.671875 194.296875 335.128906 L 276.347656 299.386719 C 314.324219 282.84375 331.699219 238.652344 315.15625 200.675781 L 279.414062 118.625 C 262.871094 80.648438 218.675781 63.273438 180.703125 79.816406 L 98.652344 115.558594 C 60.675781 132.101562 43.300781 176.296875 59.84375 214.269531 Z M 59.84375 214.269531 " clip-rule="nonzero"/></clipPath><clipPath id="b8ff6ebfda"><path d="M 29.890625 145.511719 L 249.234375 49.964844 L 344.78125 269.308594 L 125.4375 364.855469 Z M 29.890625 145.511719 " clip-rule="nonzero"/></clipPath><clipPath id="c251356bd9"><path d="M 28.351562 141.972656 L 247.695312 46.425781 L 354.621094 291.898438 L 135.28125 387.445312 Z M 28.351562 141.972656 " clip-rule="nonzero"/></clipPath><clipPath id="dbeaf78931"><path d="M 227.507812 138.355469 L 278.355469 116.207031 L 303.5625 174.074219 L 252.714844 196.226562 Z M 227.507812 138.355469 " clip-rule="nonzero"/></clipPath><clipPath id="42013d9073"><path d="M 163 129 L 203 129 L 203 177 L 163 177 Z M 163 129 " clip-rule="nonzero"/></clipPath><clipPath id="06a0724297"><path d="M 29.890625 145.511719 L 249.921875 49.664062 L 345.769531 269.695312 L 125.738281 365.542969 Z M 29.890625 145.511719 " clip-rule="nonzero"/></clipPath><clipPath id="48b7593602"><path d="M 59.84375 214.269531 L 95.585938 296.320312 C 112.128906 334.296875 156.324219 351.671875 194.296875 335.128906 L 276.347656 299.386719 C 314.324219 282.84375 331.699219 238.652344 315.15625 200.675781 L 279.414062 118.625 C 262.871094 80.648438 218.675781 63.273438 180.703125 79.816406 L 98.652344 115.558594 C 60.675781 132.101562 43.300781 176.296875 59.84375 214.269531 Z M 59.84375 214.269531 " clip-rule="nonzero"/></clipPath><clipPath id="b4989d6085"><path d="M 29.890625 145.511719 L 249.234375 49.964844 L 344.78125 269.308594 L 125.4375 364.855469 Z M 29.890625 145.511719 " clip-rule="nonzero"/></clipPath><clipPath id="97b10695f7"><path d="M 28.351562 141.972656 L 247.695312 46.425781 L 354.621094 291.898438 L 135.28125 387.445312 Z M 28.351562 141.972656 " clip-rule="nonzero"/></clipPath><clipPath id="f984f69d2e"><path d="M 53 141 L 322 141 L 322 342 L 53 342 Z M 53 141 " clip-rule="nonzero"/></clipPath><clipPath id="5b7d5b473e"><path d="M 29.890625 145.511719 L 249.921875 49.664062 L 345.769531 269.695312 L 125.738281 365.542969 Z M 29.890625 145.511719 " clip-rule="nonzero"/></clipPath><clipPath id="552cc089c6"><path d="M 59.84375 214.269531 L 95.585938 296.320312 C 112.128906 334.296875 156.324219 351.671875 194.296875 335.128906 L 276.347656 299.386719 C 314.324219 282.84375 331.699219 238.652344 315.15625 200.675781 L 279.414062 118.625 C 262.871094 80.648438 218.675781 63.273438 180.703125 79.816406 L 98.652344 115.558594 C 60.675781 132.101562 43.300781 176.296875 59.84375 214.269531 Z M 59.84375 214.269531 " clip-rule="nonzero"/></clipPath><clipPath id="1a080e1c4c"><path d="M 29.890625 145.511719 L 249.234375 49.964844 L 344.78125 269.308594 L 125.4375 364.855469 Z M 29.890625 145.511719 " clip-rule="nonzero"/></clipPath><clipPath id="3704a21fa5"><path d="M 28.351562 141.972656 L 247.695312 46.425781 L 354.621094 291.898438 L 135.28125 387.445312 Z M 28.351562 141.972656 " clip-rule="nonzero"/></clipPath><clipPath id="5ee5462fb0"><path d="M 279 188 L 312 188 L 312 230 L 279 230 Z M 279 188 " clip-rule="nonzero"/></clipPath><clipPath id="e081938b4b"><path d="M 29.890625 145.511719 L 249.921875 49.664062 L 345.769531 269.695312 L 125.738281 365.542969 Z M 29.890625 145.511719 " clip-rule="nonzero"/></clipPath><clipPath id="e975c2bc09"><path d="M 59.84375 214.269531 L 95.585938 296.320312 C 112.128906 334.296875 156.324219 351.671875 194.296875 335.128906 L 276.347656 299.386719 C 314.324219 282.84375 331.699219 238.652344 315.15625 200.675781 L 279.414062 118.625 C 262.871094 80.648438 218.675781 63.273438 180.703125 79.816406 L 98.652344 115.558594 C 60.675781 132.101562 43.300781 176.296875 59.84375 214.269531 Z M 59.84375 214.269531 " clip-rule="nonzero"/></clipPath><clipPath id="0e74e15106"><path d="M 29.890625 145.511719 L 249.234375 49.964844 L 344.78125 269.308594 L 125.4375 364.855469 Z M 29.890625 145.511719 " clip-rule="nonzero"/></clipPath><clipPath id="a936e98aa9"><path d="M 28.351562 141.972656 L 247.695312 46.425781 L 354.621094 291.898438 L 135.28125 387.445312 Z M 28.351562 141.972656 " clip-rule="nonzero"/></clipPath><clipPath id="cffa75ece4"><path d="M 92 113 L 124 113 L 124 153 L 92 153 Z M 92 113 " clip-rule="nonzero"/></clipPath><clipPath id="f0dd0d970b"><path d="M 29.890625 145.511719 L 249.921875 49.664062 L 345.769531 269.695312 L 125.738281 365.542969 Z M 29.890625 145.511719 " clip-rule="nonzero"/></clipPath><clipPath id="4cc78337b3"><path d="M 59.84375 214.269531 L 95.585938 296.320312 C 112.128906 334.296875 156.324219 351.671875 194.296875 335.128906 L 276.347656 299.386719 C 314.324219 282.84375 331.699219 238.652344 315.15625 200.675781 L 279.414062 118.625 C 262.871094 80.648438 218.675781 63.273438 180.703125 79.816406 L 98.652344 115.558594 C 60.675781 132.101562 43.300781 176.296875 59.84375 214.269531 Z M 59.84375 214.269531 " clip-rule="nonzero"/></clipPath><clipPath id="36f38a5786"><path d="M 29.890625 145.511719 L 249.234375 49.964844 L 344.78125 269.308594 L 125.4375 364.855469 Z M 29.890625 145.511719 " clip-rule="nonzero"/></clipPath><clipPath id="18a5e23924"><path d="M 28.351562 141.972656 L 247.695312 46.425781 L 354.621094 291.898438 L 135.28125 387.445312 Z M 28.351562 141.972656 " clip-rule="nonzero"/></clipPath></defs><g clip-path="url(#79b36d41e3)"><g clip-path="url(#95d5a7b10f)"><path fill="#deeddc" d="M 12.535156 15.148438 L 362.464844 15.148438 L 362.464844 365.082031 L 12.535156 365.082031 Z M 12.535156 15.148438 " fill-opacity="1" fill-rule="nonzero"/></g></g><g clip-path="url(#b62140dc30)"><g clip-path="url(#c3c9ea88e9)"><g clip-path="url(#4a57fff1bf)"><g clip-path="url(#b8ff6ebfda)"><g clip-path="url(#c251356bd9)"><g clip-path="url(#dbeaf78931)"><path fill="#448d60" d="M 283.015625 182.488281 L 289.28125 141.292969 L 270.042969 120.046875 L 254.535156 133.941406 L 235.191406 155.664062 L 248.21875 173.195312 L 283.015625 182.488281 " fill-opacity="1" fill-rule="nonzero"/></g></g></g></g></g></g><g clip-path="url(#42013d9073)"><g clip-path="url(#06a0724297)"><g clip-path="url(#48b7593602)"><g clip-path="url(#b4989d6085)"><g clip-path="url(#97b10695f7)"><path fill="#448d60" d="M 202.707031 168.121094 L 194.777344 129.628906 L 169.910156 141.710938 L 163.179688 157.492188 L 177.460938 176.886719 L 202.707031 168.121094 " fill-opacity="1" fill-rule="nonzero"/></g></g></g></g></g><g clip-path="url(#f984f69d2e)"><g clip-path="url(#5b7d5b473e)"><g clip-path="url(#552cc089c6)"><g clip-path="url(#1a080e1c4c)"><g clip-path="url(#3704a21fa5)"><path fill="#448d60" d="M 292.996094 245.96875 L 293.4375 257.734375 L 251.949219 275.273438 L 229.402344 310.53125 L 249.015625 271.375 L 284.464844 251.738281 L 282.523438 243.835938 L 247.496094 200.550781 L 213.683594 217.242188 L 192.335938 201.910156 L 180.242188 205.394531 L 182.980469 220.800781 L 190.953125 241.335938 L 139.109375 266.953125 L 184.671875 237.464844 L 169.777344 217.269531 L 171.652344 207.976562 L 171.578125 208.007812 L 141.898438 164.621094 L 111.214844 182.628906 L 110.871094 192.59375 L 118.066406 203.027344 L 110.121094 227.996094 L 110.710938 204.800781 L 100.734375 194.066406 L 99.207031 172.507812 L 80.199219 150.980469 L 65.679688 153.558594 L 62.660156 158.796875 L 72.074219 169.246094 L 69.28125 195.898438 L 65.425781 166.964844 L 56.523438 158.707031 L 57.007812 154.746094 L 28.589844 142.046875 L 28.378906 141.960938 L 135.390625 387.625 L 149.652344 381.414062 L 157.203125 368.128906 L 146.277344 341.828125 L 168.0625 306.640625 L 154.863281 342.464844 L 164.828125 360.882812 L 151.730469 380.507812 L 265.433594 330.976562 L 267.628906 310.65625 L 291.304688 290.972656 L 273.238281 313.390625 L 275.757812 326.480469 L 337.550781 299.5625 L 307.976562 247.296875 L 292.996094 245.96875 " fill-opacity="1" fill-rule="nonzero"/></g></g></g></g></g><g clip-path="url(#5ee5462fb0)"><g clip-path="url(#e081938b4b)"><g clip-path="url(#e975c2bc09)"><g clip-path="url(#0e74e15106)"><g clip-path="url(#a936e98aa9)"><path fill="#448d60" d="M 279.515625 206.503906 L 282.390625 224.261719 L 305.285156 229.550781 L 311.578125 200.390625 L 292.339844 188.066406 L 279.515625 206.503906 " fill-opacity="1" fill-rule="nonzero"/></g></g></g></g></g><g clip-path="url(#cffa75ece4)"><g clip-path="url(#f0dd0d970b)"><g clip-path="url(#4cc78337b3)"><g clip-path="url(#36f38a5786)"><g clip-path="url(#18a5e23924)"><path fill="#448d60" d="M 118.527344 148.296875 L 123.328125 126.660156 L 107.960938 113.898438 L 100.597656 123.976562 L 92.738281 139.003906 L 104.785156 152.050781 L 118.527344 148.296875 " fill-opacity="1" fill-rule="nonzero"/></g></g></g></g></g></svg>