<svg xmlns="http://www.w3.org/2000/svg" xmlns:xlink="http://www.w3.org/1999/xlink" width="500" zoomAndPan="magnify" viewBox="0 0 375 374.999991" height="500" preserveAspectRatio="xMidYMid meet" version="1.0"><metadata><ContainsAiGeneratedContent>Yes</ContainsAiGeneratedContent></metadata><defs><clipPath id="dbcc24c035"><path d="M 12.535156 12.535156 L 362.464844 12.535156 L 362.464844 362.464844 L 12.535156 362.464844 Z M 12.535156 12.535156 " clip-rule="nonzero"/></clipPath><clipPath id="0e10464f15"><path d="M 187.5 12.535156 C 90.867188 12.535156 12.535156 90.867188 12.535156 187.5 C 12.535156 284.132812 90.867188 362.464844 187.5 362.464844 C 284.132812 362.464844 362.464844 284.132812 362.464844 187.5 C 362.464844 90.867188 284.132812 12.535156 187.5 12.535156 Z M 187.5 12.535156 " clip-rule="nonzero"/></clipPath></defs><g clip-path="url(#dbcc24c035)"><g clip-path="url(#0e10464f15)"><path fill="#ffffff" d="M 12.535156 12.535156 L 362.464844 12.535156 L 362.464844 362.464844 L 12.535156 362.464844 Z M 12.535156 12.535156 " fill-opacity="1" fill-rule="nonzero"/></g></g><path fill="#448d60" d="M 219.996094 336.132812 L 215.664062 336.132812 L 214.097656 338.644531 L 219.609375 344.523438 L 222.695312 344.523438 L 225.03125 342 L 225.8125 339.492188 L 224.246094 336.980469 Z M 219.996094 336.132812 " fill-opacity="1" fill-rule="nonzero"/><path fill="#448d60" d="M 281.902344 313.402344 L 279.871094 317.222656 L 278.609375 321.378906 L 280.574219 323.601562 L 287.785156 320.023438 L 288.679688 317.082031 L 286.953125 314.109375 L 284.761719 312.636719 Z M 281.902344 313.402344 " fill-opacity="1" fill-rule="nonzero"/><path fill="#448d60" d="M 258.292969 309.34375 L 253.769531 310.621094 L 253.546875 314.265625 L 254.265625 316.601562 L 257.6875 318.359375 L 263.632812 317.480469 L 265.996094 315.113281 L 264.113281 310.542969 Z M 258.292969 309.34375 " fill-opacity="1" fill-rule="nonzero"/><path fill="#448d60" d="M 236.28125 321.636719 L 233.324219 324.242188 L 232.847656 331.113281 L 239.734375 331.113281 L 243.570312 333.863281 L 246.144531 331.113281 L 246.144531 324.242188 L 241.015625 321.492188 Z M 236.28125 321.636719 " fill-opacity="1" fill-rule="nonzero"/><path fill="#448d60" d="M 187.5 8.921875 C 88.875 8.921875 8.921875 88.875 8.921875 187.496094 C 8.921875 286.117188 88.875 366.070312 187.5 366.070312 C 286.121094 366.070312 366.074219 286.117188 366.074219 187.496094 C 366.074219 88.875 286.121094 8.921875 187.5 8.921875 Z M 50.816406 261.773438 L 45.734375 257.265625 L 48.261719 255.460938 L 52.464844 254.566406 L 55.003906 254.566406 L 55.820312 259.074219 L 50.832031 261.773438 Z M 67.695312 244.640625 L 69.375 241.9375 L 74.027344 241.9375 L 78.597656 242.832031 L 80.277344 245.535156 L 79.429688 248.238281 L 76.902344 250.9375 L 73.59375 250.9375 L 67.664062 244.625 Z M 70.078125 278.078125 L 75.386719 273.410156 L 83.855469 273.15625 L 93.03125 278.078125 L 93.03125 290.402344 L 88.445312 295.324219 L 81.554688 290.402344 L 69.214844 290.402344 L 70.09375 278.078125 Z M 261.488281 340.402344 C 239.097656 351.160156 214 357.183594 187.5 357.183594 C 160.996094 357.183594 135.902344 351.160156 113.507812 340.402344 C 97.300781 332.570312 82.515625 322.242188 69.664062 309.933594 C 87.453125 309.933594 100.785156 310.398438 114.195312 309.933594 C 132.65625 309.3125 137.003906 295.277344 163.058594 295.277344 C 189.113281 295.277344 195.636719 301.800781 222.488281 302.101562 C 249.34375 302.40625 244.5 303.429688 270.570312 300.167969 C 282.03125 298.730469 298.476562 299.257812 313.933594 301.097656 C 299.210938 317.351562 281.421875 330.761719 261.472656 340.402344 Z M 105.644531 245.839844 L 100.5625 241.332031 L 103.085938 239.523438 L 107.289062 238.628906 L 109.832031 238.628906 L 110.648438 243.136719 L 105.660156 245.839844 Z M 116.113281 266.234375 L 120.316406 269.847656 L 119.46875 273.460938 L 114.609375 277.40625 L 110.582031 277.40625 L 108.664062 275.441406 L 106.875 271.667969 L 110.230469 268.058594 L 116.113281 266.25 Z M 136.238281 273.410156 L 150.785156 273.347656 L 151.820312 278.910156 L 146.082031 285.078125 L 139.402344 290.035156 L 134.222656 288.917969 L 132.144531 284.472656 L 132.144531 277.808594 L 136.222656 273.425781 Z M 132.160156 247.660156 L 132.160156 246.046875 L 134.03125 245.648438 L 136.046875 243.488281 L 137.773438 245.648438 L 137.613281 247.339844 L 136.269531 248.859375 L 134.03125 249.660156 L 132.160156 247.644531 Z M 156.585938 248.84375 L 159.941406 245.230469 L 165.824219 243.425781 L 170.027344 247.023438 L 169.179688 250.632812 L 164.320312 254.582031 L 160.292969 254.582031 L 158.375 252.617188 Z M 171.625 267.320312 L 173.304688 264.621094 L 177.957031 264.621094 L 182.527344 265.515625 L 184.207031 268.214844 L 183.359375 270.917969 L 180.832031 273.621094 L 177.523438 273.621094 L 171.59375 267.304688 Z M 203.515625 279.933594 L 202.667969 283.546875 L 197.808594 287.492188 L 193.78125 287.492188 L 191.863281 285.527344 L 190.074219 281.753906 L 193.429688 278.144531 L 199.3125 276.335938 L 203.515625 279.949219 Z M 200.542969 253.6875 L 200.542969 251.273438 L 202.011719 249.691406 L 207.269531 249.691406 C 207.269531 249.691406 207.640625 251.671875 207.640625 251.671875 L 205.5625 253.894531 L 203.148438 255.683594 L 201.277344 255.285156 L 200.527344 253.671875 Z M 219.707031 257.921875 L 221.386719 255.222656 L 226.035156 255.222656 L 230.609375 256.117188 L 232.285156 258.816406 L 231.441406 261.519531 L 228.914062 264.21875 L 225.605469 264.21875 L 219.675781 257.90625 Z M 244.625 272.019531 L 249.886719 272.644531 L 252.539062 276.542969 L 253.433594 282.632812 L 249.996094 286.949219 L 235.628906 288.101562 L 233.851562 283.097656 L 238.695312 277.039062 Z M 243.429688 245.984375 L 243.429688 244.367188 L 245.296875 243.96875 L 247.3125 241.8125 L 249.039062 243.96875 L 248.878906 245.664062 L 247.535156 247.179688 L 245.296875 247.980469 L 243.429688 245.964844 Z M 275.746094 252.808594 L 270.664062 248.300781 L 273.191406 246.492188 L 277.394531 245.597656 L 279.9375 245.597656 L 280.75 250.105469 L 275.765625 252.808594 Z M 283.996094 263.886719 L 285.675781 266.585938 L 284.828125 269.289062 L 282.300781 271.988281 L 278.992188 271.988281 L 273.0625 265.675781 L 274.742188 262.972656 L 279.390625 262.972656 L 283.964844 263.867188 Z M 270.777344 288.949219 L 268.699219 291.171875 L 266.285156 292.960938 L 264.414062 292.5625 L 263.664062 290.945312 L 263.664062 288.53125 L 265.132812 286.949219 L 270.394531 286.949219 C 270.394531 286.949219 270.761719 288.933594 270.761719 288.933594 Z M 313.917969 283.226562 L 309.058594 287.175781 L 305.03125 287.175781 L 303.113281 285.207031 L 301.324219 281.4375 L 304.679688 277.824219 L 310.5625 276.015625 L 314.765625 279.628906 L 313.917969 283.242188 Z M 299.5625 245.328125 L 302.089844 243.519531 L 306.292969 242.625 L 308.835938 242.625 L 309.652344 247.132812 L 304.664062 249.835938 L 299.582031 245.328125 Z M 337.382812 250.746094 L 332.492188 260.191406 L 323.683594 261.246094 L 320.742188 255.988281 L 322.117188 245.3125 L 326.816406 240.277344 L 331.195312 240.164062 L 337.367188 242.339844 L 337.367188 250.746094 Z M 322.40625 173.652344 C 326.355469 159.828125 339.011719 147.136719 339.011719 147.136719 C 330.941406 155.207031 328.75 165.964844 328.480469 174.355469 C 347.339844 177.15625 356.117188 184.011719 358.113281 185.769531 C 358.113281 186.089844 358.113281 186.410156 358.113281 186.746094 C 358.113281 203.671875 355.621094 220.039062 351 235.496094 C 341.714844 233.132812 330.527344 231.566406 327.21875 231.40625 C 318.699219 231.003906 278.738281 235.066406 257.558594 235.066406 C 236.378906 235.066406 236.378906 223.667969 215.199219 223.667969 C 194.019531 223.667969 180.992188 231.820312 164.304688 233.851562 C 147.617188 235.878906 130.5 233.449219 116.609375 233.851562 C 102.71875 234.25 101.183594 230.191406 71.871094 230.191406 C 57.929688 230.191406 38.988281 237.765625 25.769531 240.964844 C 20.046875 223.925781 16.929688 205.703125 16.929688 186.746094 C 16.929688 186.410156 16.929688 186.089844 16.929688 185.769531 C 18.722656 184.171875 26.3125 178.449219 47.429688 173.175781 C 53.597656 171.640625 58.585938 171.464844 63.0625 171.878906 C 63.84375 160.800781 62.789062 142.054688 49.601562 128.851562 C 49.601562 128.851562 69.40625 148.65625 72.238281 168.476562 C 72.238281 168.476562 68.753906 107.449219 84.640625 81.359375 C 84.640625 81.359375 75.179688 146.289062 83.554688 175.140625 C 85.984375 175.269531 88.558594 175.203125 91.386719 174.789062 C 102.496094 173.191406 106.140625 167.578125 115.121094 164.847656 C 122.378906 143.300781 114.738281 90.792969 114.738281 90.792969 C 127.046875 110.996094 124.34375 158.277344 124.34375 158.277344 C 126.535156 142.933594 141.878906 127.585938 141.878906 127.585938 C 130.867188 138.601562 130.785156 154.648438 131.617188 162.832031 C 141.945312 161.808594 149.984375 159.890625 156.664062 157.863281 C 157.671875 148.144531 164.210938 131.902344 164.210938 131.902344 C 162.101562 148.847656 168.445312 153.003906 169.4375 153.546875 C 169.5 153.53125 169.566406 153.496094 169.628906 153.480469 C 176.421875 137.195312 171.097656 73.800781 171.097656 73.800781 C 180.273438 98.289062 180.144531 134.1875 180.144531 134.1875 C 182.320312 122.710938 194.035156 104.363281 194.035156 104.363281 C 184.863281 118.125 184.238281 150.347656 184.238281 150.347656 C 185.902344 138.921875 196.339844 133.566406 196.339844 133.566406 C 193.171875 140.453125 192.199219 146.226562 192.261719 150.796875 C 205.546875 152.347656 213.921875 157.542969 221.640625 161.585938 C 221.882812 156.855469 221.003906 150.765625 217.597656 143.347656 C 217.597656 143.347656 228.019531 153.210938 229.699219 164.65625 C 229.699219 164.65625 229.074219 127.90625 219.898438 114.144531 C 219.898438 114.144531 231.632812 132.496094 233.789062 143.972656 C 233.789062 143.972656 233.660156 108.070312 242.835938 83.582031 C 242.835938 83.582031 233.902344 149.054688 240.277344 166.238281 C 240.773438 166.15625 241.285156 166.0625 241.84375 165.949219 C 244.769531 163.519531 251.546875 156.199219 249.726562 141.6875 C 249.726562 141.6875 256.039062 154.34375 256.550781 163.488281 C 260.195312 163.105469 263.886719 162.976562 267.308594 163.40625 C 273.015625 164.128906 276.453125 165.644531 279.664062 167.324219 C 280.480469 156.296875 279.550781 137.304688 266.238281 123.992188 C 266.238281 123.992188 286.042969 143.796875 288.871094 163.617188 C 288.871094 163.617188 285.386719 102.589844 301.273438 76.5 C 301.273438 76.5 291.0625 146.527344 301.242188 173.460938 C 304.246094 173.398438 307.683594 173.207031 311.296875 173.207031 C 312.398438 173.207031 313.472656 173.207031 314.527344 173.238281 C 317.402344 148.621094 311.839844 110.386719 311.839844 110.386719 C 321.910156 126.933594 321.941406 161.585938 321.605469 173.621094 C 321.863281 173.636719 322.117188 173.671875 322.375 173.6875 Z M 322.40625 173.652344 " fill-opacity="1" fill-rule="nonzero"/><path fill="#448d60" d="M 163.058594 331.753906 L 159.285156 331.066406 L 153.851562 333.625 L 152.253906 336.582031 L 155.402344 340.402344 L 161.316406 339.875 L 165.265625 337.347656 L 164.433594 333.785156 Z M 163.058594 331.753906 " fill-opacity="1" fill-rule="nonzero"/><path fill="#448d60" d="M 173.527344 306.402344 L 170.285156 308.289062 L 168.300781 314.875 L 172.394531 318.984375 L 176.964844 320.214844 L 180.546875 318.582031 L 183.007812 312.140625 L 176.421875 310.144531 Z M 173.527344 306.402344 " fill-opacity="1" fill-rule="nonzero"/><path fill="#448d60" d="M 136.460938 316.664062 L 136.460938 319.734375 L 138.972656 322.082031 L 141.480469 322.867188 L 143.988281 321.300781 L 144.835938 317.046875 L 144.835938 312.714844 L 142.328125 311.148438 Z M 136.460938 316.664062 " fill-opacity="1" fill-rule="nonzero"/><path fill="#448d60" d="M 195.074219 327.261719 L 190.9375 331.515625 L 189.578125 336.003906 L 192.519531 338.164062 L 194.882812 338.820312 L 198.207031 336.886719 L 200.671875 331.402344 L 199.949219 328.125 Z M 195.074219 327.261719 " fill-opacity="1" fill-rule="nonzero"/><path fill="#448d60" d="M 111.558594 320.675781 L 108.953125 323.488281 L 108.167969 329.453125 L 109.816406 332.378906 L 114.722656 331.800781 L 117.457031 326.527344 L 117.457031 321.828125 L 114.003906 320.628906 Z M 111.558594 320.675781 " fill-opacity="1" fill-rule="nonzero"/><path fill="#448d60" d="M 218.042969 321.171875 L 214.480469 313.949219 L 211.523438 313.070312 L 208.566406 314.792969 L 207.078125 316.96875 L 207.847656 319.828125 L 211.683594 321.859375 L 215.824219 323.121094 Z M 218.042969 321.171875 " fill-opacity="1" fill-rule="nonzero"/></svg>