<svg xmlns="http://www.w3.org/2000/svg" xmlns:xlink="http://www.w3.org/1999/xlink" width="500" zoomAndPan="magnify" viewBox="0 0 375 374.999991" height="500" preserveAspectRatio="xMidYMid meet" version="1.0"><metadata><ContainsAiGeneratedContent>Yes</ContainsAiGeneratedContent></metadata><defs><clipPath id="3263ec252c"><path d="M 13.285156 13.648438 L 363.214844 13.648438 L 363.214844 363.582031 L 13.285156 363.582031 Z M 13.285156 13.648438 " clip-rule="nonzero"/></clipPath><clipPath id="dd0988916f"><path d="M 188.25 13.648438 C 91.617188 13.648438 13.285156 91.984375 13.285156 188.617188 C 13.285156 285.246094 91.617188 363.582031 188.25 363.582031 C 284.882812 363.582031 363.214844 285.246094 363.214844 188.617188 C 363.214844 91.984375 284.882812 13.648438 188.25 13.648438 Z M 188.25 13.648438 " clip-rule="nonzero"/></clipPath><clipPath id="5c6ea5c504"><path d="M 69.214844 152 L 305.679688 152 L 305.679688 293.617188 L 69.214844 293.617188 Z M 69.214844 152 " clip-rule="nonzero"/></clipPath></defs><rect x="-37.5" width="450" fill="#ffffff" y="-37.499999" height="449.999989" fill-opacity="1"/><rect x="-37.5" width="450" fill="#ffffff" y="-37.499999" height="449.999989" fill-opacity="1"/><g clip-path="url(#3263ec252c)"><g clip-path="url(#dd0988916f)"><path fill="#cdc9e0" d="M 13.285156 13.648438 L 363.214844 13.648438 L 363.214844 363.582031 L 13.285156 363.582031 Z M 13.285156 13.648438 " fill-opacity="1" fill-rule="nonzero"/></g></g><g clip-path="url(#5c6ea5c504)"><path fill="#26216a" d="M 257.898438 159.203125 C 265.984375 158.90625 272.765625 165.230469 273.082031 173.316406 C 273.082031 173.460938 273.082031 173.589844 273.082031 173.734375 L 273.082031 273.851562 C 273.019531 281.960938 266.425781 288.46875 258.316406 288.40625 C 250.316406 288.34375 243.828125 281.875 243.785156 273.851562 L 243.785156 173.734375 C 243.828125 165.902344 250.0625 159.496094 257.898438 159.203125 Z M 185.503906 159.203125 C 193.589844 158.90625 200.375 165.230469 200.6875 173.316406 C 200.6875 173.460938 200.6875 173.589844 200.6875 173.734375 L 200.6875 273.851562 C 200.625 281.960938 194.03125 288.46875 185.921875 288.40625 C 177.921875 288.34375 171.433594 281.875 171.390625 273.851562 L 171.390625 173.734375 C 171.433594 165.902344 177.648438 159.496094 185.503906 159.203125 Z M 113.109375 159.203125 C 121.195312 158.90625 128 165.230469 128.273438 173.316406 C 128.292969 173.460938 128.292969 173.609375 128.292969 173.734375 L 128.292969 273.851562 C 128.230469 281.960938 121.636719 288.46875 113.527344 288.40625 C 105.527344 288.34375 99.039062 281.875 98.996094 273.851562 L 98.996094 173.734375 C 99.039062 165.902344 105.277344 159.496094 113.109375 159.203125 Z M 221.816406 159.074219 C 229.902344 158.84375 236.644531 165.207031 236.875 173.316406 C 236.875 173.441406 236.875 173.589844 236.875 173.734375 L 236.875 273.851562 C 236.789062 281.9375 230.152344 288.429688 222.046875 288.324219 C 214.109375 288.238281 207.683594 281.8125 207.578125 273.851562 L 207.578125 173.734375 C 207.578125 165.796875 213.878906 159.308594 221.816406 159.074219 Z M 149.402344 159.074219 C 157.507812 158.84375 164.25 165.207031 164.480469 173.316406 C 164.480469 173.441406 164.480469 173.589844 164.480469 173.734375 L 164.480469 273.851562 C 164.394531 281.9375 157.761719 288.429688 149.675781 288.324219 C 141.714844 288.238281 135.265625 281.8125 135.183594 273.851562 L 135.183594 173.734375 C 135.183594 165.796875 141.484375 159.308594 149.402344 159.074219 Z M 298.136719 152.039062 C 294.273438 152.1875 291.1875 155.359375 291.164062 159.222656 L 291.164062 179.320312 L 278.226562 179.320312 L 278.226562 173.734375 C 278.226562 162.792969 269.363281 153.929688 258.421875 153.929688 C 250.589844 153.929688 243.511719 158.550781 240.339844 165.710938 C 235.910156 155.714844 224.210938 151.199219 214.214844 155.632812 C 209.71875 157.625 206.128906 161.21875 204.132812 165.710938 C 199.699219 155.714844 188.003906 151.199219 178.007812 155.632812 C 173.511719 157.625 169.921875 161.21875 167.925781 165.710938 C 163.492188 155.714844 151.816406 151.199219 141.820312 155.632812 C 137.324219 157.625 133.734375 161.21875 131.738281 165.710938 C 127.308594 155.714844 115.609375 151.199219 105.613281 155.632812 C 98.449219 158.804688 93.851562 165.902344 93.851562 173.734375 L 93.851562 179.320312 L 76.375 179.320312 C 72.363281 179.386719 69.152344 182.683594 69.214844 186.671875 C 69.277344 190.601562 72.429688 193.769531 76.375 193.835938 L 93.851562 193.835938 L 93.851562 273.851562 C 93.851562 284.792969 102.714844 293.65625 113.632812 293.65625 C 121.46875 293.65625 128.566406 289.039062 131.738281 281.875 C 136.167969 291.871094 147.867188 296.386719 157.863281 291.957031 C 162.359375 289.960938 165.949219 286.371094 167.925781 281.875 C 172.355469 291.871094 184.054688 296.386719 194.050781 291.957031 C 198.546875 289.960938 202.136719 286.371094 204.132812 281.875 C 208.5625 291.871094 220.261719 296.386719 230.257812 291.957031 C 234.753906 289.960938 238.34375 286.371094 240.339844 281.875 C 244.773438 291.871094 256.449219 296.386719 266.445312 291.957031 C 273.609375 288.785156 278.226562 281.6875 278.226562 273.851562 L 278.226562 193.835938 L 300.132812 193.835938 C 303.199219 193.835938 305.679688 191.335938 305.679688 188.269531 L 305.679688 159.222656 C 305.636719 155.210938 302.359375 152 298.347656 152.039062 C 298.285156 152.039062 298.203125 152.039062 298.136719 152.039062 " fill-opacity="1" fill-rule="nonzero"/></g><path fill="#26216a" d="M 231.097656 132.507812 C 231.730469 131.6875 231.8125 130.597656 231.308594 129.695312 C 229.691406 126.902344 228.746094 123.769531 228.601562 120.535156 C 227.425781 114.59375 229.230469 108.441406 233.410156 104.050781 C 238.722656 95.3125 240.171875 84.792969 237.421875 74.941406 C 235.65625 69.542969 229.859375 66.625 224.460938 68.386719 C 224.441406 68.410156 224.421875 68.410156 224.398438 68.410156 C 222.78125 69.164062 222.089844 71.078125 222.84375 72.695312 C 222.84375 72.734375 222.867188 72.757812 222.886719 72.800781 C 227.824219 80.296875 227.046875 90.167969 221.039062 96.824219 C 216.375 103.042969 213.960938 110.644531 214.191406 118.394531 C 214.402344 124.988281 218.140625 130.933594 223.957031 134 C 226.394531 135.386719 229.480469 134.734375 231.164062 132.507812 L 231.097656 132.507812 " fill-opacity="1" fill-rule="nonzero"/><path fill="#26216a" d="M 189.242188 137.675781 C 188.316406 135.828125 187.625 133.851562 187.226562 131.816406 C 185.042969 124.546875 186.425781 116.671875 190.984375 110.601562 C 196.027344 104.597656 199.15625 97.203125 199.953125 89.410156 C 201.003906 82.167969 199.972656 74.773438 196.992188 68.09375 C 194.535156 63.347656 188.988281 61.058594 183.90625 62.738281 C 182.5625 63.179688 181.847656 64.609375 182.289062 65.953125 C 182.3125 66.015625 182.332031 66.097656 182.375 66.183594 C 186.867188 76.285156 186.175781 87.960938 180.484375 97.457031 C 174.5 105.582031 171.242188 115.371094 171.179688 125.472656 C 170.046875 133.894531 175.003906 141.960938 183.023438 144.730469 C 185.691406 145.65625 188.570312 144.25 189.492188 141.601562 C 189.933594 140.320312 189.851562 138.894531 189.242188 137.675781 " fill-opacity="1" fill-rule="nonzero"/><path fill="#26216a" d="M 145.703125 68.410156 C 144.085938 69.164062 143.394531 71.078125 144.152344 72.695312 C 144.171875 72.734375 144.191406 72.757812 144.191406 72.800781 C 149.128906 80.296875 148.351562 90.1875 142.324219 96.824219 C 137.683594 103.042969 135.265625 110.644531 135.476562 118.394531 C 135.6875 124.988281 139.425781 130.933594 145.261719 134 C 147.699219 135.386719 150.765625 134.734375 152.445312 132.507812 C 153.078125 131.6875 153.160156 130.597656 152.65625 129.695312 C 151.019531 126.902344 150.09375 123.769531 149.925781 120.535156 C 148.769531 114.59375 150.554688 108.441406 154.734375 104.050781 C 160.050781 95.3125 161.5 84.792969 158.769531 74.941406 C 156.984375 69.566406 151.1875 66.625 145.808594 68.386719 C 145.789062 68.410156 145.746094 68.410156 145.726562 68.410156 L 145.703125 68.410156 " fill-opacity="1" fill-rule="nonzero"/></svg>