<svg xmlns="http://www.w3.org/2000/svg" xmlns:xlink="http://www.w3.org/1999/xlink" width="500" zoomAndPan="magnify" viewBox="0 0 375 374.999991" height="500" preserveAspectRatio="xMidYMid meet" version="1.0"><metadata><ContainsAiGeneratedContent>Yes</ContainsAiGeneratedContent></metadata><defs><clipPath id="016e174440"><path d="M 9.527344 12.535156 L 359.457031 12.535156 L 359.457031 362.464844 L 9.527344 362.464844 Z M 9.527344 12.535156 " clip-rule="nonzero"/></clipPath><clipPath id="a1fab38699"><path d="M 184.492188 12.535156 C 87.859375 12.535156 9.527344 90.867188 9.527344 187.5 C 9.527344 284.132812 87.859375 362.464844 184.492188 362.464844 C 281.125 362.464844 359.457031 284.132812 359.457031 187.5 C 359.457031 90.867188 281.125 12.535156 184.492188 12.535156 Z M 184.492188 12.535156 " clip-rule="nonzero"/></clipPath><clipPath id="fc4d2600e8"><path d="M 55.398438 63.585938 L 237 63.585938 L 237 311.085938 L 55.398438 311.085938 Z M 55.398438 63.585938 " clip-rule="nonzero"/></clipPath><clipPath id="547b43014b"><path d="M 55.398438 124.335938 L 55.398438 250.664062 C 55.398438 284.214844 82.597656 311.414062 116.148438 311.414062 L 261.851562 311.414062 C 295.402344 311.414062 322.601562 284.214844 322.601562 250.664062 L 322.601562 124.335938 C 322.601562 90.785156 295.402344 63.585938 261.851562 63.585938 L 116.148438 63.585938 C 82.597656 63.585938 55.398438 90.785156 55.398438 124.335938 Z M 55.398438 124.335938 " clip-rule="nonzero"/></clipPath><clipPath id="89c87d6cad"><path d="M 160 130 L 209 130 L 209 178 L 160 178 Z M 160 130 " clip-rule="nonzero"/></clipPath><clipPath id="d004fa529c"><path d="M 55.398438 124.335938 L 55.398438 250.664062 C 55.398438 284.214844 82.597656 311.414062 116.148438 311.414062 L 261.851562 311.414062 C 295.402344 311.414062 322.601562 284.214844 322.601562 250.664062 L 322.601562 124.335938 C 322.601562 90.785156 295.402344 63.585938 261.851562 63.585938 L 116.148438 63.585938 C 82.597656 63.585938 55.398438 90.785156 55.398438 124.335938 Z M 55.398438 124.335938 " clip-rule="nonzero"/></clipPath><clipPath id="c3c23e71e1"><path d="M 208 187 L 256 187 L 256 236 L 208 236 Z M 208 187 " clip-rule="nonzero"/></clipPath><clipPath id="bf3034d72d"><path d="M 55.398438 124.335938 L 55.398438 250.664062 C 55.398438 284.214844 82.597656 311.414062 116.148438 311.414062 L 261.851562 311.414062 C 295.402344 311.414062 322.601562 284.214844 322.601562 250.664062 L 322.601562 124.335938 C 322.601562 90.785156 295.402344 63.585938 261.851562 63.585938 L 116.148438 63.585938 C 82.597656 63.585938 55.398438 90.785156 55.398438 124.335938 Z M 55.398438 124.335938 " clip-rule="nonzero"/></clipPath><clipPath id="c867f1fd45"><path d="M 246 282 L 294 282 L 294 311.085938 L 246 311.085938 Z M 246 282 " clip-rule="nonzero"/></clipPath><clipPath id="c14f2f9fd9"><path d="M 55.398438 124.335938 L 55.398438 250.664062 C 55.398438 284.214844 82.597656 311.414062 116.148438 311.414062 L 261.851562 311.414062 C 295.402344 311.414062 322.601562 284.214844 322.601562 250.664062 L 322.601562 124.335938 C 322.601562 90.785156 295.402344 63.585938 261.851562 63.585938 L 116.148438 63.585938 C 82.597656 63.585938 55.398438 90.785156 55.398438 124.335938 Z M 55.398438 124.335938 " clip-rule="nonzero"/></clipPath><clipPath id="f724e771b4"><path d="M 150 101 L 161 101 L 161 112 L 150 112 Z M 150 101 " clip-rule="nonzero"/></clipPath><clipPath id="7190917030"><path d="M 55.398438 124.335938 L 55.398438 250.664062 C 55.398438 284.214844 82.597656 311.414062 116.148438 311.414062 L 261.851562 311.414062 C 295.402344 311.414062 322.601562 284.214844 322.601562 250.664062 L 322.601562 124.335938 C 322.601562 90.785156 295.402344 63.585938 261.851562 63.585938 L 116.148438 63.585938 C 82.597656 63.585938 55.398438 90.785156 55.398438 124.335938 Z M 55.398438 124.335938 " clip-rule="nonzero"/></clipPath><clipPath id="6005957158"><path d="M 141 139 L 151 139 L 151 150 L 141 150 Z M 141 139 " clip-rule="nonzero"/></clipPath><clipPath id="a112873a4d"><path d="M 55.398438 124.335938 L 55.398438 250.664062 C 55.398438 284.214844 82.597656 311.414062 116.148438 311.414062 L 261.851562 311.414062 C 295.402344 311.414062 322.601562 284.214844 322.601562 250.664062 L 322.601562 124.335938 C 322.601562 90.785156 295.402344 63.585938 261.851562 63.585938 L 116.148438 63.585938 C 82.597656 63.585938 55.398438 90.785156 55.398438 124.335938 Z M 55.398438 124.335938 " clip-rule="nonzero"/></clipPath><clipPath id="a12b8382e3"><path d="M 227 158 L 237 158 L 237 169 L 227 169 Z M 227 158 " clip-rule="nonzero"/></clipPath><clipPath id="3dd893b459"><path d="M 55.398438 124.335938 L 55.398438 250.664062 C 55.398438 284.214844 82.597656 311.414062 116.148438 311.414062 L 261.851562 311.414062 C 295.402344 311.414062 322.601562 284.214844 322.601562 250.664062 L 322.601562 124.335938 C 322.601562 90.785156 295.402344 63.585938 261.851562 63.585938 L 116.148438 63.585938 C 82.597656 63.585938 55.398438 90.785156 55.398438 124.335938 Z M 55.398438 124.335938 " clip-rule="nonzero"/></clipPath><clipPath id="5ca54a05d3"><path d="M 227 244 L 237 244 L 237 255 L 227 255 Z M 227 244 " clip-rule="nonzero"/></clipPath><clipPath id="3506b82bc6"><path d="M 55.398438 124.335938 L 55.398438 250.664062 C 55.398438 284.214844 82.597656 311.414062 116.148438 311.414062 L 261.851562 311.414062 C 295.402344 311.414062 322.601562 284.214844 322.601562 250.664062 L 322.601562 124.335938 C 322.601562 90.785156 295.402344 63.585938 261.851562 63.585938 L 116.148438 63.585938 C 82.597656 63.585938 55.398438 90.785156 55.398438 124.335938 Z M 55.398438 124.335938 " clip-rule="nonzero"/></clipPath><clipPath id="5426cb10e0"><path d="M 265 263 L 275 263 L 275 274 L 265 274 Z M 265 263 " clip-rule="nonzero"/></clipPath><clipPath id="70da1c07aa"><path d="M 55.398438 124.335938 L 55.398438 250.664062 C 55.398438 284.214844 82.597656 311.414062 116.148438 311.414062 L 261.851562 311.414062 C 295.402344 311.414062 322.601562 284.214844 322.601562 250.664062 L 322.601562 124.335938 C 322.601562 90.785156 295.402344 63.585938 261.851562 63.585938 L 116.148438 63.585938 C 82.597656 63.585938 55.398438 90.785156 55.398438 124.335938 Z M 55.398438 124.335938 " clip-rule="nonzero"/></clipPath><clipPath id="74bfe13725"><path d="M 312 292 L 322.398438 292 L 322.398438 302 L 312 302 Z M 312 292 " clip-rule="nonzero"/></clipPath><clipPath id="8cdae1b258"><path d="M 55.398438 124.335938 L 55.398438 250.664062 C 55.398438 284.214844 82.597656 311.414062 116.148438 311.414062 L 261.851562 311.414062 C 295.402344 311.414062 322.601562 284.214844 322.601562 250.664062 L 322.601562 124.335938 C 322.601562 90.785156 295.402344 63.585938 261.851562 63.585938 L 116.148438 63.585938 C 82.597656 63.585938 55.398438 90.785156 55.398438 124.335938 Z M 55.398438 124.335938 " clip-rule="nonzero"/></clipPath><clipPath id="95450a8c36"><path d="M 150 177 L 161 177 L 161 188 L 150 188 Z M 150 177 " clip-rule="nonzero"/></clipPath><clipPath id="1405f20caf"><path d="M 55.398438 124.335938 L 55.398438 250.664062 C 55.398438 284.214844 82.597656 311.414062 116.148438 311.414062 L 261.851562 311.414062 C 295.402344 311.414062 322.601562 284.214844 322.601562 250.664062 L 322.601562 124.335938 C 322.601562 90.785156 295.402344 63.585938 261.851562 63.585938 L 116.148438 63.585938 C 82.597656 63.585938 55.398438 90.785156 55.398438 124.335938 Z M 55.398438 124.335938 " clip-rule="nonzero"/></clipPath></defs><g clip-path="url(#016e174440)"><g clip-path="url(#a1fab38699)"><path fill="#fad3c9" d="M 9.527344 12.535156 L 359.457031 12.535156 L 359.457031 362.464844 L 9.527344 362.464844 Z M 9.527344 12.535156 " fill-opacity="1" fill-rule="nonzero"/></g></g><g clip-path="url(#fc4d2600e8)"><g clip-path="url(#547b43014b)"><path fill="#ef7757" d="M 55.558594 63.585938 L 55.558594 311.402344 L 236.65625 311.402344 L 236.65625 282.808594 L 208.0625 263.746094 L 189 216.089844 L 141.34375 206.558594 L 122.28125 149.367188 L 131.8125 101.710938 L 84.15625 63.585938 Z M 55.558594 63.585938 " fill-opacity="1" fill-rule="nonzero"/></g></g><g clip-path="url(#89c87d6cad)"><g clip-path="url(#d004fa529c)"><path fill="#ef7757" d="M 169.9375 139.835938 L 189 130.304688 L 208.0625 139.835938 L 208.0625 168.429688 L 189 177.964844 L 179.46875 177.964844 L 179.46875 168.429688 L 160.40625 158.898438 Z M 169.9375 139.835938 " fill-opacity="1" fill-rule="nonzero"/></g></g><g clip-path="url(#c3c23e71e1)"><g clip-path="url(#bf3034d72d)"><path fill="#ef7757" d="M 208.0625 216.089844 L 227.125 187.496094 L 246.1875 197.027344 L 246.1875 206.558594 L 255.71875 206.558594 L 255.71875 225.621094 L 246.1875 235.152344 L 236.65625 235.152344 L 227.125 225.621094 L 217.59375 225.621094 Z M 208.0625 216.089844 " fill-opacity="1" fill-rule="nonzero"/></g></g><g clip-path="url(#c867f1fd45)"><g clip-path="url(#c14f2f9fd9)"><path fill="#ef7757" d="M 265.25 282.808594 L 284.3125 292.339844 L 293.84375 292.339844 L 293.84375 301.871094 L 284.3125 311.402344 L 246.1875 311.402344 L 255.71875 292.339844 L 255.71875 282.808594 Z M 265.25 282.808594 " fill-opacity="1" fill-rule="nonzero"/></g></g><g clip-path="url(#f724e771b4)"><g clip-path="url(#7190917030)"><path fill="#ef7757" d="M 150.875 101.710938 L 160.40625 101.710938 L 160.40625 111.242188 L 150.875 111.242188 Z M 150.875 101.710938 " fill-opacity="1" fill-rule="nonzero"/></g></g><g clip-path="url(#6005957158)"><g clip-path="url(#a112873a4d)"><path fill="#ef7757" d="M 141.34375 139.835938 L 150.875 139.835938 L 150.875 149.367188 L 141.34375 149.367188 Z M 141.34375 139.835938 " fill-opacity="1" fill-rule="nonzero"/></g></g><g clip-path="url(#a12b8382e3)"><g clip-path="url(#3dd893b459)"><path fill="#ef7757" d="M 227.125 158.898438 L 236.65625 158.898438 L 236.65625 168.429688 L 227.125 168.429688 Z M 227.125 158.898438 " fill-opacity="1" fill-rule="nonzero"/></g></g><g clip-path="url(#5ca54a05d3)"><g clip-path="url(#3506b82bc6)"><path fill="#ef7757" d="M 227.125 244.683594 L 236.65625 244.683594 L 236.65625 254.214844 L 227.125 254.214844 Z M 227.125 244.683594 " fill-opacity="1" fill-rule="nonzero"/></g></g><g clip-path="url(#5426cb10e0)"><g clip-path="url(#70da1c07aa)"><path fill="#ef7757" d="M 265.25 263.746094 L 274.78125 263.746094 L 274.78125 273.277344 L 265.25 273.277344 Z M 265.25 263.746094 " fill-opacity="1" fill-rule="nonzero"/></g></g><g clip-path="url(#74bfe13725)"><g clip-path="url(#8cdae1b258)"><path fill="#ef7757" d="M 312.90625 292.339844 L 322.4375 292.339844 L 322.4375 301.871094 L 312.90625 301.871094 Z M 312.90625 292.339844 " fill-opacity="1" fill-rule="nonzero"/></g></g><g clip-path="url(#95450a8c36)"><g clip-path="url(#1405f20caf)"><path fill="#ef7757" d="M 150.875 177.964844 L 160.40625 177.964844 L 160.40625 187.496094 L 150.875 187.496094 Z M 150.875 177.964844 " fill-opacity="1" fill-rule="nonzero"/></g></g></svg>