<svg xmlns="http://www.w3.org/2000/svg" xmlns:xlink="http://www.w3.org/1999/xlink" width="500" zoomAndPan="magnify" viewBox="0 0 375 374.999991" height="500" preserveAspectRatio="xMidYMid meet" version="1.0"><metadata><ContainsAiGeneratedContent>Yes</ContainsAiGeneratedContent></metadata><defs><clipPath id="4383bb0873"><path d="M 12.535156 15.148438 L 362.464844 15.148438 L 362.464844 365.082031 L 12.535156 365.082031 Z M 12.535156 15.148438 " clip-rule="nonzero"/></clipPath><clipPath id="7b41f22118"><path d="M 187.5 15.148438 C 90.867188 15.148438 12.535156 93.484375 12.535156 190.117188 C 12.535156 286.746094 90.867188 365.082031 187.5 365.082031 C 284.132812 365.082031 362.464844 286.746094 362.464844 190.117188 C 362.464844 93.484375 284.132812 15.148438 187.5 15.148438 Z M 187.5 15.148438 " clip-rule="nonzero"/></clipPath><clipPath id="13a06f071c"><path d="M 149.421875 85.570312 L 225.921875 85.570312 L 225.921875 182.320312 L 149.421875 182.320312 Z M 149.421875 85.570312 " clip-rule="nonzero"/></clipPath><clipPath id="19eb1553ee"><path d="M 79.359375 106 L 283 106 L 283 251 L 79.359375 251 Z M 79.359375 106 " clip-rule="nonzero"/></clipPath><clipPath id="3c39b6cbc1"><path d="M 293 132 L 325.242188 132 L 325.242188 224 L 293 224 Z M 293 132 " clip-rule="nonzero"/></clipPath></defs><g clip-path="url(#4383bb0873)"><g clip-path="url(#7b41f22118)"><path fill="#cdc9e0" d="M 12.535156 15.148438 L 362.464844 15.148438 L 362.464844 365.082031 L 12.535156 365.082031 Z M 12.535156 15.148438 " fill-opacity="1" fill-rule="nonzero"/></g></g><g clip-path="url(#13a06f071c)"><path fill="#cdc9e0" d="M 187.957031 -175.800781 C 80.234375 -175.800781 -7.09375 -88.472656 -7.09375 19.246094 C -7.09375 126.96875 80.234375 214.296875 187.957031 214.296875 C 295.675781 214.296875 383.003906 126.96875 383.003906 19.246094 C 383.003906 -88.472656 295.675781 -175.800781 187.957031 -175.800781 Z M 161.296875 -105.179688 C 162.816406 -119.097656 174.617188 -129.9375 188.933594 -129.9375 C 198.429688 -129.9375 206.8125 -125.171875 211.820312 -117.910156 C 214.511719 -119.953125 217.863281 -121.171875 221.492188 -121.171875 C 230.308594 -121.171875 237.46875 -114.015625 237.46875 -105.199219 C 237.46875 -103.453125 237.1875 -101.777344 236.664062 -100.207031 C 247.417969 -99.367188 255.90625 -90.359375 255.90625 -79.378906 C 255.90625 -68.394531 247.855469 -59.839844 237.46875 -58.636719 L 237.46875 -58.480469 L 166.007812 -58.480469 C 165.257812 -58.410156 164.492188 -58.375 163.722656 -58.375 C 150.769531 -58.375 140.257812 -68.882812 140.257812 -81.839844 C 140.257812 -93.972656 149.476562 -103.960938 161.277344 -105.179688 Z M 245.097656 -19.285156 C 243.789062 -17.066406 240.941406 -16.351562 238.726562 -17.644531 C 236.507812 -18.953125 235.792969 -21.796875 237.085938 -24.015625 C 238.394531 -26.234375 244.871094 -28.03125 244.871094 -28.03125 C 244.871094 -28.03125 246.40625 -21.484375 245.097656 -19.265625 Z M 228.984375 -39.640625 C 227.671875 -37.425781 224.828125 -36.707031 222.609375 -38 C 220.394531 -39.308594 219.679688 -42.15625 220.96875 -44.371094 C 222.277344 -46.589844 228.757812 -48.386719 228.757812 -48.386719 C 228.757812 -48.386719 230.292969 -41.839844 228.984375 -39.625 Z M 212.011719 -19.285156 C 210.703125 -17.066406 207.859375 -16.351562 205.640625 -17.644531 C 203.421875 -18.953125 202.691406 -21.796875 204 -24.015625 C 205.308594 -26.234375 211.785156 -28.03125 211.785156 -28.03125 C 211.785156 -28.03125 213.324219 -21.484375 212.011719 -19.265625 Z M 195.917969 2.765625 C 194.605469 4.984375 191.761719 5.714844 189.542969 4.40625 C 187.328125 3.097656 186.609375 0.25 187.902344 -1.964844 C 189.210938 -4.183594 195.691406 -5.980469 195.691406 -5.980469 C 195.691406 -5.980469 197.226562 0.566406 195.917969 2.785156 Z M 179.800781 -19.285156 C 178.492188 -17.066406 175.648438 -16.351562 173.429688 -17.644531 C 171.210938 -18.953125 170.480469 -21.796875 171.789062 -24.015625 C 173.097656 -26.234375 179.574219 -28.03125 179.574219 -28.03125 C 179.574219 -28.03125 181.113281 -21.484375 179.800781 -19.265625 Z M 164.542969 -39.640625 C 163.234375 -37.425781 160.386719 -36.707031 158.171875 -38 C 155.953125 -39.308594 155.238281 -42.15625 156.53125 -44.371094 C 157.839844 -46.589844 164.316406 -48.386719 164.316406 -48.386719 C 164.316406 -48.386719 165.851562 -41.839844 164.542969 -39.625 Z M 149.285156 -21.832031 C 147.976562 -19.617188 145.128906 -18.898438 142.910156 -20.191406 C 140.695312 -21.5 139.980469 -24.347656 141.269531 -26.566406 C 142.5625 -28.78125 149.058594 -30.582031 149.058594 -30.582031 C 149.058594 -30.582031 150.59375 -24.03125 149.285156 -21.816406 Z M 187.957031 205.566406 C 103.75 205.566406 32.414062 149.417969 9.421875 72.582031 L 366.488281 72.582031 C 343.496094 149.402344 272.160156 205.566406 187.957031 205.566406 Z M 7.46875 65.617188 C 5.425781 57.671875 3.90625 49.539062 2.929688 41.226562 L 39.382812 41.226562 L 39.382812 29.199219 L 18.710938 34.175781 L 29.203125 20.171875 C 24.296875 22.265625 20.105469 22.265625 20.105469 22.265625 C 21.503906 20.871094 32.695312 4.773438 32.695312 4.773438 C 31.296875 6.171875 22.902344 9.679688 22.902344 9.679688 L 34.789062 -7.8125 C 32.695312 -5.71875 25.695312 -4.324219 25.695312 -4.324219 L 40.394531 -24.609375 L 55.09375 -4.324219 C 55.09375 -4.324219 48.09375 -5.71875 46 -7.8125 L 57.886719 9.679688 C 57.886719 9.679688 49.488281 6.1875 48.09375 4.773438 C 48.09375 4.773438 59.285156 20.871094 60.679688 22.265625 C 60.679688 22.265625 56.492188 22.265625 51.585938 20.171875 L 62.078125 34.175781 L 41.722656 29.269531 L 41.722656 41.226562 L 95.984375 41.226562 L 95.984375 27.925781 L 68.484375 34.539062 L 82.453125 15.929688 C 75.941406 18.722656 70.351562 18.722656 70.351562 18.722656 C 72.222656 16.855469 87.113281 -4.550781 87.113281 -4.550781 C 85.246094 -2.679688 74.089844 1.960938 74.089844 1.960938 L 89.90625 -21.308594 C 87.113281 -18.515625 77.808594 -16.648438 77.808594 -16.648438 L 97.363281 -43.640625 L 116.914062 -16.648438 C 116.914062 -16.648438 107.609375 -18.515625 104.816406 -21.308594 L 120.632812 1.960938 C 120.632812 1.960938 109.460938 -2.699219 107.609375 -4.550781 C 107.609375 -4.550781 122.503906 16.855469 124.371094 18.722656 C 124.371094 18.722656 118.785156 18.722656 112.273438 15.929688 L 126.238281 34.539062 L 99.160156 28.011719 L 99.160156 41.210938 L 372.964844 41.210938 C 371.988281 49.519531 370.46875 57.65625 368.425781 65.601562 L 7.46875 65.601562 Z M 7.46875 65.617188 " fill-opacity="1" fill-rule="nonzero"/></g><path fill="#cdc9e0" d="M 187.101562 98.054688 C 187.101562 98.054688 158.292969 128.136719 158.292969 144.042969 C 158.292969 159.945312 171.195312 172.847656 187.101562 172.847656 C 203.003906 172.847656 215.90625 159.945312 215.90625 144.042969 C 215.90625 128.136719 187.101562 98.019531 187.101562 98.054688 Z M 187.886719 169.058594 L 187.726562 169.058594 C 166.585938 167.191406 162.585938 146.589844 162.554688 146.382812 C 162.378906 145.4375 163.007812 144.53125 163.949219 144.355469 C 164.890625 144.179688 165.800781 144.808594 165.976562 145.753906 C 166.113281 146.503906 169.554688 163.945312 188.023438 165.585938 C 188.984375 165.671875 189.683594 166.511719 189.613281 167.472656 C 189.527344 168.378906 188.777344 169.058594 187.886719 169.058594 Z M 187.886719 169.058594 " fill-opacity="1" fill-rule="nonzero"/><path fill="#26216a" d="M 119.023438 297.261719 C 122.734375 306.808594 115.308594 317.417969 105.230469 317.417969 C 94.625 317.417969 87.726562 306.808594 91.441406 297.261719 L 105.230469 261.191406 Z M 102.050781 304.15625 L 104.171875 292.488281 C 104.703125 290.894531 103.640625 289.835938 102.050781 289.304688 C 100.457031 289.304688 99.398438 289.835938 98.867188 291.425781 L 96.746094 303.097656 C 96.214844 305.21875 97.277344 307.871094 98.867188 309.460938 C 100.457031 311.050781 103.109375 311.582031 105.230469 311.582031 C 106.824219 311.050781 107.355469 309.992188 107.355469 308.398438 C 106.824219 306.808594 105.761719 306.277344 104.171875 306.277344 C 103.109375 306.808594 101.519531 305.21875 102.050781 304.15625 Z M 102.050781 304.15625 " fill-opacity="1" fill-rule="nonzero"/><path fill="#26216a" d="M 247.917969 104.1875 C 242.082031 104.1875 236.246094 101.003906 233.066406 96.761719 L 157.214844 96.761719 C 154.5625 101.535156 149.257812 104.1875 143.421875 104.1875 C 133.34375 104.1875 125.386719 96.230469 125.386719 86.152344 C 125.386719 76.074219 133.34375 68.117188 143.421875 68.117188 C 149.257812 68.117188 154.5625 71.300781 157.746094 75.542969 L 185.328125 75.542969 L 185.328125 72.890625 C 185.328125 67.058594 190.101562 62.8125 195.40625 62.8125 C 201.238281 62.8125 205.484375 67.585938 205.484375 72.890625 L 205.484375 76.074219 L 233.066406 76.074219 C 236.246094 71.300781 241.550781 68.648438 247.386719 68.648438 C 257.464844 68.648438 265.421875 76.605469 265.421875 86.683594 C 265.949219 96.230469 257.996094 104.1875 247.917969 104.1875 Z M 247.917969 104.1875 " fill-opacity="1" fill-rule="nonzero"/><g clip-path="url(#19eb1553ee)"><path fill="#26216a" d="M 130.164062 220.347656 L 130.164062 250.582031 L 79.242188 250.582031 L 79.242188 220.347656 C 79.242188 183.21875 109.476562 152.457031 147.136719 152.457031 L 159.335938 152.457031 L 159.335938 133.890625 L 185.328125 133.890625 L 185.328125 106.839844 L 205.484375 106.839844 L 205.484375 133.890625 L 231.472656 133.890625 L 231.472656 152.457031 L 282.925781 152.457031 L 282.925781 203.375 L 146.605469 203.375 C 137.589844 203.90625 130.164062 211.332031 130.164062 220.347656 Z M 130.164062 220.347656 " fill-opacity="1" fill-rule="nonzero"/></g><g clip-path="url(#3c39b6cbc1)"><path fill="#26216a" d="M 293.53125 215.046875 L 293.53125 141.316406 C 293.53125 136.542969 299.367188 132.828125 306.261719 132.828125 L 325.359375 132.828125 L 325.359375 223 L 306.261719 223 C 298.835938 223.53125 293.53125 219.820312 293.53125 215.046875 Z M 293.53125 215.046875 " fill-opacity="1" fill-rule="nonzero"/></g></svg>