<svg xmlns="http://www.w3.org/2000/svg" xmlns:xlink="http://www.w3.org/1999/xlink" width="500" zoomAndPan="magnify" viewBox="0 0 375 374.999991" height="500" preserveAspectRatio="xMidYMid meet" version="1.0"><metadata><ContainsAiGeneratedContent>Yes</ContainsAiGeneratedContent></metadata><defs><clipPath id="915f53f598"><path d="M 12.535156 15.148438 L 362.464844 15.148438 L 362.464844 365.082031 L 12.535156 365.082031 Z M 12.535156 15.148438 " clip-rule="nonzero"/></clipPath><clipPath id="8bd591f1ac"><path d="M 187.5 15.148438 C 90.867188 15.148438 12.535156 93.484375 12.535156 190.117188 C 12.535156 286.746094 90.867188 365.082031 187.5 365.082031 C 284.132812 365.082031 362.464844 286.746094 362.464844 190.117188 C 362.464844 93.484375 284.132812 15.148438 187.5 15.148438 Z M 187.5 15.148438 " clip-rule="nonzero"/></clipPath><clipPath id="1152fc02cd"><path d="M 59.152344 62 L 315.652344 62 L 315.652344 318.269531 L 59.152344 318.269531 Z M 59.152344 62 " clip-rule="nonzero"/></clipPath></defs><g clip-path="url(#915f53f598)"><g clip-path="url(#8bd591f1ac)"><path fill="#26216a" d="M 12.535156 15.148438 L 362.464844 15.148438 L 362.464844 365.082031 L 12.535156 365.082031 Z M 12.535156 15.148438 " fill-opacity="1" fill-rule="nonzero"/></g></g><g clip-path="url(#1152fc02cd)"><path fill="#ffffff" d="M 274.640625 131.988281 L 284.847656 137.941406 C 286.753906 139.054688 289.265625 139.609375 291.777344 139.609375 C 294.285156 139.609375 296.800781 139.054688 298.703125 137.941406 L 308.910156 131.988281 C 312.722656 129.765625 315.839844 124.335938 315.839844 119.925781 L 315.839844 107.890625 C 315.839844 103.480469 312.722656 98.050781 308.910156 95.828125 L 298.703125 89.875 C 296.800781 88.761719 294.285156 88.207031 291.777344 88.207031 C 289.265625 88.207031 286.753906 88.761719 284.847656 89.875 L 274.640625 95.828125 C 270.828125 98.050781 267.710938 103.480469 267.710938 107.890625 L 267.710938 119.925781 C 267.710938 121.234375 268.011719 122.632812 268.5 124.011719 L 201.582031 162.5 C 200.6875 161.472656 199.695312 160.585938 198.640625 159.960938 L 168.332031 142.054688 C 167.6875 141.671875 166.953125 141.378906 166.191406 141.125 L 166.191406 113.023438 C 167.246094 112.75 168.242188 112.375 169.109375 111.871094 L 179.316406 105.917969 C 183.125 103.695312 186.242188 98.269531 186.242188 93.855469 L 186.242188 81.824219 C 186.242188 77.410156 183.125 71.984375 179.316406 69.757812 L 169.109375 63.804688 C 167.203125 62.691406 164.691406 62.136719 162.179688 62.136719 C 159.667969 62.136719 157.15625 62.691406 155.25 63.804688 L 145.042969 69.757812 C 141.230469 71.984375 138.113281 77.410156 138.113281 81.824219 L 138.113281 93.855469 C 138.113281 98.269531 141.230469 103.695312 145.042969 105.917969 L 155.25 111.871094 C 156.113281 112.375 157.113281 112.75 158.167969 113.023438 L 158.167969 140.71875 C 156.835938 140.996094 155.582031 141.425781 154.523438 142.054688 L 124.214844 159.960938 C 120.417969 162.207031 117.308594 167.652344 117.308594 172.0625 L 117.308594 208.160156 C 117.308594 209.003906 117.453125 209.882812 117.660156 210.769531 L 102.707031 219.371094 C 101.96875 218.628906 101.183594 217.972656 100.351562 217.488281 L 90.144531 211.535156 C 88.242188 210.421875 85.730469 209.867188 83.21875 209.867188 C 80.703125 209.867188 78.195312 210.421875 76.289062 211.535156 L 66.082031 217.488281 C 62.269531 219.710938 59.152344 225.140625 59.152344 229.550781 L 59.152344 241.585938 C 59.152344 245.996094 62.269531 251.425781 66.082031 253.648438 L 76.289062 259.601562 C 78.195312 260.710938 80.703125 261.269531 83.21875 261.269531 C 85.730469 261.269531 88.242188 260.710938 90.144531 259.601562 L 100.351562 253.648438 C 104.164062 251.425781 107.28125 245.996094 107.28125 241.585938 L 107.28125 229.550781 C 107.28125 228.503906 107.09375 227.394531 106.773438 226.289062 L 121.394531 217.878906 C 122.257812 218.84375 123.210938 219.671875 124.214844 220.261719 L 154.523438 238.171875 C 155.582031 238.796875 156.835938 239.230469 158.167969 239.507812 L 158.167969 267.199219 C 157.113281 267.476562 156.113281 267.847656 155.25 268.351562 L 145.042969 274.308594 C 141.230469 276.53125 138.113281 281.957031 138.113281 286.371094 L 138.113281 298.402344 C 138.113281 302.816406 141.230469 308.242188 145.042969 310.464844 L 155.25 316.417969 C 157.15625 317.53125 159.667969 318.085938 162.179688 318.085938 C 164.691406 318.085938 167.203125 317.53125 169.109375 316.417969 L 179.316406 310.464844 C 183.125 308.242188 186.242188 302.816406 186.242188 298.402344 L 186.242188 286.371094 C 186.242188 281.957031 183.125 276.53125 179.316406 274.308594 L 169.109375 268.351562 C 168.242188 267.847656 167.246094 267.476562 166.191406 267.199219 L 166.191406 239.097656 C 166.953125 238.847656 167.6875 238.554688 168.332031 238.171875 L 198.640625 220.261719 C 199.460938 219.777344 200.242188 219.117188 200.976562 218.375 L 266.019531 245.828125 C 265.835938 246.65625 265.707031 247.480469 265.707031 248.269531 L 265.707031 260.300781 C 265.707031 264.714844 268.824219 270.140625 272.636719 272.363281 L 282.839844 278.316406 C 284.746094 279.429688 287.261719 279.984375 289.769531 279.984375 C 292.28125 279.984375 294.792969 279.429688 296.699219 278.316406 L 306.90625 272.363281 C 310.71875 270.140625 313.835938 264.714844 313.835938 260.300781 L 313.835938 248.269531 C 313.835938 243.855469 310.71875 238.429688 306.90625 236.203125 L 296.699219 230.25 C 294.792969 229.140625 292.28125 228.582031 289.769531 228.582031 C 287.261719 228.582031 284.746094 229.140625 282.839844 230.25 L 272.636719 236.203125 C 271.589844 236.8125 270.609375 237.675781 269.71875 238.679688 L 205.050781 211.386719 C 205.359375 210.289062 205.546875 209.199219 205.546875 208.160156 L 205.546875 172.0625 C 205.546875 171.285156 205.417969 170.472656 205.238281 169.652344 L 272.933594 130.714844 C 273.484375 131.199219 274.050781 131.640625 274.640625 131.988281 Z M 99.261719 241.585938 C 99.261719 243.148438 97.660156 245.929688 96.3125 246.71875 L 86.105469 252.671875 C 85.738281 252.886719 84.71875 253.246094 83.21875 253.246094 C 81.714844 253.246094 80.695312 252.886719 80.332031 252.671875 L 70.125 246.71875 C 68.773438 245.929688 67.175781 243.148438 67.175781 241.585938 L 67.175781 229.550781 C 67.175781 227.988281 68.773438 225.203125 70.125 224.417969 L 80.332031 218.460938 C 80.695312 218.25 81.71875 217.886719 83.21875 217.886719 C 84.71875 217.886719 85.738281 218.25 86.105469 218.460938 L 96.3125 224.417969 C 97.660156 225.203125 99.261719 227.988281 99.261719 229.550781 Z M 273.726562 248.269531 C 273.726562 246.703125 275.324219 243.921875 276.675781 243.132812 L 286.882812 237.179688 C 287.25 236.964844 288.269531 236.605469 289.769531 236.605469 C 291.269531 236.605469 292.289062 236.964844 292.65625 237.179688 L 302.863281 243.132812 C 304.214844 243.921875 305.8125 246.703125 305.8125 248.269531 L 305.8125 260.300781 C 305.8125 261.863281 304.214844 264.648438 302.863281 265.433594 L 292.65625 271.390625 C 292.289062 271.601562 291.269531 271.964844 289.769531 271.964844 C 288.269531 271.964844 287.25 271.601562 286.882812 271.390625 L 276.675781 265.433594 C 275.324219 264.648438 273.726562 261.863281 273.726562 260.300781 Z M 149.085938 98.988281 C 147.734375 98.203125 146.136719 95.417969 146.136719 93.855469 L 146.136719 81.824219 C 146.136719 80.257812 147.734375 77.476562 149.085938 76.6875 L 159.292969 70.734375 C 159.660156 70.519531 160.679688 70.160156 162.179688 70.160156 C 163.679688 70.160156 164.699219 70.519531 165.066406 70.734375 L 175.273438 76.6875 C 176.625 77.476562 178.222656 80.257812 178.222656 81.824219 L 178.222656 93.855469 C 178.222656 95.417969 176.625 98.203125 175.273438 98.988281 L 165.066406 104.945312 C 164.699219 105.15625 163.679688 105.519531 162.179688 105.519531 C 160.675781 105.519531 159.65625 105.15625 159.292969 104.945312 Z M 175.273438 281.234375 C 176.625 282.023438 178.222656 284.804688 178.222656 286.371094 L 178.222656 298.402344 C 178.222656 299.964844 176.625 302.75 175.273438 303.539062 L 165.066406 309.492188 C 164.699219 309.703125 163.679688 310.066406 162.179688 310.066406 C 160.679688 310.066406 159.660156 309.703125 159.292969 309.492188 L 149.085938 303.539062 C 147.734375 302.75 146.136719 299.964844 146.136719 298.402344 L 146.136719 286.371094 C 146.136719 284.804688 147.734375 282.023438 149.085938 281.234375 L 159.292969 275.28125 C 159.660156 275.070312 160.679688 274.707031 162.179688 274.707031 C 163.679688 274.707031 164.699219 275.070312 165.066406 275.28125 Z M 197.523438 208.160156 C 197.523438 209.738281 195.914062 212.554688 194.558594 213.355469 L 164.25 231.265625 C 163.894531 231.476562 162.898438 231.832031 161.425781 231.832031 C 159.957031 231.832031 158.960938 231.476562 158.601562 231.265625 L 128.296875 213.359375 C 126.9375 212.554688 125.332031 209.738281 125.332031 208.160156 L 125.332031 172.0625 C 125.332031 170.484375 126.9375 167.667969 128.296875 166.867188 L 158.601562 148.957031 C 158.960938 148.746094 159.957031 148.390625 161.425781 148.390625 C 162.898438 148.390625 163.894531 148.746094 164.25 148.960938 L 194.558594 166.867188 C 195.914062 167.667969 197.523438 170.484375 197.523438 172.0625 Z M 275.734375 107.890625 C 275.734375 106.328125 277.332031 103.546875 278.683594 102.757812 L 288.890625 96.804688 C 289.253906 96.589844 290.277344 96.230469 291.777344 96.230469 C 293.277344 96.230469 294.296875 96.589844 294.664062 96.804688 L 304.871094 102.757812 C 306.222656 103.546875 307.820312 106.328125 307.820312 107.890625 L 307.820312 119.925781 C 307.820312 121.488281 306.222656 124.269531 304.871094 125.058594 L 294.664062 131.015625 C 294.296875 131.226562 293.277344 131.585938 291.777344 131.585938 C 290.273438 131.585938 289.253906 131.226562 288.890625 131.015625 L 278.683594 125.058594 C 277.332031 124.269531 275.734375 121.488281 275.734375 119.925781 Z M 275.734375 107.890625 " fill-opacity="1" fill-rule="nonzero"/></g></svg>